<svg width="230" height="100" viewBox="0 0 230 100" fill="none" xmlns="http://www.w3.org/2000/svg">
<g filter="url(#filter0_i_13_209)">
<rect width="230" height="100" rx="25" fill="#F3E7FA" style="fill:#F3E7FA;fill:color(display-p3 0.9518 0.9077 0.9788);fill-opacity:1;"/>
</g>
<path d="M79.0381 61.9747V43.7929H91.8221V47.7701H83.9741V50.8951H91.0409V54.8724H83.9741V61.9747H79.0381ZM93.6377 61.9747V43.7929H98.5737V57.9974H105.925V61.9747H93.6377ZM124.826 52.8838C124.826 54.9079 124.432 56.6154 123.645 58.0063C122.858 59.3912 121.795 60.4418 120.458 61.1579C119.12 61.8682 117.629 62.2233 115.983 62.2233C114.326 62.2233 112.829 61.8652 111.491 61.149C110.159 60.427 109.1 59.3735 108.313 57.9885C107.531 56.5977 107.141 54.8961 107.141 52.8838C107.141 50.8596 107.531 49.1551 108.313 47.7701C109.1 46.3793 110.159 45.3287 111.491 44.6185C112.829 43.9024 114.326 43.5443 115.983 43.5443C117.629 43.5443 119.12 43.9024 120.458 44.6185C121.795 45.3287 122.858 46.3793 123.645 47.7701C124.432 49.1551 124.826 50.8596 124.826 52.8838ZM119.747 52.8838C119.747 51.7948 119.602 50.8774 119.312 50.1316C119.028 49.38 118.605 48.8118 118.043 48.4271C117.487 48.0365 116.8 47.8412 115.983 47.8412C115.166 47.8412 114.477 48.0365 113.915 48.4271C113.358 48.8118 112.935 49.38 112.645 50.1316C112.361 50.8774 112.219 51.7948 112.219 52.8838C112.219 53.9728 112.361 54.8931 112.645 55.6448C112.935 56.3905 113.358 56.9587 113.915 57.3493C114.477 57.734 115.166 57.9264 115.983 57.9264C116.8 57.9264 117.487 57.734 118.043 57.3493C118.605 56.9587 119.028 56.3905 119.312 55.6448C119.602 54.8931 119.747 53.9728 119.747 52.8838ZM130.578 61.9747L125.216 43.7929H130.72L133.206 54.9789H133.348L136.296 43.7929H140.628L143.576 55.0145H143.718L146.203 43.7929H151.708L146.345 61.9747H141.622L138.533 51.8184H138.391L135.301 61.9747H130.578Z" fill="black" style="fill:black;fill:black;fill-opacity:1;"/>
<path d="M80.7146 77.1519H80.047C79.9973 76.9033 79.9073 76.6737 79.7771 76.463C79.6493 76.2499 79.4883 76.0641 79.2942 75.9055C79.1 75.7468 78.8799 75.6237 78.6337 75.5361C78.3874 75.4485 78.1211 75.4047 77.8346 75.4047C77.3754 75.4047 76.9563 75.5243 76.5775 75.7634C76.2011 76.0025 75.8993 76.3541 75.672 76.8181C75.4471 77.2797 75.3346 77.8456 75.3346 78.5155C75.3346 79.1903 75.4471 79.7584 75.672 80.2201C75.8993 80.6817 76.2011 81.0321 76.5775 81.2712C76.9563 81.508 77.3754 81.6263 77.8346 81.6263C78.1211 81.6263 78.3874 81.5825 78.6337 81.4949C78.8799 81.4073 79.1 81.2854 79.2942 81.1292C79.4883 80.9706 79.6493 80.7847 79.7771 80.5716C79.9073 80.3586 79.9973 80.1278 80.047 79.8792H80.7146C80.6554 80.213 80.5442 80.5243 80.3808 80.8131C80.2198 81.0996 80.0139 81.3505 79.7629 81.566C79.5143 81.7814 79.2279 81.9495 78.9035 82.0702C78.5792 82.191 78.2229 82.2513 77.8346 82.2513C77.2239 82.2513 76.6817 82.0986 76.2082 81.7932C75.7347 81.4855 75.3631 81.0522 75.0932 80.4935C74.8257 79.9348 74.6919 79.2755 74.6919 78.5155C74.6919 77.7556 74.8257 77.0963 75.0932 76.5376C75.3631 75.9788 75.7347 75.5468 76.2082 75.2414C76.6817 74.9336 77.2239 74.7797 77.8346 74.7797C78.2229 74.7797 78.5792 74.8401 78.9035 74.9609C79.2279 75.0792 79.5143 75.2473 79.7629 75.4651C80.0139 75.6805 80.2198 75.9315 80.3808 76.218C80.5442 76.5044 80.6554 76.8157 80.7146 77.1519ZM82.7752 74.8792V82.1519H82.1431V74.8792H82.7752ZM84.4549 82.1519V76.6974H85.0905V82.1519H84.4549ZM84.778 75.7599C84.6478 75.7599 84.5365 75.7161 84.4442 75.6285C84.3519 75.5385 84.3057 75.4308 84.3057 75.3053C84.3057 75.1798 84.3519 75.0733 84.4442 74.9857C84.5365 74.8957 84.6478 74.8508 84.778 74.8508C84.9082 74.8508 85.0195 74.8957 85.1118 74.9857C85.2041 75.0733 85.2503 75.1798 85.2503 75.3053C85.2503 75.4308 85.2041 75.5385 85.1118 75.6285C85.0195 75.7161 84.9082 75.7599 84.778 75.7599ZM88.8929 82.2655C88.4052 82.2655 87.9802 82.1436 87.618 81.8998C87.2582 81.6559 86.9788 81.3221 86.78 80.8984C86.5811 80.4746 86.4817 79.9916 86.4817 79.4495C86.4817 78.9026 86.5823 78.4161 86.7835 77.99C86.9871 77.5638 87.2688 77.23 87.6287 76.9885C87.9885 76.7447 88.4064 76.6228 88.8822 76.6228C89.2468 76.6228 89.5771 76.6938 89.873 76.8359C90.1689 76.9755 90.4128 77.1732 90.6045 77.4289C90.7987 77.6822 90.9206 77.9781 90.9703 78.3167H90.3311C90.2648 78.0089 90.105 77.7461 89.8517 77.5283C89.6007 77.3082 89.2811 77.1981 88.8929 77.1981C88.5449 77.1981 88.2371 77.2928 87.9696 77.4822C87.7021 77.6692 87.4926 77.9308 87.341 78.267C87.1919 78.6008 87.1173 78.9878 87.1173 79.4282C87.1173 79.8709 87.1907 80.2627 87.3375 80.6036C87.4843 80.9421 87.6902 81.2073 87.9554 81.3991C88.2229 81.5908 88.5354 81.6867 88.8929 81.6867C89.1344 81.6867 89.3545 81.6417 89.5534 81.5518C89.7546 81.4594 89.9227 81.3292 90.0577 81.1611C90.195 80.993 90.2873 80.793 90.3346 80.561H90.9739C90.9265 80.8901 90.8093 81.1836 90.6223 81.4417C90.4376 81.6974 90.1973 81.8986 89.9014 82.0454C89.6078 82.1921 89.2717 82.2655 88.8929 82.2655ZM95.7732 78.7428V82.1519H95.1411V74.8792H95.7732V77.5532H95.83C95.9579 77.2715 96.1556 77.0466 96.4231 76.8785C96.693 76.7104 97.0339 76.6263 97.4458 76.6263C97.8151 76.6263 98.1395 76.7021 98.4188 76.8536C98.6982 77.0051 98.916 77.2288 99.0722 77.5248C99.2285 77.8207 99.3066 78.1853 99.3066 78.6185V82.1519H98.6709V78.6576C98.6709 78.2078 98.5455 77.8538 98.2945 77.5958C98.0459 77.3354 97.7098 77.2052 97.286 77.2052C96.9948 77.2052 96.7356 77.2667 96.5083 77.3898C96.281 77.5129 96.1011 77.6905 95.9685 77.9225C95.8383 78.1521 95.7732 78.4256 95.7732 78.7428ZM103.176 82.2655C102.667 82.2655 102.227 82.1472 101.855 81.9104C101.484 81.6713 101.196 81.3411 100.992 80.9197C100.791 80.4959 100.691 80.0082 100.691 79.4566C100.691 78.9073 100.791 78.4197 100.992 77.9935C101.196 77.565 101.477 77.23 101.834 76.9885C102.194 76.7447 102.609 76.6228 103.081 76.6228C103.376 76.6228 103.662 76.6772 103.936 76.7861C104.211 76.8927 104.457 77.0572 104.675 77.2797C104.895 77.4999 105.069 77.7781 105.197 78.1143C105.325 78.4481 105.389 78.8434 105.389 79.3003V79.6128H101.127V79.0553H104.742C104.742 78.7049 104.671 78.3901 104.529 78.1107C104.39 77.829 104.194 77.6064 103.943 77.4431C103.695 77.2797 103.407 77.1981 103.081 77.1981C102.735 77.1981 102.431 77.2904 102.168 77.4751C101.905 77.6597 101.699 77.9036 101.55 78.2066C101.403 78.5096 101.329 78.8411 101.326 79.2009V79.5347C101.326 79.968 101.401 80.3467 101.55 80.6711C101.702 80.993 101.916 81.2428 102.193 81.4204C102.47 81.5979 102.798 81.6867 103.176 81.6867C103.434 81.6867 103.661 81.6465 103.855 81.566C104.051 81.4855 104.216 81.3778 104.348 81.2428C104.483 81.1055 104.585 80.9552 104.654 80.7918L105.254 80.9871C105.171 81.2168 105.035 81.4287 104.845 81.6228C104.658 81.8169 104.424 81.9732 104.142 82.0915C103.863 82.2075 103.541 82.2655 103.176 82.2655ZM106.782 82.1519V76.6974H107.396V77.5354H107.442C107.551 77.2608 107.741 77.0394 108.01 76.8714C108.283 76.7009 108.59 76.6157 108.934 76.6157C108.986 76.6157 109.044 76.6169 109.108 76.6192C109.172 76.6216 109.225 76.624 109.268 76.6263V77.2691C109.239 77.2644 109.189 77.2573 109.118 77.2478C109.047 77.2383 108.97 77.2336 108.888 77.2336C108.603 77.2336 108.35 77.2939 108.128 77.4147C107.907 77.5331 107.733 77.6976 107.606 77.9083C107.478 78.119 107.414 78.3593 107.414 78.6292V82.1519H106.782ZM112.385 82.2655C111.876 82.2655 111.436 82.1472 111.064 81.9104C110.693 81.6713 110.405 81.3411 110.201 80.9197C110 80.4959 109.9 80.0082 109.9 79.4566C109.9 78.9073 110 78.4197 110.201 77.9935C110.405 77.565 110.686 77.23 111.043 76.9885C111.403 76.7447 111.818 76.6228 112.29 76.6228C112.585 76.6228 112.871 76.6772 113.145 76.7861C113.42 76.8927 113.666 77.0572 113.884 77.2797C114.104 77.4999 114.278 77.7781 114.406 78.1143C114.534 78.4481 114.598 78.8434 114.598 79.3003V79.6128H110.336V79.0553H113.951C113.951 78.7049 113.88 78.3901 113.738 78.1107C113.599 77.829 113.403 77.6064 113.152 77.4431C112.904 77.2797 112.616 77.1981 112.29 77.1981C111.944 77.1981 111.64 77.2904 111.377 77.4751C111.114 77.6597 110.908 77.9036 110.759 78.2066C110.612 78.5096 110.538 78.8411 110.535 79.2009V79.5347C110.535 79.968 110.61 80.3467 110.759 80.6711C110.911 80.993 111.125 81.2428 111.402 81.4204C111.679 81.5979 112.007 81.6867 112.385 81.6867C112.643 81.6867 112.87 81.6465 113.064 81.566C113.26 81.4855 113.425 81.3778 113.557 81.2428C113.692 81.1055 113.794 80.9552 113.863 80.7918L114.463 80.9871C114.38 81.2168 114.244 81.4287 114.054 81.6228C113.867 81.8169 113.633 81.9732 113.351 82.0915C113.072 82.2075 112.75 82.2655 112.385 82.2655ZM120.952 76.6974V77.2478H118.349V76.6974H120.952ZM119.162 75.3905H119.798V80.7279C119.798 80.9552 119.837 81.1339 119.915 81.2641C119.993 81.392 120.095 81.4831 120.22 81.5376C120.346 81.5896 120.479 81.6157 120.621 81.6157C120.704 81.6157 120.775 81.6109 120.834 81.6015C120.894 81.5896 120.946 81.5778 120.991 81.566L121.126 82.1377C121.064 82.1614 120.988 82.1827 120.898 82.2016C120.808 82.2229 120.697 82.2336 120.565 82.2336C120.333 82.2336 120.109 82.1827 119.893 82.0809C119.68 81.9791 119.505 81.8276 119.368 81.6263C119.231 81.4251 119.162 81.1753 119.162 80.877V75.3905ZM124.449 82.2655C123.978 82.2655 123.561 82.146 123.199 81.9069C122.839 81.6678 122.557 81.3375 122.353 80.9161C122.15 80.4923 122.048 80.0035 122.048 79.4495C122.048 78.8908 122.15 78.3995 122.353 77.9758C122.557 77.5496 122.839 77.2182 123.199 76.9814C123.561 76.7423 123.978 76.6228 124.449 76.6228C124.92 76.6228 125.335 76.7423 125.695 76.9814C126.055 77.2206 126.337 77.552 126.54 77.9758C126.746 78.3995 126.849 78.8908 126.849 79.4495C126.849 80.0035 126.747 80.4923 126.544 80.9161C126.34 81.3375 126.057 81.6678 125.695 81.9069C125.335 82.146 124.92 82.2655 124.449 82.2655ZM124.449 81.6867C124.827 81.6867 125.148 81.5849 125.411 81.3813C125.674 81.1777 125.873 80.9066 126.008 80.5681C126.145 80.2296 126.214 79.8567 126.214 79.4495C126.214 79.0423 126.145 78.6682 126.008 78.3273C125.873 77.9864 125.674 77.713 125.411 77.507C125.148 77.301 124.827 77.1981 124.449 77.1981C124.072 77.1981 123.751 77.301 123.486 77.507C123.223 77.713 123.023 77.9864 122.886 78.3273C122.751 78.6682 122.684 79.0423 122.684 79.4495C122.684 79.8567 122.751 80.2296 122.886 80.5681C123.023 80.9066 123.223 81.1777 123.486 81.3813C123.749 81.5849 124.07 81.6867 124.449 81.6867ZM134.714 77.8941L134.135 78.0574C134.078 77.8941 133.998 77.7461 133.894 77.6135C133.79 77.481 133.653 77.3756 133.485 77.2975C133.32 77.2194 133.114 77.1803 132.867 77.1803C132.498 77.1803 132.195 77.2679 131.958 77.4431C131.722 77.6183 131.603 77.8444 131.603 78.1214C131.603 78.3557 131.684 78.5463 131.845 78.6931C132.008 78.8375 132.259 78.9523 132.598 79.0376L133.421 79.24C133.878 79.3512 134.22 79.5276 134.448 79.7691C134.677 80.0106 134.792 80.3136 134.792 80.6782C134.792 80.9859 134.707 81.2594 134.537 81.4985C134.366 81.7376 134.128 81.9258 133.823 82.0631C133.52 82.1981 133.168 82.2655 132.768 82.2655C132.235 82.2655 131.796 82.146 131.451 81.9069C131.105 81.6654 130.884 81.3174 130.787 80.8628L131.394 80.7137C131.472 81.038 131.625 81.2831 131.852 81.4488C132.082 81.6145 132.383 81.6974 132.757 81.6974C133.176 81.6974 133.511 81.6038 133.762 81.4168C134.013 81.2274 134.139 80.9907 134.139 80.7066C134.139 80.4864 134.065 80.3018 133.919 80.1526C133.772 80.0011 133.549 79.8898 133.251 79.8188L132.36 79.6057C131.886 79.4921 131.536 79.3122 131.309 79.066C131.081 78.8198 130.968 78.5144 130.968 78.1498C130.968 77.8491 131.049 77.5851 131.213 77.3579C131.376 77.1282 131.601 76.9483 131.887 76.8181C132.174 76.6879 132.501 76.6228 132.867 76.6228C133.367 76.6228 133.766 76.7364 134.064 76.9637C134.365 77.1886 134.582 77.4987 134.714 77.8941ZM136.808 78.7428V82.1519H136.176V74.8792H136.808V77.5532H136.865C136.993 77.2715 137.191 77.0466 137.458 76.8785C137.728 76.7104 138.069 76.6263 138.481 76.6263C138.85 76.6263 139.175 76.7021 139.454 76.8536C139.733 77.0051 139.951 77.2288 140.107 77.5248C140.264 77.8207 140.342 78.1853 140.342 78.6185V82.1519H139.706V78.6576C139.706 78.2078 139.581 77.8538 139.33 77.5958C139.081 77.3354 138.745 77.2052 138.321 77.2052C138.03 77.2052 137.771 77.2667 137.543 77.3898C137.316 77.5129 137.136 77.6905 137.004 77.9225C136.873 78.1521 136.808 78.4256 136.808 78.7428ZM143.53 82.2762C143.201 82.2762 142.9 82.2123 142.628 82.0844C142.356 81.9542 142.139 81.7672 141.978 81.5234C141.817 81.2771 141.736 80.9788 141.736 80.6285C141.736 80.3586 141.787 80.1313 141.889 79.9466C141.991 79.762 142.135 79.6105 142.322 79.4921C142.509 79.3737 142.731 79.2802 142.986 79.2116C143.242 79.1429 143.524 79.0896 143.832 79.0518C144.137 79.0139 144.395 78.9807 144.606 78.9523C144.819 78.9239 144.981 78.8789 145.092 78.8174C145.204 78.7558 145.259 78.6564 145.259 78.5191V78.3912C145.259 78.0196 145.148 77.7272 144.925 77.5141C144.705 77.2987 144.388 77.191 143.974 77.191C143.581 77.191 143.26 77.2774 143.011 77.4502C142.765 77.623 142.592 77.8266 142.493 78.061L141.893 77.8444C142.016 77.5461 142.186 77.3082 142.404 77.1306C142.622 76.9507 142.866 76.8216 143.136 76.7435C143.405 76.663 143.679 76.6228 143.956 76.6228C144.164 76.6228 144.381 76.65 144.606 76.7045C144.833 76.7589 145.044 76.8536 145.238 76.9885C145.432 77.1211 145.589 77.307 145.71 77.5461C145.831 77.7828 145.891 78.0835 145.891 78.4481V82.1519H145.259V81.289H145.22C145.144 81.45 145.032 81.6062 144.883 81.7577C144.734 81.9092 144.547 82.0335 144.322 82.1306C144.097 82.2277 143.833 82.2762 143.53 82.2762ZM143.615 81.6974C143.951 81.6974 144.242 81.6228 144.489 81.4736C144.735 81.3245 144.924 81.1268 145.057 80.8806C145.192 80.632 145.259 80.3586 145.259 80.0603V79.2719C145.212 79.3169 145.133 79.3572 145.021 79.3927C144.912 79.4282 144.786 79.4601 144.641 79.4885C144.499 79.5146 144.357 79.5371 144.215 79.556C144.073 79.575 143.945 79.5915 143.832 79.6057C143.524 79.6436 143.261 79.7028 143.043 79.7833C142.825 79.8638 142.659 79.9751 142.543 80.1171C142.427 80.2568 142.369 80.4367 142.369 80.6569C142.369 80.9883 142.487 81.2452 142.724 81.4275C142.96 81.6074 143.258 81.6974 143.615 81.6974ZM147.573 82.1519V76.6974H148.187V77.5354H148.233C148.342 77.2608 148.532 77.0394 148.801 76.8714C149.074 76.7009 149.381 76.6157 149.725 76.6157C149.777 76.6157 149.835 76.6169 149.899 76.6192C149.963 76.6216 150.016 76.624 150.059 76.6263V77.2691C150.03 77.2644 149.98 77.2573 149.909 77.2478C149.838 77.2383 149.761 77.2336 149.679 77.2336C149.394 77.2336 149.141 77.2939 148.919 77.4147C148.698 77.5331 148.524 77.6976 148.397 77.9083C148.269 78.119 148.205 78.3593 148.205 78.6292V82.1519H147.573ZM153.176 82.2655C152.667 82.2655 152.227 82.1472 151.855 81.9104C151.484 81.6713 151.196 81.3411 150.992 80.9197C150.791 80.4959 150.691 80.0082 150.691 79.4566C150.691 78.9073 150.791 78.4197 150.992 77.9935C151.196 77.565 151.477 77.23 151.834 76.9885C152.194 76.7447 152.609 76.6228 153.081 76.6228C153.376 76.6228 153.662 76.6772 153.936 76.7861C154.211 76.8927 154.457 77.0572 154.675 77.2797C154.895 77.4999 155.069 77.7781 155.197 78.1143C155.325 78.4481 155.389 78.8434 155.389 79.3003V79.6128H151.127V79.0553H154.742C154.742 78.7049 154.671 78.3901 154.529 78.1107C154.39 77.829 154.194 77.6064 153.943 77.4431C153.695 77.2797 153.407 77.1981 153.081 77.1981C152.735 77.1981 152.431 77.2904 152.168 77.4751C151.905 77.6597 151.699 77.9036 151.55 78.2066C151.403 78.5096 151.329 78.8411 151.326 79.2009V79.5347C151.326 79.968 151.401 80.3467 151.55 80.6711C151.702 80.993 151.916 81.2428 152.193 81.4204C152.47 81.5979 152.798 81.6867 153.176 81.6867C153.434 81.6867 153.661 81.6465 153.855 81.566C154.051 81.4855 154.216 81.3778 154.348 81.2428C154.483 81.1055 154.585 80.9552 154.654 80.7918L155.254 80.9871C155.171 81.2168 155.035 81.4287 154.845 81.6228C154.658 81.8169 154.424 81.9732 154.142 82.0915C153.863 82.2075 153.541 82.2655 153.176 82.2655Z" fill="black" style="fill:black;fill:black;fill-opacity:1;"/>
<g clip-path="url(#clip0_13_209)">
<path d="M115 31.6456V26.1076M115 26.1076C115.551 26.108 116.1 26.041 116.633 25.9082M115 26.1076C114.449 26.108 113.9 26.041 113.366 25.9082M117.45 33.7964C115.831 34.0942 114.169 34.0942 112.55 33.7964M116.633 36.3101C115.547 36.4203 114.452 36.4203 113.366 36.3101M117.45 31.6456V31.443C117.45 30.4061 118.167 29.52 119.092 29C120.648 28.1277 121.862 26.7829 122.548 25.1741C123.234 23.5653 123.354 21.7822 122.887 20.1011C122.421 18.42 121.395 16.9348 119.969 15.8756C118.543 14.8164 116.796 14.2423 114.999 14.2423C113.202 14.2423 111.455 14.8164 110.029 15.8756C108.603 16.9348 107.578 18.42 107.111 20.1011C106.645 21.7822 106.764 23.5653 107.45 25.1741C108.137 26.7829 109.351 28.1277 110.906 29C111.832 29.52 112.55 30.4061 112.55 31.443V31.6456" stroke="black" style="stroke:black;stroke:black;stroke-opacity:1;" stroke-width="1.5" stroke-linecap="round" stroke-linejoin="round"/>
</g>
<defs>
<filter id="filter0_i_13_209" x="0" y="0" width="230" height="104" filterUnits="userSpaceOnUse" color-interpolation-filters="sRGB">
<feFlood flood-opacity="0" result="BackgroundImageFix"/>
<feBlend mode="normal" in="SourceGraphic" in2="BackgroundImageFix" result="shape"/>
<feColorMatrix in="SourceAlpha" type="matrix" values="0 0 0 0 0 0 0 0 0 0 0 0 0 0 0 0 0 0 127 0" result="hardAlpha"/>
<feOffset dy="4"/>
<feGaussianBlur stdDeviation="2"/>
<feComposite in2="hardAlpha" operator="arithmetic" k2="-1" k3="1"/>
<feColorMatrix type="matrix" values="0 0 0 0 0 0 0 0 0 0 0 0 0 0 0 0 0 0 0.25 0"/>
<feBlend mode="normal" in2="shape" result="effect1_innerShadow_13_209"/>
</filter>
<clipPath id="clip0_13_209">
<rect width="26.1364" height="25.3165" fill="white" style="fill:white;fill:white;fill-opacity:1;" transform="translate(101.932 12.6582)"/>
</clipPath>
</defs>
</svg>
