<svg width="238" height="108" viewBox="0 0 238 108" fill="none" xmlns="http://www.w3.org/2000/svg">
<g filter="url(#filter0_d_13_206)">
<g filter="url(#filter1_d_13_206)">
<rect x="4" width="230" height="100" rx="25" fill="#F3E7FA" style="fill:#F3E7FA;fill:color(display-p3 0.9518 0.9077 0.9788);fill-opacity:1;"/>
</g>
<path d="M83.0381 61.9747V43.7929H95.8221V47.7701H87.9741V50.8951H95.0409V54.8724H87.9741V61.9747H83.0381ZM97.6377 61.9747V43.7929H102.574V57.9974H109.925V61.9747H97.6377ZM128.826 52.8838C128.826 54.9079 128.432 56.6154 127.645 58.0063C126.858 59.3912 125.795 60.4418 124.458 61.1579C123.12 61.8682 121.629 62.2233 119.983 62.2233C118.326 62.2233 116.829 61.8652 115.491 61.149C114.159 60.427 113.1 59.3735 112.313 57.9885C111.531 56.5977 111.141 54.8961 111.141 52.8838C111.141 50.8596 111.531 49.1551 112.313 47.7701C113.1 46.3793 114.159 45.3287 115.491 44.6185C116.829 43.9024 118.326 43.5443 119.983 43.5443C121.629 43.5443 123.12 43.9024 124.458 44.6185C125.795 45.3287 126.858 46.3793 127.645 47.7701C128.432 49.1551 128.826 50.8596 128.826 52.8838ZM123.747 52.8838C123.747 51.7948 123.602 50.8774 123.312 50.1316C123.028 49.38 122.605 48.8118 122.043 48.4271C121.487 48.0365 120.8 47.8412 119.983 47.8412C119.166 47.8412 118.477 48.0365 117.915 48.4271C117.358 48.8118 116.935 49.38 116.645 50.1316C116.361 50.8774 116.219 51.7948 116.219 52.8838C116.219 53.9728 116.361 54.8931 116.645 55.6448C116.935 56.3905 117.358 56.9587 117.915 57.3493C118.477 57.734 119.166 57.9264 119.983 57.9264C120.8 57.9264 121.487 57.734 122.043 57.3493C122.605 56.9587 123.028 56.3905 123.312 55.6448C123.602 54.8931 123.747 53.9728 123.747 52.8838ZM134.578 61.9747L129.216 43.7929H134.72L137.206 54.9789H137.348L140.296 43.7929H144.628L147.576 55.0145H147.718L150.203 43.7929H155.708L150.345 61.9747H145.622L142.533 51.8184H142.391L139.301 61.9747H134.578Z" fill="black" style="fill:black;fill:black;fill-opacity:1;"/>
<path d="M84.7146 77.1519H84.047C83.9973 76.9033 83.9073 76.6737 83.7771 76.463C83.6493 76.2499 83.4883 76.0641 83.2942 75.9054C83.1 75.7468 82.8799 75.6237 82.6337 75.5361C82.3874 75.4485 82.1211 75.4047 81.8346 75.4047C81.3754 75.4047 80.9563 75.5243 80.5775 75.7634C80.2011 76.0025 79.8993 76.3541 79.672 76.8181C79.4471 77.2797 79.3346 77.8455 79.3346 78.5155C79.3346 79.1902 79.4471 79.7584 79.672 80.2201C79.8993 80.6817 80.2011 81.0321 80.5775 81.2712C80.9563 81.508 81.3754 81.6263 81.8346 81.6263C82.1211 81.6263 82.3874 81.5825 82.6337 81.4949C82.8799 81.4073 83.1 81.2854 83.2942 81.1292C83.4883 80.9705 83.6493 80.7847 83.7771 80.5716C83.9073 80.3586 83.9973 80.1277 84.047 79.8792H84.7146C84.6554 80.213 84.5442 80.5243 84.3808 80.8131C84.2198 81.0996 84.0139 81.3505 83.7629 81.566C83.5143 81.7814 83.2279 81.9495 82.9035 82.0702C82.5792 82.191 82.2229 82.2513 81.8346 82.2513C81.2239 82.2513 80.6817 82.0986 80.2082 81.7932C79.7347 81.4855 79.3631 81.0522 79.0932 80.4935C78.8257 79.9348 78.6919 79.2755 78.6919 78.5155C78.6919 77.7556 78.8257 77.0963 79.0932 76.5375C79.3631 75.9788 79.7347 75.5468 80.2082 75.2414C80.6817 74.9336 81.2239 74.7797 81.8346 74.7797C82.2229 74.7797 82.5792 74.8401 82.9035 74.9608C83.2279 75.0792 83.5143 75.2473 83.7629 75.4651C84.0139 75.6805 84.2198 75.9315 84.3808 76.2179C84.5442 76.5044 84.6554 76.8157 84.7146 77.1519ZM86.7752 74.8792V82.1519H86.1431V74.8792H86.7752ZM88.4549 82.1519V76.6973H89.0905V82.1519H88.4549ZM88.778 75.7598C88.6478 75.7598 88.5365 75.7161 88.4442 75.6285C88.3519 75.5385 88.3057 75.4308 88.3057 75.3053C88.3057 75.1798 88.3519 75.0733 88.4442 74.9857C88.5365 74.8957 88.6478 74.8508 88.778 74.8508C88.9082 74.8508 89.0195 74.8957 89.1118 74.9857C89.2041 75.0733 89.2503 75.1798 89.2503 75.3053C89.2503 75.4308 89.2041 75.5385 89.1118 75.6285C89.0195 75.7161 88.9082 75.7598 88.778 75.7598ZM92.8929 82.2655C92.4052 82.2655 91.9802 82.1436 91.618 81.8998C91.2582 81.6559 90.9788 81.3221 90.78 80.8983C90.5811 80.4746 90.4817 79.9916 90.4817 79.4495C90.4817 78.9026 90.5823 78.4161 90.7835 77.99C90.9871 77.5638 91.2688 77.23 91.6287 76.9885C91.9885 76.7447 92.4064 76.6228 92.8822 76.6228C93.2468 76.6228 93.5771 76.6938 93.873 76.8358C94.1689 76.9755 94.4128 77.1732 94.6045 77.4289C94.7987 77.6822 94.9206 77.9781 94.9703 78.3167H94.3311C94.2648 78.0089 94.105 77.7461 93.8517 77.5283C93.6007 77.3081 93.2811 77.1981 92.8929 77.1981C92.5449 77.1981 92.2371 77.2928 91.9696 77.4821C91.7021 77.6692 91.4926 77.9308 91.341 78.267C91.1919 78.6008 91.1173 78.9878 91.1173 79.4282C91.1173 79.8709 91.1907 80.2627 91.3375 80.6036C91.4843 80.9421 91.6902 81.2073 91.9554 81.3991C92.2229 81.5908 92.5354 81.6867 92.8929 81.6867C93.1344 81.6867 93.3545 81.6417 93.5534 81.5518C93.7546 81.4594 93.9227 81.3292 94.0577 81.1611C94.195 80.993 94.2873 80.793 94.3346 80.561H94.9739C94.9265 80.8901 94.8093 81.1836 94.6223 81.4417C94.4376 81.6973 94.1973 81.8986 93.9014 82.0454C93.6078 82.1921 93.2717 82.2655 92.8929 82.2655ZM99.7732 78.7428V82.1519H99.1411V74.8792H99.7732V77.5532H99.83C99.9579 77.2714 100.156 77.0465 100.423 76.8785C100.693 76.7104 101.034 76.6263 101.446 76.6263C101.815 76.6263 102.139 76.7021 102.419 76.8536C102.698 77.0051 102.916 77.2288 103.072 77.5248C103.228 77.8207 103.307 78.1853 103.307 78.6185V82.1519H102.671V78.6576C102.671 78.2078 102.545 77.8538 102.295 77.5958C102.046 77.3354 101.71 77.2052 101.286 77.2052C100.995 77.2052 100.736 77.2667 100.508 77.3898C100.281 77.5129 100.101 77.6905 99.9685 77.9225C99.8383 78.1521 99.7732 78.4256 99.7732 78.7428ZM107.176 82.2655C106.667 82.2655 106.227 82.1472 105.855 81.9104C105.484 81.6713 105.196 81.3411 104.992 80.9196C104.791 80.4959 104.691 80.0082 104.691 79.4566C104.691 78.9073 104.791 78.4196 104.992 77.9935C105.196 77.565 105.477 77.23 105.834 76.9885C106.194 76.7447 106.609 76.6228 107.081 76.6228C107.376 76.6228 107.662 76.6772 107.936 76.7861C108.211 76.8927 108.457 77.0572 108.675 77.2797C108.895 77.4999 109.069 77.7781 109.197 78.1143C109.325 78.4481 109.389 78.8434 109.389 79.3003V79.6128H105.127V79.0553H108.742C108.742 78.7049 108.671 78.3901 108.529 78.1107C108.39 77.829 108.194 77.6064 107.943 77.4431C107.695 77.2797 107.407 77.1981 107.081 77.1981C106.735 77.1981 106.431 77.2904 106.168 77.475C105.905 77.6597 105.699 77.9036 105.55 78.2066C105.403 78.5096 105.329 78.8411 105.326 79.2009V79.5347C105.326 79.9679 105.401 80.3467 105.55 80.6711C105.702 80.993 105.916 81.2428 106.193 81.4204C106.47 81.5979 106.798 81.6867 107.176 81.6867C107.434 81.6867 107.661 81.6464 107.855 81.566C108.051 81.4855 108.216 81.3777 108.348 81.2428C108.483 81.1055 108.585 80.9552 108.654 80.7918L109.254 80.9871C109.171 81.2168 109.035 81.4286 108.845 81.6228C108.658 81.8169 108.424 81.9732 108.142 82.0915C107.863 82.2075 107.541 82.2655 107.176 82.2655ZM110.782 82.1519V76.6973H111.396V77.5354H111.442C111.551 77.2608 111.741 77.0394 112.01 76.8714C112.283 76.7009 112.59 76.6157 112.934 76.6157C112.986 76.6157 113.044 76.6169 113.108 76.6192C113.172 76.6216 113.225 76.624 113.268 76.6263V77.2691C113.239 77.2643 113.189 77.2572 113.118 77.2478C113.047 77.2383 112.97 77.2336 112.888 77.2336C112.603 77.2336 112.35 77.2939 112.128 77.4147C111.907 77.533 111.733 77.6976 111.606 77.9083C111.478 78.119 111.414 78.3593 111.414 78.6292V82.1519H110.782ZM116.385 82.2655C115.876 82.2655 115.436 82.1472 115.064 81.9104C114.693 81.6713 114.405 81.3411 114.201 80.9196C114 80.4959 113.9 80.0082 113.9 79.4566C113.9 78.9073 114 78.4196 114.201 77.9935C114.405 77.565 114.686 77.23 115.043 76.9885C115.403 76.7447 115.818 76.6228 116.29 76.6228C116.585 76.6228 116.871 76.6772 117.145 76.7861C117.42 76.8927 117.666 77.0572 117.884 77.2797C118.104 77.4999 118.278 77.7781 118.406 78.1143C118.534 78.4481 118.598 78.8434 118.598 79.3003V79.6128H114.336V79.0553H117.951C117.951 78.7049 117.88 78.3901 117.738 78.1107C117.599 77.829 117.403 77.6064 117.152 77.4431C116.904 77.2797 116.616 77.1981 116.29 77.1981C115.944 77.1981 115.64 77.2904 115.377 77.475C115.114 77.6597 114.908 77.9036 114.759 78.2066C114.612 78.5096 114.538 78.8411 114.535 79.2009V79.5347C114.535 79.9679 114.61 80.3467 114.759 80.6711C114.911 80.993 115.125 81.2428 115.402 81.4204C115.679 81.5979 116.007 81.6867 116.385 81.6867C116.643 81.6867 116.87 81.6464 117.064 81.566C117.26 81.4855 117.425 81.3777 117.557 81.2428C117.692 81.1055 117.794 80.9552 117.863 80.7918L118.463 80.9871C118.38 81.2168 118.244 81.4286 118.054 81.6228C117.867 81.8169 117.633 81.9732 117.351 82.0915C117.072 82.2075 116.75 82.2655 116.385 82.2655ZM124.952 76.6973V77.2478H122.349V76.6973H124.952ZM123.162 75.3905H123.798V80.7279C123.798 80.9552 123.837 81.1339 123.915 81.2641C123.993 81.392 124.095 81.4831 124.22 81.5375C124.346 81.5896 124.479 81.6157 124.621 81.6157C124.704 81.6157 124.775 81.6109 124.834 81.6015C124.894 81.5896 124.946 81.5778 124.991 81.566L125.126 82.1377C125.064 82.1614 124.988 82.1827 124.898 82.2016C124.808 82.2229 124.697 82.2336 124.565 82.2336C124.333 82.2336 124.109 82.1827 123.893 82.0809C123.68 81.9791 123.505 81.8276 123.368 81.6263C123.231 81.4251 123.162 81.1753 123.162 80.877V75.3905ZM128.449 82.2655C127.978 82.2655 127.561 82.146 127.199 81.9069C126.839 81.6678 126.557 81.3375 126.353 80.9161C126.15 80.4923 126.048 80.0035 126.048 79.4495C126.048 78.8908 126.15 78.3995 126.353 77.9758C126.557 77.5496 126.839 77.2182 127.199 76.9814C127.561 76.7423 127.978 76.6228 128.449 76.6228C128.92 76.6228 129.335 76.7423 129.695 76.9814C130.055 77.2205 130.337 77.552 130.54 77.9758C130.746 78.3995 130.849 78.8908 130.849 79.4495C130.849 80.0035 130.747 80.4923 130.544 80.9161C130.34 81.3375 130.057 81.6678 129.695 81.9069C129.335 82.146 128.92 82.2655 128.449 82.2655ZM128.449 81.6867C128.827 81.6867 129.148 81.5849 129.411 81.3813C129.674 81.1777 129.873 80.9066 130.008 80.5681C130.145 80.2295 130.214 79.8567 130.214 79.4495C130.214 79.0423 130.145 78.6682 130.008 78.3273C129.873 77.9864 129.674 77.713 129.411 77.507C129.148 77.301 128.827 77.1981 128.449 77.1981C128.072 77.1981 127.751 77.301 127.486 77.507C127.223 77.713 127.023 77.9864 126.886 78.3273C126.751 78.6682 126.684 79.0423 126.684 79.4495C126.684 79.8567 126.751 80.2295 126.886 80.5681C127.023 80.9066 127.223 81.1777 127.486 81.3813C127.749 81.5849 128.07 81.6867 128.449 81.6867ZM138.714 77.8941L138.135 78.0574C138.078 77.8941 137.998 77.7461 137.894 77.6135C137.79 77.481 137.653 77.3756 137.485 77.2975C137.32 77.2194 137.114 77.1803 136.867 77.1803C136.498 77.1803 136.195 77.2679 135.958 77.4431C135.722 77.6183 135.603 77.8444 135.603 78.1214C135.603 78.3557 135.684 78.5463 135.845 78.6931C136.008 78.8375 136.259 78.9523 136.598 79.0375L137.421 79.24C137.878 79.3512 138.22 79.5276 138.448 79.7691C138.677 80.0106 138.792 80.3136 138.792 80.6782C138.792 80.9859 138.707 81.2594 138.537 81.4985C138.366 81.7376 138.128 81.9258 137.823 82.0631C137.52 82.1981 137.168 82.2655 136.768 82.2655C136.235 82.2655 135.796 82.146 135.451 81.9069C135.105 81.6654 134.884 81.3174 134.787 80.8628L135.394 80.7137C135.472 81.038 135.625 81.283 135.852 81.4488C136.082 81.6145 136.383 81.6973 136.757 81.6973C137.176 81.6973 137.511 81.6038 137.762 81.4168C138.013 81.2274 138.139 80.9907 138.139 80.7066C138.139 80.4864 138.065 80.3018 137.919 80.1526C137.772 80.0011 137.549 79.8898 137.251 79.8188L136.36 79.6057C135.886 79.4921 135.536 79.3122 135.309 79.066C135.081 78.8197 134.968 78.5143 134.968 78.1498C134.968 77.8491 135.049 77.5851 135.213 77.3579C135.376 77.1282 135.601 76.9483 135.887 76.8181C136.174 76.6879 136.501 76.6228 136.867 76.6228C137.367 76.6228 137.766 76.7364 138.064 76.9637C138.365 77.1886 138.582 77.4987 138.714 77.8941ZM140.808 78.7428V82.1519H140.176V74.8792H140.808V77.5532H140.865C140.993 77.2714 141.191 77.0465 141.458 76.8785C141.728 76.7104 142.069 76.6263 142.481 76.6263C142.85 76.6263 143.175 76.7021 143.454 76.8536C143.733 77.0051 143.951 77.2288 144.107 77.5248C144.264 77.8207 144.342 78.1853 144.342 78.6185V82.1519H143.706V78.6576C143.706 78.2078 143.581 77.8538 143.33 77.5958C143.081 77.3354 142.745 77.2052 142.321 77.2052C142.03 77.2052 141.771 77.2667 141.543 77.3898C141.316 77.5129 141.136 77.6905 141.004 77.9225C140.873 78.1521 140.808 78.4256 140.808 78.7428ZM147.53 82.2762C147.201 82.2762 146.9 82.2123 146.628 82.0844C146.356 81.9542 146.139 81.7672 145.978 81.5233C145.817 81.2771 145.736 80.9788 145.736 80.6285C145.736 80.3586 145.787 80.1313 145.889 79.9466C145.991 79.762 146.135 79.6105 146.322 79.4921C146.509 79.3737 146.731 79.2802 146.986 79.2116C147.242 79.1429 147.524 79.0896 147.832 79.0518C148.137 79.0139 148.395 78.9807 148.606 78.9523C148.819 78.9239 148.981 78.8789 149.092 78.8174C149.204 78.7558 149.259 78.6564 149.259 78.5191V78.3912C149.259 78.0196 149.148 77.7272 148.925 77.5141C148.705 77.2987 148.388 77.191 147.974 77.191C147.581 77.191 147.26 77.2774 147.011 77.4502C146.765 77.623 146.592 77.8266 146.493 78.061L145.893 77.8444C146.016 77.5461 146.186 77.3081 146.404 77.1306C146.622 76.9507 146.866 76.8216 147.136 76.7435C147.405 76.663 147.679 76.6228 147.956 76.6228C148.164 76.6228 148.381 76.65 148.606 76.7045C148.833 76.7589 149.044 76.8536 149.238 76.9885C149.432 77.1211 149.589 77.307 149.71 77.5461C149.831 77.7828 149.891 78.0835 149.891 78.4481V82.1519H149.259V81.289H149.22C149.144 81.45 149.032 81.6062 148.883 81.7577C148.734 81.9092 148.547 82.0335 148.322 82.1306C148.097 82.2277 147.833 82.2762 147.53 82.2762ZM147.615 81.6973C147.951 81.6973 148.242 81.6228 148.489 81.4736C148.735 81.3245 148.924 81.1268 149.057 80.8806C149.192 80.632 149.259 80.3586 149.259 80.0603V79.2719C149.212 79.3169 149.133 79.3571 149.021 79.3927C148.912 79.4282 148.786 79.4601 148.641 79.4885C148.499 79.5146 148.357 79.5371 148.215 79.556C148.073 79.575 147.945 79.5915 147.832 79.6057C147.524 79.6436 147.261 79.7028 147.043 79.7833C146.825 79.8638 146.659 79.975 146.543 80.1171C146.427 80.2568 146.369 80.4367 146.369 80.6569C146.369 80.9883 146.487 81.2452 146.724 81.4275C146.96 81.6074 147.258 81.6973 147.615 81.6973ZM151.573 82.1519V76.6973H152.187V77.5354H152.233C152.342 77.2608 152.532 77.0394 152.801 76.8714C153.074 76.7009 153.381 76.6157 153.725 76.6157C153.777 76.6157 153.835 76.6169 153.899 76.6192C153.963 76.6216 154.016 76.624 154.059 76.6263V77.2691C154.03 77.2643 153.98 77.2572 153.909 77.2478C153.838 77.2383 153.761 77.2336 153.679 77.2336C153.394 77.2336 153.141 77.2939 152.919 77.4147C152.698 77.533 152.524 77.6976 152.397 77.9083C152.269 78.119 152.205 78.3593 152.205 78.6292V82.1519H151.573ZM157.176 82.2655C156.667 82.2655 156.227 82.1472 155.855 81.9104C155.484 81.6713 155.196 81.3411 154.992 80.9196C154.791 80.4959 154.691 80.0082 154.691 79.4566C154.691 78.9073 154.791 78.4196 154.992 77.9935C155.196 77.565 155.477 77.23 155.834 76.9885C156.194 76.7447 156.609 76.6228 157.081 76.6228C157.376 76.6228 157.662 76.6772 157.936 76.7861C158.211 76.8927 158.457 77.0572 158.675 77.2797C158.895 77.4999 159.069 77.7781 159.197 78.1143C159.325 78.4481 159.389 78.8434 159.389 79.3003V79.6128H155.127V79.0553H158.742C158.742 78.7049 158.671 78.3901 158.529 78.1107C158.39 77.829 158.194 77.6064 157.943 77.4431C157.695 77.2797 157.407 77.1981 157.081 77.1981C156.735 77.1981 156.431 77.2904 156.168 77.475C155.905 77.6597 155.699 77.9036 155.55 78.2066C155.403 78.5096 155.329 78.8411 155.326 79.2009V79.5347C155.326 79.9679 155.401 80.3467 155.55 80.6711C155.702 80.993 155.916 81.2428 156.193 81.4204C156.47 81.5979 156.798 81.6867 157.176 81.6867C157.434 81.6867 157.661 81.6464 157.855 81.566C158.051 81.4855 158.216 81.3777 158.348 81.2428C158.483 81.1055 158.585 80.9552 158.654 80.7918L159.254 80.9871C159.171 81.2168 159.035 81.4286 158.845 81.6228C158.658 81.8169 158.424 81.9732 158.142 82.0915C157.863 82.2075 157.541 82.2655 157.176 82.2655Z" fill="black" style="fill:black;fill:black;fill-opacity:1;"/>
<g clip-path="url(#clip0_13_206)">
<path d="M119 31.6456V26.1076M119 26.1076C119.551 26.108 120.1 26.041 120.633 25.9082M119 26.1076C118.449 26.108 117.9 26.041 117.366 25.9082M121.45 33.7964C119.831 34.0942 118.169 34.0942 116.55 33.7964M120.633 36.3101C119.547 36.4203 118.452 36.4203 117.366 36.3101M121.45 31.6456V31.443C121.45 30.4061 122.167 29.52 123.092 29C124.648 28.1277 125.862 26.7829 126.548 25.1741C127.234 23.5653 127.354 21.7822 126.887 20.1011C126.421 18.42 125.395 16.9348 123.969 15.8756C122.543 14.8164 120.796 14.2423 118.999 14.2423C117.202 14.2423 115.455 14.8164 114.029 15.8756C112.603 16.9348 111.578 18.42 111.111 20.1011C110.645 21.7822 110.764 23.5653 111.45 25.1741C112.137 26.7829 113.351 28.1277 114.906 29C115.832 29.52 116.55 30.4061 116.55 31.443V31.6456" stroke="black" style="stroke:black;stroke:black;stroke-opacity:1;" stroke-width="1.5" stroke-linecap="round" stroke-linejoin="round"/>
</g>
</g>
<defs>
<filter id="filter0_d_13_206" x="0" y="0" width="238" height="108" filterUnits="userSpaceOnUse" color-interpolation-filters="sRGB">
<feFlood flood-opacity="0" result="BackgroundImageFix"/>
<feColorMatrix in="SourceAlpha" type="matrix" values="0 0 0 0 0 0 0 0 0 0 0 0 0 0 0 0 0 0 127 0" result="hardAlpha"/>
<feOffset dy="4"/>
<feGaussianBlur stdDeviation="2"/>
<feComposite in2="hardAlpha" operator="out"/>
<feColorMatrix type="matrix" values="0 0 0 0 0 0 0 0 0 0 0 0 0 0 0 0 0 0 0.25 0"/>
<feBlend mode="normal" in2="BackgroundImageFix" result="effect1_dropShadow_13_206"/>
<feBlend mode="normal" in="SourceGraphic" in2="effect1_dropShadow_13_206" result="shape"/>
</filter>
<filter id="filter1_d_13_206" x="0" y="0" width="238" height="108" filterUnits="userSpaceOnUse" color-interpolation-filters="sRGB">
<feFlood flood-opacity="0" result="BackgroundImageFix"/>
<feColorMatrix in="SourceAlpha" type="matrix" values="0 0 0 0 0 0 0 0 0 0 0 0 0 0 0 0 0 0 127 0" result="hardAlpha"/>
<feOffset dy="4"/>
<feGaussianBlur stdDeviation="2"/>
<feComposite in2="hardAlpha" operator="out"/>
<feColorMatrix type="matrix" values="0 0 0 0 0 0 0 0 0 0 0 0 0 0 0 0 0 0 0.25 0"/>
<feBlend mode="normal" in2="BackgroundImageFix" result="effect1_dropShadow_13_206"/>
<feBlend mode="normal" in="SourceGraphic" in2="effect1_dropShadow_13_206" result="shape"/>
</filter>
<clipPath id="clip0_13_206">
<rect width="26.1364" height="25.3165" fill="white" style="fill:white;fill:white;fill-opacity:1;" transform="translate(105.932 12.6582)"/>
</clipPath>
</defs>
</svg>
