<svg width="70" height="29" viewBox="0 0 70 29" fill="none" xmlns="http://www.w3.org/2000/svg">
<g filter="url(#filter0_dd_13_204)">
<rect x="4" width="62" height="21" rx="10.5" fill="#FDD97D" fill-opacity="0.85" style="fill:#FDD97D;fill:color(display-p3 0.9920 0.8511 0.4889);fill-opacity:0.85;" shape-rendering="crispEdges"/>
</g>
<path d="M24.6468 5.48325H26.215V11.6196C26.2122 12.1821 26.0929 12.6665 25.8571 13.0727C25.6213 13.4762 25.2917 13.7872 24.8684 14.006C24.448 14.2219 23.9579 14.3298 23.3983 14.3298C22.8869 14.3298 22.4267 14.2389 22.0176 14.0571C21.6113 13.8725 21.2889 13.5997 21.0502 13.2389C20.8116 12.8781 20.6923 12.4293 20.6923 11.8923H22.2647C22.2676 12.1281 22.3187 12.3313 22.4181 12.5017C22.5204 12.6722 22.661 12.8029 22.84 12.8938C23.019 12.9847 23.225 13.0301 23.4579 13.0301C23.7108 13.0301 23.9252 12.9776 24.1014 12.8725C24.2775 12.7645 24.411 12.6054 24.502 12.3952C24.5957 12.185 24.644 11.9264 24.6468 11.6196V5.48325ZM35.7285 9.84689C35.7285 10.7872 35.5524 11.5926 35.2001 12.2631C34.8507 12.9307 34.3734 13.4421 33.7683 13.7972C33.166 14.1523 32.4828 14.3298 31.7186 14.3298C30.9544 14.3298 30.2697 14.1523 29.6646 13.7972C29.0623 13.4392 28.585 12.9264 28.2328 12.2588C27.8833 11.5884 27.7086 10.7844 27.7086 9.84689C27.7086 8.90655 27.8833 8.10257 28.2328 7.43496C28.585 6.7645 29.0623 6.25172 29.6646 5.8966C30.2697 5.54149 30.9544 5.36393 31.7186 5.36393C32.4828 5.36393 33.166 5.54149 33.7683 5.8966C34.3734 6.25172 34.8507 6.7645 35.2001 7.43496C35.5524 8.10257 35.7285 8.90655 35.7285 9.84689ZM34.139 9.84689C34.139 9.18496 34.0353 8.62672 33.8279 8.17217C33.6234 7.71479 33.3393 7.36962 32.9757 7.13666C32.612 6.90087 32.193 6.78297 31.7186 6.78297C31.2441 6.78297 30.8251 6.90087 30.4615 7.13666C30.0978 7.36962 29.8123 7.71479 29.6049 8.17217C29.4004 8.62672 29.2981 9.18496 29.2981 9.84689C29.2981 10.5088 29.4004 11.0685 29.6049 11.5259C29.8123 11.9804 30.0978 12.3256 30.4615 12.5614C30.8251 12.7943 31.2441 12.9108 31.7186 12.9108C32.193 12.9108 32.612 12.7943 32.9757 12.5614C33.3393 12.3256 33.6234 11.9804 33.8279 11.5259C34.0353 11.0685 34.139 10.5088 34.139 9.84689ZM38.8042 5.48325V14.2105H37.2232V5.48325H38.8042ZM47.688 5.48325V14.2105H46.2818L42.1696 8.26592H42.0971V14.2105H40.5162V5.48325H41.9309L46.0389 11.4321H46.1156V5.48325H47.688Z" fill="black" style="fill:black;fill:black;fill-opacity:1;"/>
<defs>
<filter id="filter0_dd_13_204" x="0" y="0" width="70" height="29" filterUnits="userSpaceOnUse" color-interpolation-filters="sRGB">
<feFlood flood-opacity="0" result="BackgroundImageFix"/>
<feColorMatrix in="SourceAlpha" type="matrix" values="0 0 0 0 0 0 0 0 0 0 0 0 0 0 0 0 0 0 127 0" result="hardAlpha"/>
<feOffset dy="4"/>
<feGaussianBlur stdDeviation="2"/>
<feComposite in2="hardAlpha" operator="out"/>
<feColorMatrix type="matrix" values="0 0 0 0 0 0 0 0 0 0 0 0 0 0 0 0 0 0 0.25 0"/>
<feBlend mode="normal" in2="BackgroundImageFix" result="effect1_dropShadow_13_204"/>
<feColorMatrix in="SourceAlpha" type="matrix" values="0 0 0 0 0 0 0 0 0 0 0 0 0 0 0 0 0 0 127 0" result="hardAlpha"/>
<feOffset dy="4"/>
<feGaussianBlur stdDeviation="2"/>
<feComposite in2="hardAlpha" operator="out"/>
<feColorMatrix type="matrix" values="0 0 0 0 0 0 0 0 0 0 0 0 0 0 0 0 0 0 0.25 0"/>
<feBlend mode="normal" in2="effect1_dropShadow_13_204" result="effect2_dropShadow_13_204"/>
<feBlend mode="normal" in="SourceGraphic" in2="effect2_dropShadow_13_204" result="shape"/>
</filter>
</defs>
</svg>
