<svg width="62" height="21" viewBox="0 0 62 21" fill="none" xmlns="http://www.w3.org/2000/svg">
<g filter="url(#filter0_i_13_205)">
<rect width="62" height="21" rx="10.5" fill="#FDD97D" fill-opacity="0.85" style="fill:#FDD97D;fill:color(display-p3 0.9920 0.8511 0.4889);fill-opacity:0.85;"/>
</g>
<path d="M20.6468 5.48325H22.215V11.6196C22.2122 12.1821 22.0929 12.6665 21.8571 13.0727C21.6213 13.4762 21.2917 13.7872 20.8684 14.006C20.448 14.2219 19.9579 14.3298 19.3983 14.3298C18.8869 14.3298 18.4267 14.2389 18.0176 14.0571C17.6113 13.8725 17.2889 13.5997 17.0502 13.2389C16.8116 12.8781 16.6923 12.4293 16.6923 11.8923H18.2647C18.2676 12.1281 18.3187 12.3313 18.4181 12.5017C18.5204 12.6722 18.661 12.8029 18.84 12.8938C19.019 12.9847 19.225 13.0301 19.4579 13.0301C19.7108 13.0301 19.9252 12.9776 20.1014 12.8725C20.2775 12.7645 20.411 12.6054 20.502 12.3952C20.5957 12.185 20.644 11.9264 20.6468 11.6196V5.48325ZM31.7285 9.84689C31.7285 10.7872 31.5524 11.5926 31.2001 12.2631C30.8507 12.9307 30.3734 13.4421 29.7683 13.7972C29.166 14.1523 28.4828 14.3298 27.7186 14.3298C26.9544 14.3298 26.2697 14.1523 25.6646 13.7972C25.0623 13.4392 24.585 12.9264 24.2328 12.2588C23.8833 11.5884 23.7086 10.7844 23.7086 9.84689C23.7086 8.90655 23.8833 8.10257 24.2328 7.43496C24.585 6.7645 25.0623 6.25172 25.6646 5.8966C26.2697 5.54149 26.9544 5.36393 27.7186 5.36393C28.4828 5.36393 29.166 5.54149 29.7683 5.8966C30.3734 6.25172 30.8507 6.7645 31.2001 7.43496C31.5524 8.10257 31.7285 8.90655 31.7285 9.84689ZM30.139 9.84689C30.139 9.18496 30.0353 8.62672 29.8279 8.17217C29.6234 7.71479 29.3393 7.36962 28.9757 7.13666C28.612 6.90087 28.193 6.78297 27.7186 6.78297C27.2441 6.78297 26.8251 6.90087 26.4615 7.13666C26.0978 7.36962 25.8123 7.71479 25.6049 8.17217C25.4004 8.62672 25.2981 9.18496 25.2981 9.84689C25.2981 10.5088 25.4004 11.0685 25.6049 11.5259C25.8123 11.9804 26.0978 12.3256 26.4615 12.5614C26.8251 12.7943 27.2441 12.9108 27.7186 12.9108C28.193 12.9108 28.612 12.7943 28.9757 12.5614C29.3393 12.3256 29.6234 11.9804 29.8279 11.5259C30.0353 11.0685 30.139 10.5088 30.139 9.84689ZM34.8042 5.48325V14.2105H33.2232V5.48325H34.8042ZM43.688 5.48325V14.2105H42.2818L38.1696 8.26592H38.0971V14.2105H36.5162V5.48325H37.9309L42.0389 11.4321H42.1156V5.48325H43.688Z" fill="black" style="fill:black;fill:black;fill-opacity:1;"/>
<defs>
<filter id="filter0_i_13_205" x="0" y="0" width="62" height="25" filterUnits="userSpaceOnUse" color-interpolation-filters="sRGB">
<feFlood flood-opacity="0" result="BackgroundImageFix"/>
<feBlend mode="normal" in="SourceGraphic" in2="BackgroundImageFix" result="shape"/>
<feColorMatrix in="SourceAlpha" type="matrix" values="0 0 0 0 0 0 0 0 0 0 0 0 0 0 0 0 0 0 127 0" result="hardAlpha"/>
<feOffset dy="4"/>
<feGaussianBlur stdDeviation="2"/>
<feComposite in2="hardAlpha" operator="arithmetic" k2="-1" k3="1"/>
<feColorMatrix type="matrix" values="0 0 0 0 0 0 0 0 0 0 0 0 0 0 0 0 0 0 0.25 0"/>
<feBlend mode="normal" in2="shape" result="effect1_innerShadow_13_205"/>
</filter>
</defs>
</svg>
