<svg width="195" height="40" viewBox="0 0 195 40" fill="none" xmlns="http://www.w3.org/2000/svg">
<g filter="url(#filter0_ii_7_146)">
<rect width="195" height="40" rx="20" fill="#D5E7C3" style="fill:#D5E7C3;fill:color(display-p3 0.8353 0.9059 0.7647);fill-opacity:1;"/>
</g>
<path d="M58.8952 28V10.5455H63.114V24.5739H70.3754V28H58.8952ZM88.354 19.2727C88.354 21.1932 87.9847 22.821 87.2461 24.1562C86.5075 25.4915 85.5075 26.5057 84.2461 27.1989C82.9904 27.892 81.5813 28.2386 80.0188 28.2386C78.4506 28.2386 77.0387 27.8892 75.783 27.1903C74.5273 26.4915 73.5302 25.4773 72.7915 24.1477C72.0586 22.8125 71.6921 21.1875 71.6921 19.2727C71.6921 17.3523 72.0586 15.7244 72.7915 14.3892C73.5302 13.054 74.5273 12.0398 75.783 11.3466C77.0387 10.6534 78.4506 10.3068 80.0188 10.3068C81.5813 10.3068 82.9904 10.6534 84.2461 11.3466C85.5075 12.0398 86.5075 13.054 87.2461 14.3892C87.9847 15.7244 88.354 17.3523 88.354 19.2727ZM84.0415 19.2727C84.0415 18.1364 83.8796 17.1761 83.5558 16.392C83.2376 15.608 82.7773 15.0142 82.1751 14.6108C81.5785 14.2074 80.8597 14.0057 80.0188 14.0057C79.1836 14.0057 78.4648 14.2074 77.8626 14.6108C77.2603 15.0142 76.7972 15.608 76.4734 16.392C76.1552 17.1761 75.9961 18.1364 75.9961 19.2727C75.9961 20.4091 76.1552 21.3693 76.4734 22.1534C76.7972 22.9375 77.2603 23.5312 77.8626 23.9347C78.4648 24.3381 79.1836 24.5398 80.0188 24.5398C80.8597 24.5398 81.5785 24.3381 82.1751 23.9347C82.7773 23.5312 83.2376 22.9375 83.5558 22.1534C83.8796 21.3693 84.0415 20.4091 84.0415 19.2727ZM102.272 16.2472C102.175 15.8892 102.033 15.5739 101.846 15.3011C101.658 15.0227 101.428 14.7869 101.155 14.5938C100.882 14.4006 100.57 14.2557 100.218 14.1591C99.8654 14.0568 99.479 14.0057 99.0586 14.0057C98.212 14.0057 97.479 14.2102 96.8597 14.6193C96.2461 15.0284 95.7717 15.625 95.4364 16.4091C95.1012 17.1875 94.9336 18.1335 94.9336 19.2472C94.9336 20.3665 95.0955 21.321 95.4194 22.1108C95.7433 22.9006 96.212 23.5028 96.8256 23.9176C97.4393 24.3324 98.1836 24.5398 99.0586 24.5398C99.8313 24.5398 100.485 24.4148 101.019 24.1648C101.559 23.9091 101.968 23.5483 102.246 23.0824C102.525 22.6165 102.664 22.0682 102.664 21.4375L103.448 21.5312H99.2035V18.4545H106.729V20.7642C106.729 22.3267 106.397 23.6648 105.732 24.7784C105.073 25.892 104.164 26.7472 103.005 27.3438C101.851 27.9403 100.525 28.2386 99.0245 28.2386C97.3597 28.2386 95.8967 27.8778 94.6353 27.1562C93.3739 26.4347 92.391 25.4062 91.6864 24.071C90.9819 22.7301 90.6296 21.1392 90.6296 19.2983C90.6296 17.8665 90.8427 16.5966 91.2688 15.4886C91.695 14.375 92.2887 13.4318 93.0501 12.6591C93.8171 11.8864 94.7035 11.3011 95.7092 10.9034C96.7205 10.5057 97.8086 10.3068 98.9734 10.3068C99.9847 10.3068 100.925 10.4517 101.794 10.7415C102.669 11.0312 103.442 11.4403 104.113 11.9688C104.789 12.4972 105.337 13.125 105.757 13.8523C106.178 14.5795 106.439 15.3778 106.542 16.2472H102.272ZM118.591 10.5455V28H114.372V10.5455H118.591ZM136.094 10.5455V28H132.515L125.569 17.9261H125.458V28H121.239V10.5455H124.87L131.739 20.6023H131.884V10.5455H136.094Z" fill="white" style="fill:white;fill:white;fill-opacity:1;"/>
<defs>
<filter id="filter0_ii_7_146" x="0" y="0" width="195" height="44" filterUnits="userSpaceOnUse" color-interpolation-filters="sRGB">
<feFlood flood-opacity="0" result="BackgroundImageFix"/>
<feBlend mode="normal" in="SourceGraphic" in2="BackgroundImageFix" result="shape"/>
<feColorMatrix in="SourceAlpha" type="matrix" values="0 0 0 0 0 0 0 0 0 0 0 0 0 0 0 0 0 0 127 0" result="hardAlpha"/>
<feOffset dy="4"/>
<feGaussianBlur stdDeviation="2"/>
<feComposite in2="hardAlpha" operator="arithmetic" k2="-1" k3="1"/>
<feColorMatrix type="matrix" values="0 0 0 0 0 0 0 0 0 0 0 0 0 0 0 0 0 0 0.25 0"/>
<feBlend mode="normal" in2="shape" result="effect1_innerShadow_7_146"/>
<feColorMatrix in="SourceAlpha" type="matrix" values="0 0 0 0 0 0 0 0 0 0 0 0 0 0 0 0 0 0 127 0" result="hardAlpha"/>
<feOffset dy="4"/>
<feGaussianBlur stdDeviation="2"/>
<feComposite in2="hardAlpha" operator="arithmetic" k2="-1" k3="1"/>
<feColorMatrix type="matrix" values="0 0 0 0 0 0 0 0 0 0 0 0 0 0 0 0 0 0 0.25 0"/>
<feBlend mode="normal" in2="effect1_innerShadow_7_146" result="effect2_innerShadow_7_146"/>
</filter>
</defs>
</svg>
