<svg width="203" height="48" viewBox="0 0 203 48" fill="none" xmlns="http://www.w3.org/2000/svg">
<g filter="url(#filter0_d_7_145)">
<rect x="4" width="195" height="40" rx="20" fill="#D5E7C3" style="fill:#D5E7C3;fill:color(display-p3 0.8353 0.9059 0.7647);fill-opacity:1;"/>
</g>
<path d="M62.8952 28V10.5455H67.114V24.5739H74.3754V28H62.8952ZM92.354 19.2727C92.354 21.1932 91.9847 22.821 91.2461 24.1562C90.5075 25.4915 89.5075 26.5057 88.2461 27.1989C86.9904 27.892 85.5813 28.2386 84.0188 28.2386C82.4506 28.2386 81.0387 27.8892 79.783 27.1903C78.5273 26.4915 77.5302 25.4773 76.7915 24.1477C76.0586 22.8125 75.6921 21.1875 75.6921 19.2727C75.6921 17.3523 76.0586 15.7244 76.7915 14.3892C77.5302 13.054 78.5273 12.0398 79.783 11.3466C81.0387 10.6534 82.4506 10.3068 84.0188 10.3068C85.5813 10.3068 86.9904 10.6534 88.2461 11.3466C89.5075 12.0398 90.5075 13.054 91.2461 14.3892C91.9847 15.7244 92.354 17.3523 92.354 19.2727ZM88.0415 19.2727C88.0415 18.1364 87.8796 17.1761 87.5558 16.392C87.2376 15.608 86.7773 15.0142 86.1751 14.6108C85.5785 14.2074 84.8597 14.0057 84.0188 14.0057C83.1836 14.0057 82.4648 14.2074 81.8626 14.6108C81.2603 15.0142 80.7972 15.608 80.4734 16.392C80.1552 17.1761 79.9961 18.1364 79.9961 19.2727C79.9961 20.4091 80.1552 21.3693 80.4734 22.1534C80.7972 22.9375 81.2603 23.5312 81.8626 23.9347C82.4648 24.3381 83.1836 24.5398 84.0188 24.5398C84.8597 24.5398 85.5785 24.3381 86.1751 23.9347C86.7773 23.5312 87.2376 22.9375 87.5558 22.1534C87.8796 21.3693 88.0415 20.4091 88.0415 19.2727ZM106.272 16.2472C106.175 15.8892 106.033 15.5739 105.846 15.3011C105.658 15.0227 105.428 14.7869 105.155 14.5938C104.882 14.4006 104.57 14.2557 104.218 14.1591C103.865 14.0568 103.479 14.0057 103.059 14.0057C102.212 14.0057 101.479 14.2102 100.86 14.6193C100.246 15.0284 99.7717 15.625 99.4364 16.4091C99.1012 17.1875 98.9336 18.1335 98.9336 19.2472C98.9336 20.3665 99.0955 21.321 99.4194 22.1108C99.7433 22.9006 100.212 23.5028 100.826 23.9176C101.439 24.3324 102.184 24.5398 103.059 24.5398C103.831 24.5398 104.485 24.4148 105.019 24.1648C105.559 23.9091 105.968 23.5483 106.246 23.0824C106.525 22.6165 106.664 22.0682 106.664 21.4375L107.448 21.5312H103.203V18.4545H110.729V20.7642C110.729 22.3267 110.397 23.6648 109.732 24.7784C109.073 25.892 108.164 26.7472 107.005 27.3438C105.851 27.9403 104.525 28.2386 103.025 28.2386C101.36 28.2386 99.8967 27.8778 98.6353 27.1562C97.3739 26.4347 96.391 25.4062 95.6864 24.071C94.9819 22.7301 94.6296 21.1392 94.6296 19.2983C94.6296 17.8665 94.8427 16.5966 95.2688 15.4886C95.695 14.375 96.2887 13.4318 97.0501 12.6591C97.8171 11.8864 98.7035 11.3011 99.7092 10.9034C100.721 10.5057 101.809 10.3068 102.973 10.3068C103.985 10.3068 104.925 10.4517 105.794 10.7415C106.669 11.0312 107.442 11.4403 108.113 11.9688C108.789 12.4972 109.337 13.125 109.757 13.8523C110.178 14.5795 110.439 15.3778 110.542 16.2472H106.272ZM122.591 10.5455V28H118.372V10.5455H122.591ZM140.094 10.5455V28H136.515L129.569 17.9261H129.458V28H125.239V10.5455H128.87L135.739 20.6023H135.884V10.5455H140.094Z" fill="white" style="fill:white;fill:white;fill-opacity:1;"/>
<defs>
<filter id="filter0_d_7_145" x="0" y="0" width="203" height="48" filterUnits="userSpaceOnUse" color-interpolation-filters="sRGB">
<feFlood flood-opacity="0" result="BackgroundImageFix"/>
<feColorMatrix in="SourceAlpha" type="matrix" values="0 0 0 0 0 0 0 0 0 0 0 0 0 0 0 0 0 0 127 0" result="hardAlpha"/>
<feOffset dy="4"/>
<feGaussianBlur stdDeviation="2"/>
<feComposite in2="hardAlpha" operator="out"/>
<feColorMatrix type="matrix" values="0 0 0 0 0 0 0 0 0 0 0 0 0 0 0 0 0 0 0.25 0"/>
<feBlend mode="normal" in2="BackgroundImageFix" result="effect1_dropShadow_7_145"/>
<feBlend mode="normal" in="SourceGraphic" in2="effect1_dropShadow_7_145" result="shape"/>
</filter>
</defs>
</svg>
