<svg width="238" height="108" viewBox="0 0 238 108" fill="none" xmlns="http://www.w3.org/2000/svg">
<g filter="url(#filter0_d_13_207)">
<path d="M83.6623 54.6456V37.191H87.881V51.2194H95.1424V54.6456H83.6623ZM113.121 45.9183C113.121 47.8388 112.752 49.4666 112.013 50.8018C111.275 52.137 110.275 53.1513 109.013 53.8444C107.757 54.5376 106.348 54.8842 104.786 54.8842C103.218 54.8842 101.806 54.5348 100.55 53.8359C99.2944 53.137 98.2972 52.1228 97.5586 50.7933C96.8256 49.4581 96.4592 47.8331 96.4592 45.9183C96.4592 43.9978 96.8256 42.37 97.5586 41.0348C98.2972 39.6995 99.2944 38.6853 100.55 37.9922C101.806 37.299 103.218 36.9524 104.786 36.9524C106.348 36.9524 107.757 37.299 109.013 37.9922C110.275 38.6853 111.275 39.6995 112.013 41.0348C112.752 42.37 113.121 43.9978 113.121 45.9183ZM108.809 45.9183C108.809 44.7819 108.647 43.8217 108.323 43.0376C108.005 42.2535 107.544 41.6598 106.942 41.2564C106.346 40.853 105.627 40.6512 104.786 40.6512C103.951 40.6512 103.232 40.853 102.63 41.2564C102.027 41.6598 101.564 42.2535 101.24 43.0376C100.922 43.8217 100.763 44.7819 100.763 45.9183C100.763 47.0547 100.922 48.0149 101.24 48.799C101.564 49.5831 102.027 50.1768 102.63 50.5802C103.232 50.9836 103.951 51.1853 104.786 51.1853C105.627 51.1853 106.346 50.9836 106.942 50.5802C107.544 50.1768 108.005 49.5831 108.323 48.799C108.647 48.0149 108.809 47.0547 108.809 45.9183ZM127.039 42.8927C126.942 42.5348 126.8 42.2194 126.613 41.9467C126.425 41.6683 126.195 41.4325 125.922 41.2393C125.65 41.0461 125.337 40.9013 124.985 40.8047C124.632 40.7024 124.246 40.6512 123.826 40.6512C122.979 40.6512 122.246 40.8558 121.627 41.2649C121.013 41.674 120.539 42.2706 120.203 43.0547C119.868 43.8331 119.701 44.7791 119.701 45.8927C119.701 47.012 119.863 47.9666 120.186 48.7564C120.51 49.5461 120.979 50.1484 121.593 50.5632C122.206 50.978 122.951 51.1853 123.826 51.1853C124.598 51.1853 125.252 51.0603 125.786 50.8103C126.326 50.5547 126.735 50.1939 127.013 49.728C127.292 49.262 127.431 48.7138 127.431 48.0831L128.215 48.1768H123.971V45.1001H131.496V47.4098C131.496 48.9723 131.164 50.3103 130.499 51.424C129.84 52.5376 128.931 53.3927 127.772 53.9893C126.618 54.5859 125.292 54.8842 123.792 54.8842C122.127 54.8842 120.664 54.5234 119.402 53.8018C118.141 53.0802 117.158 52.0518 116.453 50.7166C115.749 49.3757 115.397 47.7848 115.397 45.9439C115.397 44.512 115.61 43.2422 116.036 42.1342C116.462 41.0206 117.056 40.0774 117.817 39.3047C118.584 38.5319 119.471 37.9467 120.476 37.549C121.488 37.1512 122.576 36.9524 123.74 36.9524C124.752 36.9524 125.692 37.0973 126.561 37.387C127.436 37.6768 128.209 38.0859 128.88 38.6143C129.556 39.1427 130.104 39.7706 130.525 40.4978C130.945 41.2251 131.206 42.0234 131.309 42.8927H127.039ZM143.358 37.191V54.6456H139.139V37.191H143.358ZM160.861 37.191V54.6456H157.282L150.336 44.5717H150.225V54.6456H146.006V37.191H149.637L156.506 47.2478H156.651V37.191H160.861Z" fill="white" style="fill:white;fill:white;fill-opacity:1;"/>
<g filter="url(#filter1_d_13_207)">
<rect x="4" width="230" height="100" rx="25" fill="#E3F3D2" style="fill:#E3F3D2;fill:color(display-p3 0.8886 0.9524 0.8248);fill-opacity:1;"/>
</g>
<path d="M74.0777 49.4114C74.0303 48.8195 73.8084 48.3579 73.4118 48.0264C73.0212 47.695 72.4264 47.5293 71.6274 47.5293C71.1184 47.5293 70.7011 47.5914 70.3756 47.7157C70.056 47.8341 69.8193 47.9969 69.6654 48.204C69.5115 48.4112 69.4316 48.6479 69.4257 48.9142C69.4138 49.1332 69.4523 49.3315 69.5411 49.509C69.6358 49.6807 69.7838 49.8375 69.985 49.9796C70.1862 50.1157 70.4437 50.24 70.7574 50.3524C71.071 50.4649 71.4439 50.5655 71.876 50.6543L73.3674 50.9739C74.3736 51.187 75.2348 51.4681 75.9509 51.8173C76.667 52.1665 77.253 52.5778 77.7087 53.0513C78.1644 53.5189 78.4988 54.0456 78.7119 54.6316C78.9309 55.2175 79.0433 55.8567 79.0493 56.5492C79.0433 57.7447 78.7445 58.7568 78.1526 59.5854C77.5607 60.414 76.7144 61.0443 75.6135 61.4764C74.5186 61.9084 73.2017 62.1245 71.6629 62.1245C70.0826 62.1245 68.7036 61.8907 67.5258 61.4231C66.3539 60.9555 65.4425 60.2364 64.7914 59.2658C64.1463 58.2892 63.8208 57.0404 63.8149 55.5193H68.5024C68.532 56.0757 68.6711 56.5433 68.9196 56.922C69.1682 57.3008 69.5174 57.5879 69.9672 57.7832C70.423 57.9785 70.9645 58.0762 71.5919 58.0762C72.1186 58.0762 72.5596 58.0111 72.9147 57.8809C73.2698 57.7506 73.5391 57.5701 73.7226 57.3393C73.906 57.1085 74.0007 56.8451 74.0066 56.5492C74.0007 56.271 73.909 56.0283 73.7314 55.8212C73.5598 55.6081 73.2757 55.4187 72.8792 55.253C72.4826 55.0814 71.947 54.9216 71.2723 54.7736L69.4612 54.383C67.8513 54.0338 66.5818 53.4508 65.6526 52.634C64.7293 51.8114 64.2706 50.6898 64.2765 49.2693C64.2706 48.1152 64.5784 47.1061 65.1998 46.242C65.8272 45.372 66.6943 44.6943 67.801 44.209C68.9137 43.7237 70.1892 43.481 71.6274 43.481C73.0952 43.481 74.3647 43.7266 75.436 44.2179C76.5072 44.7091 77.3329 45.4016 77.9129 46.2953C78.4988 47.1831 78.7948 48.2218 78.8007 49.4114H74.0777ZM84.9419 61.9114H79.6152L85.6166 43.7296H92.3638L98.3652 61.9114H93.0385L89.0612 48.7367H88.9192L84.9419 61.9114ZM83.9476 54.7381H93.9618V58.4313H83.9476V54.7381ZM102.451 43.7296L106.18 56.5492H106.322L110.051 43.7296H115.626L109.625 61.9114H102.877L96.876 43.7296H102.451ZM122.313 43.7296V61.9114H117.377V43.7296H122.313ZM140.384 43.7296V61.9114H136.265L129.695 52.3588H129.589V61.9114H124.653V43.7296H128.843L135.306 53.2466H135.448V43.7296H140.384ZM154.526 49.731C154.45 49.4173 154.328 49.1421 154.162 48.9054C153.997 48.6627 153.79 48.4585 153.541 48.2928C153.298 48.1211 153.014 47.9939 152.689 47.911C152.369 47.8223 152.017 47.7779 151.632 47.7779C150.804 47.7779 150.096 47.9761 149.51 48.3727C148.93 48.7692 148.487 49.3404 148.179 50.0861C147.877 50.8318 147.726 51.7315 147.726 52.785C147.726 53.8503 147.871 54.7618 148.161 55.5193C148.451 56.2769 148.883 56.8569 149.457 57.2594C150.031 57.6619 150.744 57.8631 151.597 57.8631C152.348 57.8631 152.973 57.7536 153.47 57.5346C153.973 57.3156 154.349 57.0049 154.597 56.6024C154.846 56.2 154.97 55.7265 154.97 55.182L155.823 55.2708H151.668V51.7551H159.729V54.2764C159.729 55.9336 159.377 57.3511 158.672 58.5289C157.974 59.7008 157.009 60.6004 155.778 61.2278C154.553 61.8492 153.147 62.16 151.561 62.16C149.792 62.16 148.238 61.7841 146.9 61.0325C145.563 60.2808 144.518 59.2096 143.767 57.8187C143.021 56.4278 142.648 54.7736 142.648 52.856C142.648 51.3527 142.876 50.021 143.331 48.861C143.793 47.7009 144.432 46.7214 145.249 45.9224C146.066 45.1175 147.01 44.5108 148.081 44.1024C149.152 43.6881 150.301 43.481 151.526 43.481C152.603 43.481 153.603 43.6349 154.526 43.9426C155.456 44.2445 156.275 44.6765 156.986 45.2388C157.702 45.7952 158.279 46.4551 158.717 47.2186C159.155 47.9821 159.421 48.8195 159.516 49.731H154.526ZM171.832 49.4114C171.784 48.8195 171.562 48.3579 171.166 48.0264C170.775 47.695 170.18 47.5293 169.381 47.5293C168.872 47.5293 168.455 47.5914 168.13 47.7157C167.81 47.8341 167.573 47.9969 167.419 48.204C167.265 48.4112 167.186 48.6479 167.18 48.9142C167.168 49.1332 167.206 49.3315 167.295 49.509C167.39 49.6807 167.538 49.8375 167.739 49.9796C167.94 50.1157 168.198 50.24 168.511 50.3524C168.825 50.4649 169.198 50.5655 169.63 50.6543L171.121 50.9739C172.128 51.187 172.989 51.4681 173.705 51.8173C174.421 52.1665 175.007 52.5778 175.463 53.0513C175.918 53.5189 176.253 54.0456 176.466 54.6316C176.685 55.2175 176.797 55.8567 176.803 56.5492C176.797 57.7447 176.498 58.7568 175.907 59.5854C175.315 60.414 174.468 61.0443 173.367 61.4764C172.273 61.9084 170.956 62.1245 169.417 62.1245C167.837 62.1245 166.458 61.8907 165.28 61.4231C164.108 60.9555 163.196 60.2364 162.545 59.2658C161.9 58.2892 161.575 57.0404 161.569 55.5193H166.256C166.286 56.0757 166.425 56.5433 166.674 56.922C166.922 57.3008 167.271 57.5879 167.721 57.7832C168.177 57.9785 168.718 58.0762 169.346 58.0762C169.873 58.0762 170.313 58.0111 170.669 57.8809C171.024 57.7506 171.293 57.5701 171.476 57.3393C171.66 57.1085 171.755 56.8451 171.761 56.5492C171.755 56.271 171.663 56.0283 171.485 55.8212C171.314 55.6081 171.03 55.4187 170.633 55.253C170.237 55.0814 169.701 54.9216 169.026 54.7736L167.215 54.383C165.605 54.0338 164.336 53.4508 163.407 52.634C162.483 51.8114 162.025 50.6898 162.03 49.2693C162.025 48.1152 162.332 47.1061 162.954 46.242C163.581 45.372 164.448 44.6943 165.555 44.209C166.668 43.7237 167.943 43.481 169.381 43.481C170.849 43.481 172.119 43.7266 173.19 44.2179C174.261 44.7091 175.087 45.4016 175.667 46.2953C176.253 47.1831 176.549 48.2218 176.555 49.4114H171.832Z" fill="black" style="fill:black;fill:black;fill-opacity:1;"/>
<path d="M69.6952 74.6203H69.0276C68.9779 74.3717 68.8879 74.142 68.7577 73.9313C68.6298 73.7183 68.4689 73.5324 68.2747 73.3738C68.0806 73.2152 67.8604 73.0921 67.6142 73.0045C67.368 72.9169 67.1017 72.8731 66.8152 72.8731C66.3559 72.8731 65.9369 72.9927 65.5581 73.2318C65.1817 73.4709 64.8798 73.8224 64.6526 74.2864C64.4277 74.7481 64.3152 75.3139 64.3152 75.9839C64.3152 76.6586 64.4277 77.2268 64.6526 77.6884C64.8798 78.1501 65.1817 78.5005 65.5581 78.7396C65.9369 78.9763 66.3559 79.0947 66.8152 79.0947C67.1017 79.0947 67.368 79.0509 67.6142 78.9633C67.8604 78.8757 68.0806 78.7538 68.2747 78.5975C68.4689 78.4389 68.6298 78.2531 68.7577 78.04C68.8879 77.8269 68.9779 77.5961 69.0276 77.3475H69.6952C69.636 77.6813 69.5247 77.9927 69.3614 78.2815C69.2004 78.5679 68.9944 78.8189 68.7435 79.0343C68.4949 79.2498 68.2084 79.4178 67.8841 79.5386C67.5598 79.6593 67.2035 79.7197 66.8152 79.7197C66.2044 79.7197 65.6623 79.567 65.1888 79.2616C64.7153 78.9538 64.3436 78.5206 64.0737 77.9619C63.8062 77.4032 63.6725 76.7438 63.6725 75.9839C63.6725 75.2239 63.8062 74.5646 64.0737 74.0059C64.3436 73.4472 64.7153 73.0151 65.1888 72.7097C65.6623 72.402 66.2044 72.2481 66.8152 72.2481C67.2035 72.2481 67.5598 72.3085 67.8841 72.4292C68.2084 72.5476 68.4949 72.7157 68.7435 72.9335C68.9944 73.1489 69.2004 73.3998 69.3614 73.6863C69.5247 73.9728 69.636 74.2841 69.6952 74.6203ZM71.7557 72.3475V79.6203H71.1236V72.3475H71.7557ZM73.4354 79.6203V74.1657H74.0711V79.6203H73.4354ZM73.7586 73.2282C73.6284 73.2282 73.5171 73.1844 73.4248 73.0968C73.3324 73.0069 73.2863 72.8991 73.2863 72.7737C73.2863 72.6482 73.3324 72.5417 73.4248 72.4541C73.5171 72.3641 73.6284 72.3191 73.7586 72.3191C73.8888 72.3191 74.0001 72.3641 74.0924 72.4541C74.1847 72.5417 74.2309 72.6482 74.2309 72.7737C74.2309 72.8991 74.1847 73.0069 74.0924 73.0968C74.0001 73.1844 73.8888 73.2282 73.7586 73.2282ZM77.8735 79.7339C77.3858 79.7339 76.9608 79.612 76.5986 79.3681C76.2387 79.1243 75.9594 78.7905 75.7605 78.3667C75.5617 77.9429 75.4622 77.46 75.4622 76.9178C75.4622 76.371 75.5628 75.8845 75.7641 75.4583C75.9677 75.0322 76.2494 74.6984 76.6093 74.4569C76.9691 74.2131 77.3869 74.0911 77.8628 74.0911C78.2274 74.0911 78.5576 74.1622 78.8536 74.3042C79.1495 74.4439 79.3933 74.6416 79.5851 74.8972C79.7792 75.1506 79.9012 75.4465 79.9509 75.785H79.3117C79.2454 75.4773 79.0856 75.2145 78.8323 74.9967C78.5813 74.7765 78.2617 74.6664 77.8735 74.6664C77.5254 74.6664 77.2177 74.7611 76.9502 74.9505C76.6826 75.1375 76.4731 75.3991 76.3216 75.7353C76.1725 76.0691 76.0979 76.4562 76.0979 76.8965C76.0979 77.3392 76.1713 77.731 76.3181 78.072C76.4648 78.4105 76.6708 78.6757 76.936 78.8674C77.2035 79.0592 77.516 79.1551 77.8735 79.1551C78.1149 79.1551 78.3351 79.1101 78.534 79.0201C78.7352 78.9278 78.9033 78.7976 79.0382 78.6295C79.1755 78.4614 79.2679 78.2614 79.3152 78.0293H79.9544C79.9071 78.3584 79.7899 78.652 79.6029 78.91C79.4182 79.1657 79.1779 79.3669 78.882 79.5137C78.5884 79.6605 78.2522 79.7339 77.8735 79.7339ZM84.7538 76.2112V79.6203H84.1217V72.3475H84.7538V75.0215H84.8106C84.9384 74.7398 85.1361 74.5149 85.4036 74.3468C85.6735 74.1787 86.0144 74.0947 86.4264 74.0947C86.7957 74.0947 87.12 74.1704 87.3994 74.322C87.6787 74.4735 87.8965 74.6972 88.0528 74.9931C88.209 75.2891 88.2872 75.6536 88.2872 76.0869V79.6203H87.6515V76.1259C87.6515 75.6761 87.526 75.3222 87.2751 75.0641C87.0265 74.8037 86.6903 74.6735 86.2666 74.6735C85.9754 74.6735 85.7161 74.7351 85.4889 74.8582C85.2616 74.9813 85.0817 75.1588 84.9491 75.3909C84.8189 75.6205 84.7538 75.8939 84.7538 76.2112ZM92.157 79.7339C91.648 79.7339 91.2077 79.6155 90.836 79.3788C90.4643 79.1397 90.1767 78.8094 89.9731 78.388C89.7718 77.9642 89.6712 77.4766 89.6712 76.9249C89.6712 76.3757 89.7718 75.888 89.9731 75.4619C90.1767 75.0334 90.4572 74.6984 90.8147 74.4569C91.1745 74.2131 91.59 74.0911 92.0611 74.0911C92.3571 74.0911 92.6423 74.1456 92.917 74.2545C93.1916 74.361 93.4378 74.5256 93.6556 74.7481C93.8758 74.9683 94.0498 75.2464 94.1776 75.5826C94.3055 75.9164 94.3694 76.3118 94.3694 76.7687V77.0812H90.108V76.5237H93.7231C93.7231 76.1733 93.652 75.8584 93.51 75.5791C93.3703 75.2973 93.175 75.0748 92.9241 74.9114C92.6755 74.7481 92.3878 74.6664 92.0611 74.6664C91.7155 74.6664 91.4113 74.7587 91.1485 74.9434C90.8857 75.1281 90.6797 75.3719 90.5306 75.6749C90.3838 75.978 90.3092 76.3094 90.3069 76.6693V77.0031C90.3069 77.4363 90.3814 77.8151 90.5306 78.1394C90.6821 78.4614 90.8964 78.7112 91.1733 78.8887C91.4503 79.0663 91.7782 79.1551 92.157 79.1551C92.4151 79.1551 92.6412 79.1148 92.8353 79.0343C93.0318 78.9538 93.1963 78.8461 93.3289 78.7112C93.4638 78.5739 93.5656 78.4235 93.6343 78.2602L94.2344 78.4555C94.1516 78.6851 94.0154 78.897 93.826 79.0911C93.639 79.2853 93.4046 79.4415 93.1229 79.5599C92.8436 79.6759 92.5216 79.7339 92.157 79.7339ZM95.7623 79.6203V74.1657H96.3767V75.0038H96.4228C96.5317 74.7292 96.7211 74.5078 96.991 74.3397C97.2633 74.1693 97.571 74.084 97.9143 74.084C97.9664 74.084 98.0244 74.0852 98.0883 74.0876C98.1522 74.09 98.2055 74.0923 98.2481 74.0947V74.7374C98.2197 74.7327 98.17 74.7256 98.099 74.7161C98.0279 74.7067 97.951 74.7019 97.8681 74.7019C97.584 74.7019 97.3307 74.7623 97.1082 74.883C96.888 75.0014 96.714 75.1659 96.5862 75.3766C96.4583 75.5873 96.3944 75.8276 96.3944 76.0975V79.6203H95.7623ZM101.366 79.7339C100.857 79.7339 100.417 79.6155 100.045 79.3788C99.6733 79.1397 99.3856 78.8094 99.182 78.388C98.9808 77.9642 98.8802 77.4766 98.8802 76.9249C98.8802 76.3757 98.9808 75.888 99.182 75.4619C99.3856 75.0334 99.6662 74.6984 100.024 74.4569C100.384 74.2131 100.799 74.0911 101.27 74.0911C101.566 74.0911 101.851 74.1456 102.126 74.2545C102.401 74.361 102.647 74.5256 102.865 74.7481C103.085 74.9683 103.259 75.2464 103.387 75.5826C103.514 75.9164 103.578 76.3118 103.578 76.7687V77.0812H99.317V76.5237H102.932C102.932 76.1733 102.861 75.8584 102.719 75.5791C102.579 75.2973 102.384 75.0748 102.133 74.9114C101.884 74.7481 101.597 74.6664 101.27 74.6664C100.924 74.6664 100.62 74.7587 100.357 74.9434C100.095 75.1281 99.8887 75.3719 99.7396 75.6749C99.5928 75.978 99.5182 76.3094 99.5159 76.6693V77.0031C99.5159 77.4363 99.5904 77.8151 99.7396 78.1394C99.8911 78.4614 100.105 78.7112 100.382 78.8887C100.659 79.0663 100.987 79.1551 101.366 79.1551C101.624 79.1551 101.85 79.1148 102.044 79.0343C102.241 78.9538 102.405 78.8461 102.538 78.7112C102.673 78.5739 102.775 78.4235 102.843 78.2602L103.443 78.4555C103.361 78.6851 103.224 78.897 103.035 79.0911C102.848 79.2853 102.614 79.4415 102.332 79.5599C102.053 79.6759 101.731 79.7339 101.366 79.7339ZM109.932 74.1657V74.7161H107.329V74.1657H109.932ZM108.142 72.8589H108.778V78.1962C108.778 78.4235 108.817 78.6023 108.895 78.7325C108.973 78.8603 109.075 78.9515 109.201 79.0059C109.326 79.058 109.46 79.084 109.602 79.084C109.685 79.084 109.756 79.0793 109.815 79.0698C109.874 79.058 109.926 79.0462 109.971 79.0343L110.106 79.606C110.045 79.6297 109.969 79.651 109.879 79.67C109.789 79.6913 109.678 79.7019 109.545 79.7019C109.313 79.7019 109.089 79.651 108.874 79.5492C108.661 79.4474 108.486 79.2959 108.348 79.0947C108.211 78.8935 108.142 78.6437 108.142 78.3454V72.8589ZM113.429 79.7339C112.958 79.7339 112.541 79.6143 112.179 79.3752C111.819 79.1361 111.538 78.8059 111.334 78.3845C111.13 77.9607 111.029 77.4718 111.029 76.9178C111.029 76.3591 111.13 75.8679 111.334 75.4441C111.538 75.018 111.819 74.6865 112.179 74.4498C112.541 74.2107 112.958 74.0911 113.429 74.0911C113.9 74.0911 114.316 74.2107 114.676 74.4498C115.036 74.6889 115.317 75.0203 115.521 75.4441C115.727 75.8679 115.83 76.3591 115.83 76.9178C115.83 77.4718 115.728 77.9607 115.524 78.3845C115.321 78.8059 115.038 79.1361 114.676 79.3752C114.316 79.6143 113.9 79.7339 113.429 79.7339ZM113.429 79.1551C113.808 79.1551 114.129 79.0533 114.392 78.8497C114.654 78.6461 114.853 78.375 114.988 78.0364C115.125 77.6979 115.194 77.325 115.194 76.9178C115.194 76.5106 115.125 76.1366 114.988 75.7957C114.853 75.4548 114.654 75.1813 114.392 74.9754C114.129 74.7694 113.808 74.6664 113.429 74.6664C113.053 74.6664 112.732 74.7694 112.467 74.9754C112.204 75.1813 112.004 75.4548 111.867 75.7957C111.732 76.1366 111.664 76.5106 111.664 76.9178C111.664 77.325 111.732 77.6979 111.867 78.0364C112.004 78.375 112.204 78.6461 112.467 78.8497C112.73 79.0533 113.05 79.1551 113.429 79.1551ZM123.695 75.3624L123.116 75.5258C123.059 75.3624 122.979 75.2145 122.874 75.0819C122.77 74.9493 122.634 74.844 122.466 74.7659C122.3 74.6877 122.094 74.6487 121.848 74.6487C121.479 74.6487 121.176 74.7363 120.939 74.9114C120.702 75.0866 120.584 75.3127 120.584 75.5897C120.584 75.8241 120.664 76.0147 120.825 76.1614C120.989 76.3059 121.24 76.4207 121.578 76.5059L122.402 76.7083C122.859 76.8196 123.201 76.996 123.428 77.2374C123.658 77.4789 123.773 77.7819 123.773 78.1465C123.773 78.4543 123.688 78.7277 123.517 78.9668C123.347 79.206 123.109 79.3942 122.803 79.5315C122.5 79.6664 122.149 79.7339 121.749 79.7339C121.216 79.7339 120.777 79.6143 120.431 79.3752C120.086 79.1337 119.864 78.7857 119.767 78.3312L120.374 78.182C120.452 78.5064 120.605 78.7514 120.832 78.9171C121.062 79.0828 121.364 79.1657 121.738 79.1657C122.157 79.1657 122.492 79.0722 122.743 78.8852C122.994 78.6958 123.119 78.459 123.119 78.1749C123.119 77.9548 123.046 77.7701 122.899 77.621C122.752 77.4694 122.53 77.3582 122.232 77.2872L121.34 77.0741C120.867 76.9605 120.516 76.7805 120.289 76.5343C120.062 76.2881 119.948 75.9827 119.948 75.6181C119.948 75.3175 120.03 75.0535 120.193 74.8262C120.357 74.5966 120.581 74.4167 120.868 74.2864C121.154 74.1562 121.481 74.0911 121.848 74.0911C122.348 74.0911 122.747 74.2048 123.045 74.432C123.345 74.6569 123.562 74.9671 123.695 75.3624ZM126.68 79.7445C126.351 79.7445 126.051 79.6806 125.778 79.5528C125.506 79.4226 125.289 79.2355 125.128 78.9917C124.967 78.7455 124.887 78.4472 124.887 78.0968C124.887 77.8269 124.938 77.5997 125.04 77.415C125.141 77.2303 125.286 77.0788 125.473 76.9605C125.66 76.8421 125.881 76.7486 126.137 76.6799C126.393 76.6113 126.674 76.558 126.982 76.5201C127.288 76.4822 127.546 76.4491 127.756 76.4207C127.969 76.3923 128.132 76.3473 128.243 76.2857C128.354 76.2242 128.41 76.1248 128.41 75.9874V75.8596C128.41 75.4879 128.298 75.1955 128.076 74.9825C127.856 74.767 127.538 74.6593 127.124 74.6593C126.731 74.6593 126.41 74.7457 126.162 74.9185C125.916 75.0914 125.743 75.295 125.643 75.5293L125.043 75.3127C125.166 75.0144 125.337 74.7765 125.555 74.5989C125.772 74.419 126.016 74.29 126.286 74.2119C126.556 74.1314 126.829 74.0911 127.106 74.0911C127.315 74.0911 127.531 74.1184 127.756 74.1728C127.984 74.2273 128.194 74.322 128.388 74.4569C128.582 74.5895 128.74 74.7753 128.861 75.0144C128.981 75.2512 129.042 75.5518 129.042 75.9164V79.6203H128.41V78.7573H128.371C128.295 78.9183 128.182 79.0746 128.033 79.2261C127.884 79.3776 127.697 79.5019 127.472 79.5989C127.247 79.696 126.983 79.7445 126.68 79.7445ZM126.766 79.1657C127.102 79.1657 127.393 79.0911 127.639 78.942C127.885 78.7928 128.075 78.5952 128.207 78.3489C128.342 78.1004 128.41 77.8269 128.41 77.5286V76.7403C128.362 76.7853 128.283 76.8255 128.172 76.861C128.063 76.8965 127.936 76.9285 127.792 76.9569C127.65 76.9829 127.508 77.0054 127.366 77.0244C127.224 77.0433 127.096 77.0599 126.982 77.0741C126.674 77.112 126.412 77.1712 126.194 77.2516C125.976 77.3321 125.809 77.4434 125.693 77.5855C125.577 77.7251 125.519 77.9051 125.519 78.1252C125.519 78.4567 125.637 78.7135 125.874 78.8958C126.111 79.0757 126.408 79.1657 126.766 79.1657ZM134.75 74.1657L132.758 79.6203H132.083L130.091 74.1657H130.777L132.396 78.7857H132.446L134.065 74.1657H134.75ZM137.997 79.7339C137.488 79.7339 137.048 79.6155 136.676 79.3788C136.304 79.1397 136.017 78.8094 135.813 78.388C135.612 77.9642 135.511 77.4766 135.511 76.9249C135.511 76.3757 135.612 75.888 135.813 75.4619C136.017 75.0334 136.297 74.6984 136.655 74.4569C137.014 74.2131 137.43 74.0911 137.901 74.0911C138.197 74.0911 138.482 74.1456 138.757 74.2545C139.031 74.361 139.278 74.5256 139.495 74.7481C139.716 74.9683 139.89 75.2464 140.017 75.5826C140.145 75.9164 140.209 76.3118 140.209 76.7687V77.0812H135.948V76.5237H139.563C139.563 76.1733 139.492 75.8584 139.35 75.5791C139.21 75.2973 139.015 75.0748 138.764 74.9114C138.515 74.7481 138.228 74.6664 137.901 74.6664C137.555 74.6664 137.251 74.7587 136.988 74.9434C136.726 75.1281 136.52 75.3719 136.37 75.6749C136.224 75.978 136.149 76.3094 136.147 76.6693V77.0031C136.147 77.4363 136.221 77.8151 136.37 78.1394C136.522 78.4614 136.736 78.7112 137.013 78.8887C137.29 79.0663 137.618 79.1551 137.997 79.1551C138.255 79.1551 138.481 79.1148 138.675 79.0343C138.872 78.9538 139.036 78.8461 139.169 78.7112C139.304 78.5739 139.405 78.4235 139.474 78.2602L140.074 78.4555C139.991 78.6851 139.855 78.897 139.666 79.0911C139.479 79.2853 139.244 79.4415 138.963 79.5599C138.683 79.6759 138.361 79.7339 137.997 79.7339ZM144.415 79.6203V74.1657H145.029V75.0038H145.086C145.195 74.7221 145.376 74.5007 145.629 74.3397C145.885 74.1764 146.191 74.0947 146.549 74.0947C146.925 74.0947 147.234 74.1835 147.476 74.361C147.72 74.5362 147.902 74.7777 148.023 75.0855H148.069C148.192 74.7824 148.392 74.5421 148.669 74.3646C148.948 74.1846 149.287 74.0947 149.685 74.0947C150.191 74.0947 150.591 74.2545 150.885 74.5741C151.178 74.8913 151.325 75.3553 151.325 75.9661V79.6203H150.693V75.9661C150.693 75.5353 150.583 75.2121 150.363 74.9967C150.143 74.7812 149.853 74.6735 149.493 74.6735C149.076 74.6735 148.755 74.8014 148.53 75.057C148.306 75.3127 148.193 75.6371 148.193 76.0301V79.6203H147.547V75.9093C147.547 75.54 147.444 75.2417 147.238 75.0144C147.032 74.7872 146.742 74.6735 146.368 74.6735C146.117 74.6735 145.891 74.7351 145.69 74.8582C145.491 74.9813 145.333 75.1529 145.217 75.3731C145.104 75.5909 145.047 75.8418 145.047 76.1259V79.6203H144.415ZM155.119 79.7339C154.648 79.7339 154.231 79.6143 153.869 79.3752C153.509 79.1361 153.227 78.8059 153.023 78.3845C152.82 77.9607 152.718 77.4718 152.718 76.9178C152.718 76.3591 152.82 75.8679 153.023 75.4441C153.227 75.018 153.509 74.6865 153.869 74.4498C154.231 74.2107 154.648 74.0911 155.119 74.0911C155.59 74.0911 156.005 74.2107 156.365 74.4498C156.725 74.6889 157.007 75.0203 157.21 75.4441C157.416 75.8679 157.519 76.3591 157.519 76.9178C157.519 77.4718 157.417 77.9607 157.214 78.3845C157.01 78.8059 156.727 79.1361 156.365 79.3752C156.005 79.6143 155.59 79.7339 155.119 79.7339ZM155.119 79.1551C155.497 79.1551 155.818 79.0533 156.081 78.8497C156.344 78.6461 156.543 78.375 156.678 78.0364C156.815 77.6979 156.884 77.325 156.884 76.9178C156.884 76.5106 156.815 76.1366 156.678 75.7957C156.543 75.4548 156.344 75.1813 156.081 74.9754C155.818 74.7694 155.497 74.6664 155.119 74.6664C154.742 74.6664 154.421 74.7694 154.156 74.9754C153.894 75.1813 153.693 75.4548 153.556 75.7957C153.421 76.1366 153.354 76.5106 153.354 76.9178C153.354 77.325 153.421 77.6979 153.556 78.0364C153.693 78.375 153.894 78.6461 154.156 78.8497C154.419 79.0533 154.74 79.1551 155.119 79.1551ZM159.539 76.2112V79.6203H158.907V74.1657H159.521V75.0215H159.578C159.706 74.7422 159.905 74.5185 160.175 74.3504C160.447 74.1799 160.783 74.0947 161.183 74.0947C161.55 74.0947 161.872 74.1716 162.149 74.3255C162.428 74.477 162.645 74.7007 162.799 74.9967C162.955 75.2926 163.033 75.656 163.033 76.0869V79.6203H162.401V76.1259C162.401 75.6785 162.276 75.3246 162.025 75.0641C161.776 74.8037 161.442 74.6735 161.023 74.6735C160.737 74.6735 160.482 74.7351 160.26 74.8582C160.037 74.9813 159.861 75.1588 159.731 75.3909C159.603 75.6205 159.539 75.8939 159.539 76.2112ZM166.903 79.7339C166.394 79.7339 165.954 79.6155 165.582 79.3788C165.21 79.1397 164.923 78.8094 164.719 78.388C164.518 77.9642 164.417 77.4766 164.417 76.9249C164.417 76.3757 164.518 75.888 164.719 75.4619C164.923 75.0334 165.203 74.6984 165.561 74.4569C165.921 74.2131 166.336 74.0911 166.807 74.0911C167.103 74.0911 167.388 74.1456 167.663 74.2545C167.938 74.361 168.184 74.5256 168.402 74.7481C168.622 74.9683 168.796 75.2464 168.924 75.5826C169.052 75.9164 169.115 76.3118 169.115 76.7687V77.0812H164.854V76.5237H168.469C168.469 76.1733 168.398 75.8584 168.256 75.5791C168.116 75.2973 167.921 75.0748 167.67 74.9114C167.422 74.7481 167.134 74.6664 166.807 74.6664C166.462 74.6664 166.157 74.7587 165.895 74.9434C165.632 75.1281 165.426 75.3719 165.277 75.6749C165.13 75.978 165.055 76.3094 165.053 76.6693V77.0031C165.053 77.4363 165.128 77.8151 165.277 78.1394C165.428 78.4614 165.642 78.7112 165.919 78.8887C166.196 79.0663 166.524 79.1551 166.903 79.1551C167.161 79.1551 167.387 79.1148 167.581 79.0343C167.778 78.9538 167.942 78.8461 168.075 78.7112C168.21 78.5739 168.312 78.4235 168.38 78.2602L168.981 78.4555C168.898 78.6851 168.762 78.897 168.572 79.0911C168.385 79.2853 168.151 79.4415 167.869 79.5599C167.59 79.6759 167.268 79.7339 166.903 79.7339ZM170.783 81.6657C170.657 81.6657 170.54 81.6539 170.431 81.6302C170.322 81.6065 170.236 81.5805 170.172 81.5521L170.342 80.9945C170.558 81.0608 170.75 81.0845 170.918 81.0656C171.086 81.049 171.235 80.9732 171.365 80.8383C171.495 80.7057 171.611 80.5021 171.713 80.2275L171.912 79.6735L169.906 74.1657H170.591L172.21 78.7857H172.26L173.879 74.1657H174.565L172.256 80.4832C172.159 80.746 172.04 80.965 171.898 81.1401C171.756 81.3177 171.591 81.4491 171.404 81.5343C171.22 81.6219 171.012 81.6657 170.783 81.6657Z" fill="black" style="fill:black;fill:black;fill-opacity:1;"/>
<path d="M122.068 13.3291V25.9873M118.801 23.0148L119.758 23.7099C121.034 24.6371 123.102 24.6371 124.378 23.7099C125.654 22.7827 125.654 21.2806 124.378 20.3534C123.741 19.8892 122.905 19.6582 122.068 19.6582C121.279 19.6582 120.489 19.4262 119.887 18.9631C118.682 18.0359 118.682 16.5338 119.887 15.6065C121.091 14.6793 123.045 14.6793 124.25 15.6065L124.701 15.9546M131.869 19.6582C131.869 20.905 131.616 22.1395 131.123 23.2913C130.631 24.4431 129.909 25.4897 128.999 26.3713C128.089 27.2528 127.008 27.9521 125.819 28.4292C124.63 28.9063 123.355 29.1519 122.068 29.1519C120.781 29.1519 119.507 28.9063 118.317 28.4292C117.128 27.9521 116.048 27.2528 115.138 26.3713C114.228 25.4897 113.506 24.4431 113.013 23.2913C112.521 22.1395 112.267 20.905 112.267 19.6582C112.267 17.1404 113.3 14.7256 115.138 12.9452C116.976 11.1648 119.469 10.1646 122.068 10.1646C124.668 10.1646 127.161 11.1648 128.999 12.9452C130.837 14.7256 131.869 17.1404 131.869 19.6582Z" stroke="black" style="stroke:black;stroke:black;stroke-opacity:1;" stroke-width="1.5" stroke-linecap="round" stroke-linejoin="round"/>
</g>
<defs>
<filter id="filter0_d_13_207" x="0" y="0" width="238" height="108" filterUnits="userSpaceOnUse" color-interpolation-filters="sRGB">
<feFlood flood-opacity="0" result="BackgroundImageFix"/>
<feColorMatrix in="SourceAlpha" type="matrix" values="0 0 0 0 0 0 0 0 0 0 0 0 0 0 0 0 0 0 127 0" result="hardAlpha"/>
<feOffset dy="4"/>
<feGaussianBlur stdDeviation="2"/>
<feComposite in2="hardAlpha" operator="out"/>
<feColorMatrix type="matrix" values="0 0 0 0 0 0 0 0 0 0 0 0 0 0 0 0 0 0 0.25 0"/>
<feBlend mode="normal" in2="BackgroundImageFix" result="effect1_dropShadow_13_207"/>
<feBlend mode="normal" in="SourceGraphic" in2="effect1_dropShadow_13_207" result="shape"/>
</filter>
<filter id="filter1_d_13_207" x="0" y="0" width="238" height="108" filterUnits="userSpaceOnUse" color-interpolation-filters="sRGB">
<feFlood flood-opacity="0" result="BackgroundImageFix"/>
<feColorMatrix in="SourceAlpha" type="matrix" values="0 0 0 0 0 0 0 0 0 0 0 0 0 0 0 0 0 0 127 0" result="hardAlpha"/>
<feOffset dy="4"/>
<feGaussianBlur stdDeviation="2"/>
<feComposite in2="hardAlpha" operator="out"/>
<feColorMatrix type="matrix" values="0 0 0 0 0 0 0 0 0 0 0 0 0 0 0 0 0 0 0.25 0"/>
<feBlend mode="normal" in2="BackgroundImageFix" result="effect1_dropShadow_13_207"/>
<feBlend mode="normal" in="SourceGraphic" in2="effect1_dropShadow_13_207" result="shape"/>
</filter>
</defs>
</svg>
