<svg width="230" height="100" viewBox="0 0 230 100" fill="none" xmlns="http://www.w3.org/2000/svg">
<path d="M79.6623 54.6456V37.191H83.881V51.2194H91.1424V54.6456H79.6623ZM109.121 45.9183C109.121 47.8388 108.752 49.4666 108.013 50.8018C107.275 52.137 106.275 53.1513 105.013 53.8444C103.757 54.5376 102.348 54.8842 100.786 54.8842C99.2177 54.8842 97.8058 54.5348 96.5501 53.8359C95.2944 53.137 94.2972 52.1228 93.5586 50.7933C92.8256 49.4581 92.4592 47.8331 92.4592 45.9183C92.4592 43.9978 92.8256 42.37 93.5586 41.0348C94.2972 39.6995 95.2944 38.6853 96.5501 37.9922C97.8058 37.299 99.2177 36.9524 100.786 36.9524C102.348 36.9524 103.757 37.299 105.013 37.9922C106.275 38.6853 107.275 39.6995 108.013 41.0348C108.752 42.37 109.121 43.9978 109.121 45.9183ZM104.809 45.9183C104.809 44.7819 104.647 43.8217 104.323 43.0376C104.005 42.2535 103.544 41.6598 102.942 41.2564C102.346 40.853 101.627 40.6512 100.786 40.6512C99.9506 40.6512 99.2319 40.853 98.6296 41.2564C98.0274 41.6598 97.5643 42.2535 97.2404 43.0376C96.9222 43.8217 96.7631 44.7819 96.7631 45.9183C96.7631 47.0547 96.9222 48.0149 97.2404 48.799C97.5643 49.5831 98.0274 50.1768 98.6296 50.5802C99.2319 50.9836 99.9506 51.1853 100.786 51.1853C101.627 51.1853 102.346 50.9836 102.942 50.5802C103.544 50.1768 104.005 49.5831 104.323 48.799C104.647 48.0149 104.809 47.0547 104.809 45.9183ZM123.039 42.8927C122.942 42.5348 122.8 42.2194 122.613 41.9467C122.425 41.6683 122.195 41.4325 121.922 41.2393C121.65 41.0461 121.337 40.9013 120.985 40.8047C120.632 40.7024 120.246 40.6512 119.826 40.6512C118.979 40.6512 118.246 40.8558 117.627 41.2649C117.013 41.674 116.539 42.2706 116.203 43.0547C115.868 43.8331 115.701 44.7791 115.701 45.8927C115.701 47.012 115.863 47.9666 116.186 48.7564C116.51 49.5461 116.979 50.1484 117.593 50.5632C118.206 50.978 118.951 51.1853 119.826 51.1853C120.598 51.1853 121.252 51.0603 121.786 50.8103C122.326 50.5547 122.735 50.1939 123.013 49.728C123.292 49.262 123.431 48.7138 123.431 48.0831L124.215 48.1768H119.971V45.1001H127.496V47.4098C127.496 48.9723 127.164 50.3103 126.499 51.424C125.84 52.5376 124.931 53.3927 123.772 53.9893C122.618 54.5859 121.292 54.8842 119.792 54.8842C118.127 54.8842 116.664 54.5234 115.402 53.8018C114.141 53.0802 113.158 52.0518 112.453 50.7166C111.749 49.3757 111.397 47.7848 111.397 45.9439C111.397 44.512 111.61 43.2422 112.036 42.1342C112.462 41.0206 113.056 40.0774 113.817 39.3047C114.584 38.5319 115.471 37.9467 116.476 37.549C117.488 37.1512 118.576 36.9524 119.74 36.9524C120.752 36.9524 121.692 37.0973 122.561 37.387C123.436 37.6768 124.209 38.0859 124.88 38.6143C125.556 39.1427 126.104 39.7706 126.525 40.4978C126.945 41.2251 127.206 42.0234 127.309 42.8927H123.039ZM139.358 37.191V54.6456H135.139V37.191H139.358ZM156.861 37.191V54.6456H153.282L146.336 44.5717H146.225V54.6456H142.006V37.191H145.637L152.506 47.2478H152.651V37.191H156.861Z" fill="white" style="fill:white;fill:white;fill-opacity:1;"/>
<g filter="url(#filter0_i_13_210)">
<rect width="230" height="100" rx="25" fill="#E3F3D2" style="fill:#E3F3D2;fill:color(display-p3 0.8886 0.9524 0.8248);fill-opacity:1;"/>
</g>
<path d="M70.0777 48.4114C70.0303 47.8195 69.8084 47.3579 69.4118 47.0264C69.0212 46.695 68.4264 46.5293 67.6274 46.5293C67.1184 46.5293 66.7011 46.5914 66.3756 46.7157C66.056 46.8341 65.8193 46.9969 65.6654 47.204C65.5115 47.4112 65.4316 47.6479 65.4257 47.9142C65.4138 48.1332 65.4523 48.3315 65.5411 48.509C65.6358 48.6807 65.7837 48.8375 65.985 48.9796C66.1862 49.1157 66.4437 49.24 66.7574 49.3524C67.071 49.4649 67.4439 49.5655 67.876 49.6543L69.3674 49.9739C70.3736 50.187 71.2347 50.4681 71.9509 50.8173C72.667 51.1665 73.253 51.5778 73.7087 52.0513C74.1644 52.5189 74.4988 53.0456 74.7119 53.6316C74.9309 54.2175 75.0433 54.8567 75.0493 55.5492C75.0433 56.7447 74.7444 57.7568 74.1526 58.5854C73.5607 59.414 72.7144 60.0443 71.6135 60.4764C70.5186 60.9084 69.2017 61.1245 67.6629 61.1245C66.0826 61.1245 64.7036 60.8907 63.5258 60.4231C62.3539 59.9555 61.4425 59.2364 60.7914 58.2658C60.1463 57.2892 59.8208 56.0404 59.8149 54.5193H64.5024C64.532 55.0757 64.6711 55.5433 64.9196 55.922C65.1682 56.3008 65.5174 56.5879 65.9672 56.7832C66.423 56.9785 66.9645 57.0762 67.5919 57.0762C68.1186 57.0762 68.5596 57.0111 68.9147 56.8809C69.2698 56.7506 69.5391 56.5701 69.7226 56.3393C69.906 56.1085 70.0007 55.8451 70.0066 55.5492C70.0007 55.271 69.909 55.0283 69.7314 54.8212C69.5598 54.6081 69.2757 54.4187 68.8792 54.253C68.4826 54.0814 67.947 53.9216 67.2723 53.7736L65.4612 53.383C63.8513 53.0338 62.5818 52.4508 61.6526 51.634C60.7293 50.8114 60.2706 49.6898 60.2765 48.2693C60.2706 47.1152 60.5784 46.1061 61.1998 45.242C61.8272 44.372 62.6943 43.6943 63.801 43.209C64.9137 42.7237 66.1892 42.481 67.6274 42.481C69.0952 42.481 70.3647 42.7266 71.436 43.2179C72.5072 43.7091 73.3329 44.4016 73.9129 45.2953C74.4988 46.1831 74.7948 47.2218 74.8007 48.4114H70.0777ZM80.9419 60.9114H75.6152L81.6166 42.7296H88.3638L94.3652 60.9114H89.0385L85.0612 47.7367H84.9192L80.9419 60.9114ZM79.9476 53.7381H89.9618V57.4313H79.9476V53.7381ZM98.4512 42.7296L102.18 55.5492H102.322L106.051 42.7296H111.626L105.625 60.9114H98.8774L92.876 42.7296H98.4512ZM118.313 42.7296V60.9114H113.377V42.7296H118.313ZM136.384 42.7296V60.9114H132.265L125.695 51.3588H125.589V60.9114H120.653V42.7296H124.843L131.306 52.2466H131.448V42.7296H136.384ZM150.526 48.731C150.449 48.4173 150.328 48.1421 150.162 47.9054C149.997 47.6627 149.79 47.4585 149.541 47.2928C149.298 47.1211 149.014 46.9939 148.689 46.911C148.369 46.8223 148.017 46.7779 147.632 46.7779C146.804 46.7779 146.096 46.9761 145.51 47.3727C144.93 47.7692 144.487 48.3404 144.179 49.0861C143.877 49.8318 143.726 50.7315 143.726 51.785C143.726 52.8503 143.871 53.7618 144.161 54.5193C144.451 55.2769 144.883 55.8569 145.457 56.2594C146.031 56.6619 146.744 56.8631 147.597 56.8631C148.348 56.8631 148.973 56.7536 149.47 56.5346C149.973 56.3156 150.349 56.0049 150.597 55.6024C150.846 55.2 150.97 54.7265 150.97 54.182L151.823 54.2708H147.668V50.7551H155.729V53.2764C155.729 54.9336 155.377 56.3511 154.672 57.5289C153.974 58.7008 153.009 59.6004 151.778 60.2278C150.553 60.8492 149.147 61.16 147.561 61.16C145.792 61.16 144.238 60.7841 142.9 60.0325C141.563 59.2808 140.518 58.2096 139.766 56.8187C139.021 55.4278 138.648 53.7736 138.648 51.856C138.648 50.3527 138.876 49.021 139.331 47.861C139.793 46.7009 140.432 45.7214 141.249 44.9224C142.066 44.1175 143.01 43.5108 144.081 43.1024C145.152 42.6881 146.301 42.481 147.526 42.481C148.603 42.481 149.603 42.6349 150.526 42.9426C151.456 43.2445 152.275 43.6765 152.986 44.2388C153.702 44.7952 154.279 45.4551 154.717 46.2186C155.155 46.9821 155.421 47.8195 155.516 48.731H150.526ZM167.832 48.4114C167.784 47.8195 167.562 47.3579 167.166 47.0264C166.775 46.695 166.18 46.5293 165.381 46.5293C164.872 46.5293 164.455 46.5914 164.13 46.7157C163.81 46.8341 163.573 46.9969 163.419 47.204C163.265 47.4112 163.185 47.6479 163.18 47.9142C163.168 48.1332 163.206 48.3315 163.295 48.509C163.39 48.6807 163.538 48.8375 163.739 48.9796C163.94 49.1157 164.198 49.24 164.511 49.3524C164.825 49.4649 165.198 49.5655 165.63 49.6543L167.121 49.9739C168.127 50.187 168.989 50.4681 169.705 50.8173C170.421 51.1665 171.007 51.5778 171.463 52.0513C171.918 52.5189 172.253 53.0456 172.466 53.6316C172.685 54.2175 172.797 54.8567 172.803 55.5492C172.797 56.7447 172.498 57.7568 171.906 58.5854C171.315 59.414 170.468 60.0443 169.367 60.4764C168.272 60.9084 166.956 61.1245 165.417 61.1245C163.837 61.1245 162.458 60.8907 161.28 60.4231C160.108 59.9555 159.196 59.2364 158.545 58.2658C157.9 57.2892 157.575 56.0404 157.569 54.5193H162.256C162.286 55.0757 162.425 55.5433 162.674 55.922C162.922 56.3008 163.271 56.5879 163.721 56.7832C164.177 56.9785 164.718 57.0762 165.346 57.0762C165.873 57.0762 166.313 57.0111 166.669 56.8809C167.024 56.7506 167.293 56.5701 167.476 56.3393C167.66 56.1085 167.755 55.8451 167.761 55.5492C167.755 55.271 167.663 55.0283 167.485 54.8212C167.314 54.6081 167.03 54.4187 166.633 54.253C166.237 54.0814 165.701 53.9216 165.026 53.7736L163.215 53.383C161.605 53.0338 160.336 52.4508 159.406 51.634C158.483 50.8114 158.025 49.6898 158.03 48.2693C158.025 47.1152 158.332 46.1061 158.954 45.242C159.581 44.372 160.448 43.6943 161.555 43.209C162.668 42.7237 163.943 42.481 165.381 42.481C166.849 42.481 168.119 42.7266 169.19 43.2179C170.261 43.7091 171.087 44.4016 171.667 45.2953C172.253 46.1831 172.549 47.2218 172.555 48.4114H167.832Z" fill="black" style="fill:black;fill:black;fill-opacity:1;"/>
<path d="M65.6952 74.6203H65.0276C64.9779 74.3717 64.8879 74.142 64.7577 73.9313C64.6298 73.7183 64.4689 73.5324 64.2747 73.3738C64.0806 73.2152 63.8604 73.0921 63.6142 73.0045C63.368 72.9169 63.1017 72.8731 62.8152 72.8731C62.3559 72.8731 61.9369 72.9927 61.5581 73.2318C61.1817 73.4709 60.8798 73.8224 60.6526 74.2864C60.4277 74.7481 60.3152 75.3139 60.3152 75.9839C60.3152 76.6586 60.4277 77.2268 60.6526 77.6884C60.8798 78.1501 61.1817 78.5005 61.5581 78.7396C61.9369 78.9763 62.3559 79.0947 62.8152 79.0947C63.1017 79.0947 63.368 79.0509 63.6142 78.9633C63.8604 78.8757 64.0806 78.7538 64.2747 78.5975C64.4689 78.4389 64.6298 78.2531 64.7577 78.04C64.8879 77.8269 64.9779 77.5961 65.0276 77.3475H65.6952C65.636 77.6813 65.5247 77.9927 65.3614 78.2815C65.2004 78.5679 64.9944 78.8189 64.7435 79.0343C64.4949 79.2498 64.2084 79.4178 63.8841 79.5386C63.5598 79.6593 63.2035 79.7197 62.8152 79.7197C62.2044 79.7197 61.6623 79.567 61.1888 79.2616C60.7153 78.9538 60.3436 78.5206 60.0737 77.9619C59.8062 77.4032 59.6725 76.7438 59.6725 75.9839C59.6725 75.2239 59.8062 74.5646 60.0737 74.0059C60.3436 73.4472 60.7153 73.0151 61.1888 72.7097C61.6623 72.402 62.2044 72.2481 62.8152 72.2481C63.2035 72.2481 63.5598 72.3085 63.8841 72.4292C64.2084 72.5476 64.4949 72.7157 64.7435 72.9335C64.9944 73.1489 65.2004 73.3998 65.3614 73.6863C65.5247 73.9728 65.636 74.2841 65.6952 74.6203ZM67.7557 72.3475V79.6203H67.1236V72.3475H67.7557ZM69.4354 79.6203V74.1657H70.0711V79.6203H69.4354ZM69.7586 73.2282C69.6284 73.2282 69.5171 73.1844 69.4248 73.0968C69.3324 73.0069 69.2863 72.8991 69.2863 72.7737C69.2863 72.6482 69.3324 72.5417 69.4248 72.4541C69.5171 72.3641 69.6284 72.3191 69.7586 72.3191C69.8888 72.3191 70.0001 72.3641 70.0924 72.4541C70.1847 72.5417 70.2309 72.6482 70.2309 72.7737C70.2309 72.8991 70.1847 73.0069 70.0924 73.0968C70.0001 73.1844 69.8888 73.2282 69.7586 73.2282ZM73.8735 79.7339C73.3858 79.7339 72.9608 79.612 72.5986 79.3681C72.2387 79.1243 71.9594 78.7905 71.7605 78.3667C71.5617 77.9429 71.4622 77.46 71.4622 76.9178C71.4622 76.371 71.5628 75.8845 71.7641 75.4583C71.9677 75.0322 72.2494 74.6984 72.6093 74.4569C72.9691 74.2131 73.3869 74.0911 73.8628 74.0911C74.2274 74.0911 74.5576 74.1622 74.8536 74.3042C75.1495 74.4439 75.3933 74.6416 75.5851 74.8972C75.7792 75.1506 75.9012 75.4465 75.9509 75.785H75.3117C75.2454 75.4773 75.0856 75.2145 74.8323 74.9967C74.5813 74.7765 74.2617 74.6664 73.8735 74.6664C73.5254 74.6664 73.2177 74.7611 72.9502 74.9505C72.6826 75.1375 72.4731 75.3991 72.3216 75.7353C72.1725 76.0691 72.0979 76.4562 72.0979 76.8965C72.0979 77.3392 72.1713 77.731 72.3181 78.072C72.4648 78.4105 72.6708 78.6757 72.936 78.8674C73.2035 79.0592 73.516 79.1551 73.8735 79.1551C74.1149 79.1551 74.3351 79.1101 74.534 79.0201C74.7352 78.9278 74.9033 78.7976 75.0382 78.6295C75.1755 78.4614 75.2679 78.2614 75.3152 78.0293H75.9544C75.9071 78.3584 75.7899 78.652 75.6029 78.91C75.4182 79.1657 75.1779 79.3669 74.882 79.5137C74.5884 79.6605 74.2522 79.7339 73.8735 79.7339ZM80.7538 76.2112V79.6203H80.1217V72.3475H80.7538V75.0215H80.8106C80.9384 74.7398 81.1361 74.5149 81.4036 74.3468C81.6735 74.1787 82.0144 74.0947 82.4264 74.0947C82.7957 74.0947 83.12 74.1704 83.3994 74.322C83.6787 74.4735 83.8965 74.6972 84.0528 74.9931C84.209 75.2891 84.2872 75.6536 84.2872 76.0869V79.6203H83.6515V76.1259C83.6515 75.6761 83.526 75.3222 83.2751 75.0641C83.0265 74.8037 82.6903 74.6735 82.2666 74.6735C81.9754 74.6735 81.7161 74.7351 81.4889 74.8582C81.2616 74.9813 81.0817 75.1588 80.9491 75.3909C80.8189 75.6205 80.7538 75.8939 80.7538 76.2112ZM88.157 79.7339C87.648 79.7339 87.2077 79.6155 86.836 79.3788C86.4643 79.1397 86.1767 78.8094 85.9731 78.388C85.7718 77.9642 85.6712 77.4766 85.6712 76.9249C85.6712 76.3757 85.7718 75.888 85.9731 75.4619C86.1767 75.0334 86.4572 74.6984 86.8147 74.4569C87.1745 74.2131 87.59 74.0911 88.0611 74.0911C88.3571 74.0911 88.6423 74.1456 88.917 74.2545C89.1916 74.361 89.4378 74.5256 89.6556 74.7481C89.8758 74.9683 90.0498 75.2464 90.1776 75.5826C90.3055 75.9164 90.3694 76.3118 90.3694 76.7687V77.0812H86.108V76.5237H89.7231C89.7231 76.1733 89.652 75.8584 89.51 75.5791C89.3703 75.2973 89.175 75.0748 88.9241 74.9114C88.6755 74.7481 88.3878 74.6664 88.0611 74.6664C87.7155 74.6664 87.4113 74.7587 87.1485 74.9434C86.8857 75.1281 86.6797 75.3719 86.5306 75.6749C86.3838 75.978 86.3092 76.3094 86.3069 76.6693V77.0031C86.3069 77.4363 86.3814 77.8151 86.5306 78.1394C86.6821 78.4614 86.8964 78.7112 87.1733 78.8887C87.4503 79.0663 87.7782 79.1551 88.157 79.1551C88.4151 79.1551 88.6412 79.1148 88.8353 79.0343C89.0318 78.9538 89.1963 78.8461 89.3289 78.7112C89.4638 78.5739 89.5656 78.4235 89.6343 78.2602L90.2344 78.4555C90.1516 78.6851 90.0154 78.897 89.826 79.0911C89.639 79.2853 89.4046 79.4415 89.1229 79.5599C88.8436 79.6759 88.5216 79.7339 88.157 79.7339ZM91.7623 79.6203V74.1657H92.3767V75.0038H92.4228C92.5317 74.7292 92.7211 74.5078 92.991 74.3397C93.2633 74.1693 93.571 74.084 93.9143 74.084C93.9664 74.084 94.0244 74.0852 94.0883 74.0876C94.1522 74.09 94.2055 74.0923 94.2481 74.0947V74.7374C94.2197 74.7327 94.17 74.7256 94.099 74.7161C94.0279 74.7067 93.951 74.7019 93.8681 74.7019C93.584 74.7019 93.3307 74.7623 93.1082 74.883C92.888 75.0014 92.714 75.1659 92.5862 75.3766C92.4583 75.5873 92.3944 75.8276 92.3944 76.0975V79.6203H91.7623ZM97.366 79.7339C96.857 79.7339 96.4167 79.6155 96.045 79.3788C95.6733 79.1397 95.3856 78.8094 95.182 78.388C94.9808 77.9642 94.8802 77.4766 94.8802 76.9249C94.8802 76.3757 94.9808 75.888 95.182 75.4619C95.3856 75.0334 95.6662 74.6984 96.0237 74.4569C96.3835 74.2131 96.799 74.0911 97.2701 74.0911C97.566 74.0911 97.8513 74.1456 98.1259 74.2545C98.4006 74.361 98.6468 74.5256 98.8646 74.7481C99.0847 74.9683 99.2588 75.2464 99.3866 75.5826C99.5144 75.9164 99.5784 76.3118 99.5784 76.7687V77.0812H95.317V76.5237H98.932C98.932 76.1733 98.861 75.8584 98.719 75.5791C98.5793 75.2973 98.384 75.0748 98.133 74.9114C97.8845 74.7481 97.5968 74.6664 97.2701 74.6664C96.9245 74.6664 96.6203 74.7587 96.3575 74.9434C96.0947 75.1281 95.8887 75.3719 95.7396 75.6749C95.5928 75.978 95.5182 76.3094 95.5159 76.6693V77.0031C95.5159 77.4363 95.5904 77.8151 95.7396 78.1394C95.8911 78.4614 96.1053 78.7112 96.3823 78.8887C96.6593 79.0663 96.9872 79.1551 97.366 79.1551C97.624 79.1551 97.8501 79.1148 98.0443 79.0343C98.2408 78.9538 98.4053 78.8461 98.5379 78.7112C98.6728 78.5739 98.7746 78.4235 98.8433 78.2602L99.4434 78.4555C99.3606 78.6851 99.2244 78.897 99.035 79.0911C98.848 79.2853 98.6136 79.4415 98.3319 79.5599C98.0526 79.6759 97.7306 79.7339 97.366 79.7339ZM105.932 74.1657V74.7161H103.329V74.1657H105.932ZM104.142 72.8589H104.778V78.1962C104.778 78.4235 104.817 78.6023 104.895 78.7325C104.973 78.8603 105.075 78.9515 105.201 79.0059C105.326 79.058 105.46 79.084 105.602 79.084C105.685 79.084 105.756 79.0793 105.815 79.0698C105.874 79.058 105.926 79.0462 105.971 79.0343L106.106 79.606C106.045 79.6297 105.969 79.651 105.879 79.67C105.789 79.6913 105.678 79.7019 105.545 79.7019C105.313 79.7019 105.089 79.651 104.874 79.5492C104.661 79.4474 104.486 79.2959 104.348 79.0947C104.211 78.8935 104.142 78.6437 104.142 78.3454V72.8589ZM109.429 79.7339C108.958 79.7339 108.541 79.6143 108.179 79.3752C107.819 79.1361 107.538 78.8059 107.334 78.3845C107.13 77.9607 107.029 77.4718 107.029 76.9178C107.029 76.3591 107.13 75.8679 107.334 75.4441C107.538 75.018 107.819 74.6865 108.179 74.4498C108.541 74.2107 108.958 74.0911 109.429 74.0911C109.9 74.0911 110.316 74.2107 110.676 74.4498C111.036 74.6889 111.317 75.0203 111.521 75.4441C111.727 75.8679 111.83 76.3591 111.83 76.9178C111.83 77.4718 111.728 77.9607 111.524 78.3845C111.321 78.8059 111.038 79.1361 110.676 79.3752C110.316 79.6143 109.9 79.7339 109.429 79.7339ZM109.429 79.1551C109.808 79.1551 110.129 79.0533 110.392 78.8497C110.654 78.6461 110.853 78.375 110.988 78.0364C111.125 77.6979 111.194 77.325 111.194 76.9178C111.194 76.5106 111.125 76.1366 110.988 75.7957C110.853 75.4548 110.654 75.1813 110.392 74.9754C110.129 74.7694 109.808 74.6664 109.429 74.6664C109.053 74.6664 108.732 74.7694 108.467 74.9754C108.204 75.1813 108.004 75.4548 107.867 75.7957C107.732 76.1366 107.664 76.5106 107.664 76.9178C107.664 77.325 107.732 77.6979 107.867 78.0364C108.004 78.375 108.204 78.6461 108.467 78.8497C108.73 79.0533 109.05 79.1551 109.429 79.1551ZM119.695 75.3624L119.116 75.5258C119.059 75.3624 118.979 75.2145 118.874 75.0819C118.77 74.9493 118.634 74.844 118.466 74.7659C118.3 74.6877 118.094 74.6487 117.848 74.6487C117.479 74.6487 117.176 74.7363 116.939 74.9114C116.702 75.0866 116.584 75.3127 116.584 75.5897C116.584 75.8241 116.664 76.0147 116.825 76.1614C116.989 76.3059 117.24 76.4207 117.578 76.5059L118.402 76.7083C118.859 76.8196 119.201 76.996 119.428 77.2374C119.658 77.4789 119.773 77.7819 119.773 78.1465C119.773 78.4543 119.688 78.7277 119.517 78.9668C119.347 79.206 119.109 79.3942 118.803 79.5315C118.5 79.6664 118.149 79.7339 117.749 79.7339C117.216 79.7339 116.777 79.6143 116.431 79.3752C116.086 79.1337 115.864 78.7857 115.767 78.3312L116.374 78.182C116.452 78.5064 116.605 78.7514 116.832 78.9171C117.062 79.0828 117.364 79.1657 117.738 79.1657C118.157 79.1657 118.492 79.0722 118.743 78.8852C118.994 78.6958 119.119 78.459 119.119 78.1749C119.119 77.9548 119.046 77.7701 118.899 77.621C118.752 77.4694 118.53 77.3582 118.232 77.2872L117.34 77.0741C116.867 76.9605 116.516 76.7805 116.289 76.5343C116.062 76.2881 115.948 75.9827 115.948 75.6181C115.948 75.3175 116.03 75.0535 116.193 74.8262C116.357 74.5966 116.581 74.4167 116.868 74.2864C117.154 74.1562 117.481 74.0911 117.848 74.0911C118.348 74.0911 118.747 74.2048 119.045 74.432C119.345 74.6569 119.562 74.9671 119.695 75.3624ZM122.68 79.7445C122.351 79.7445 122.051 79.6806 121.778 79.5528C121.506 79.4226 121.289 79.2355 121.128 78.9917C120.967 78.7455 120.887 78.4472 120.887 78.0968C120.887 77.8269 120.938 77.5997 121.04 77.415C121.141 77.2303 121.286 77.0788 121.473 76.9605C121.66 76.8421 121.881 76.7486 122.137 76.6799C122.393 76.6113 122.674 76.558 122.982 76.5201C123.288 76.4822 123.546 76.4491 123.756 76.4207C123.969 76.3923 124.132 76.3473 124.243 76.2857C124.354 76.2242 124.41 76.1248 124.41 75.9874V75.8596C124.41 75.4879 124.298 75.1955 124.076 74.9825C123.856 74.767 123.538 74.6593 123.124 74.6593C122.731 74.6593 122.41 74.7457 122.162 74.9185C121.916 75.0914 121.743 75.295 121.643 75.5293L121.043 75.3127C121.166 75.0144 121.337 74.7765 121.555 74.5989C121.772 74.419 122.016 74.29 122.286 74.2119C122.556 74.1314 122.829 74.0911 123.106 74.0911C123.315 74.0911 123.531 74.1184 123.756 74.1728C123.984 74.2273 124.194 74.322 124.388 74.4569C124.582 74.5895 124.74 74.7753 124.861 75.0144C124.981 75.2512 125.042 75.5518 125.042 75.9164V79.6203H124.41V78.7573H124.371C124.295 78.9183 124.182 79.0746 124.033 79.2261C123.884 79.3776 123.697 79.5019 123.472 79.5989C123.247 79.696 122.983 79.7445 122.68 79.7445ZM122.766 79.1657C123.102 79.1657 123.393 79.0911 123.639 78.942C123.885 78.7928 124.075 78.5952 124.207 78.3489C124.342 78.1004 124.41 77.8269 124.41 77.5286V76.7403C124.362 76.7853 124.283 76.8255 124.172 76.861C124.063 76.8965 123.936 76.9285 123.792 76.9569C123.65 76.9829 123.508 77.0054 123.366 77.0244C123.224 77.0433 123.096 77.0599 122.982 77.0741C122.674 77.112 122.412 77.1712 122.194 77.2516C121.976 77.3321 121.809 77.4434 121.693 77.5855C121.577 77.7251 121.519 77.9051 121.519 78.1252C121.519 78.4567 121.637 78.7135 121.874 78.8958C122.111 79.0757 122.408 79.1657 122.766 79.1657ZM130.75 74.1657L128.758 79.6203H128.083L126.091 74.1657H126.777L128.396 78.7857H128.446L130.065 74.1657H130.75ZM133.997 79.7339C133.488 79.7339 133.048 79.6155 132.676 79.3788C132.304 79.1397 132.017 78.8094 131.813 78.388C131.612 77.9642 131.511 77.4766 131.511 76.9249C131.511 76.3757 131.612 75.888 131.813 75.4619C132.017 75.0334 132.297 74.6984 132.655 74.4569C133.014 74.2131 133.43 74.0911 133.901 74.0911C134.197 74.0911 134.482 74.1456 134.757 74.2545C135.031 74.361 135.278 74.5256 135.495 74.7481C135.716 74.9683 135.89 75.2464 136.017 75.5826C136.145 75.9164 136.209 76.3118 136.209 76.7687V77.0812H131.948V76.5237H135.563C135.563 76.1733 135.492 75.8584 135.35 75.5791C135.21 75.2973 135.015 75.0748 134.764 74.9114C134.515 74.7481 134.228 74.6664 133.901 74.6664C133.555 74.6664 133.251 74.7587 132.988 74.9434C132.726 75.1281 132.52 75.3719 132.37 75.6749C132.224 75.978 132.149 76.3094 132.147 76.6693V77.0031C132.147 77.4363 132.221 77.8151 132.37 78.1394C132.522 78.4614 132.736 78.7112 133.013 78.8887C133.29 79.0663 133.618 79.1551 133.997 79.1551C134.255 79.1551 134.481 79.1148 134.675 79.0343C134.872 78.9538 135.036 78.8461 135.169 78.7112C135.304 78.5739 135.405 78.4235 135.474 78.2602L136.074 78.4555C135.991 78.6851 135.855 78.897 135.666 79.0911C135.479 79.2853 135.244 79.4415 134.963 79.5599C134.683 79.6759 134.361 79.7339 133.997 79.7339ZM140.415 79.6203V74.1657H141.029V75.0038H141.086C141.195 74.7221 141.376 74.5007 141.629 74.3397C141.885 74.1764 142.191 74.0947 142.549 74.0947C142.925 74.0947 143.234 74.1835 143.476 74.361C143.72 74.5362 143.902 74.7777 144.023 75.0855H144.069C144.192 74.7824 144.392 74.5421 144.669 74.3646C144.948 74.1846 145.287 74.0947 145.685 74.0947C146.191 74.0947 146.591 74.2545 146.885 74.5741C147.178 74.8913 147.325 75.3553 147.325 75.9661V79.6203H146.693V75.9661C146.693 75.5353 146.583 75.2121 146.363 74.9967C146.143 74.7812 145.853 74.6735 145.493 74.6735C145.076 74.6735 144.755 74.8014 144.53 75.057C144.306 75.3127 144.193 75.6371 144.193 76.0301V79.6203H143.547V75.9093C143.547 75.54 143.444 75.2417 143.238 75.0144C143.032 74.7872 142.742 74.6735 142.368 74.6735C142.117 74.6735 141.891 74.7351 141.69 74.8582C141.491 74.9813 141.333 75.1529 141.217 75.3731C141.104 75.5909 141.047 75.8418 141.047 76.1259V79.6203H140.415ZM151.119 79.7339C150.648 79.7339 150.231 79.6143 149.869 79.3752C149.509 79.1361 149.227 78.8059 149.023 78.3845C148.82 77.9607 148.718 77.4718 148.718 76.9178C148.718 76.3591 148.82 75.8679 149.023 75.4441C149.227 75.018 149.509 74.6865 149.869 74.4498C150.231 74.2107 150.648 74.0911 151.119 74.0911C151.59 74.0911 152.005 74.2107 152.365 74.4498C152.725 74.6889 153.007 75.0203 153.21 75.4441C153.416 75.8679 153.519 76.3591 153.519 76.9178C153.519 77.4718 153.417 77.9607 153.214 78.3845C153.01 78.8059 152.727 79.1361 152.365 79.3752C152.005 79.6143 151.59 79.7339 151.119 79.7339ZM151.119 79.1551C151.497 79.1551 151.818 79.0533 152.081 78.8497C152.344 78.6461 152.543 78.375 152.678 78.0364C152.815 77.6979 152.884 77.325 152.884 76.9178C152.884 76.5106 152.815 76.1366 152.678 75.7957C152.543 75.4548 152.344 75.1813 152.081 74.9754C151.818 74.7694 151.497 74.6664 151.119 74.6664C150.742 74.6664 150.421 74.7694 150.156 74.9754C149.894 75.1813 149.693 75.4548 149.556 75.7957C149.421 76.1366 149.354 76.5106 149.354 76.9178C149.354 77.325 149.421 77.6979 149.556 78.0364C149.693 78.375 149.894 78.6461 150.156 78.8497C150.419 79.0533 150.74 79.1551 151.119 79.1551ZM155.539 76.2112V79.6203H154.907V74.1657H155.521V75.0215H155.578C155.706 74.7422 155.905 74.5185 156.175 74.3504C156.447 74.1799 156.783 74.0947 157.183 74.0947C157.55 74.0947 157.872 74.1716 158.149 74.3255C158.428 74.477 158.645 74.7007 158.799 74.9967C158.955 75.2926 159.033 75.656 159.033 76.0869V79.6203H158.401V76.1259C158.401 75.6785 158.276 75.3246 158.025 75.0641C157.776 74.8037 157.442 74.6735 157.023 74.6735C156.737 74.6735 156.482 74.7351 156.26 74.8582C156.037 74.9813 155.861 75.1588 155.731 75.3909C155.603 75.6205 155.539 75.8939 155.539 76.2112ZM162.903 79.7339C162.394 79.7339 161.954 79.6155 161.582 79.3788C161.21 79.1397 160.923 78.8094 160.719 78.388C160.518 77.9642 160.417 77.4766 160.417 76.9249C160.417 76.3757 160.518 75.888 160.719 75.4619C160.923 75.0334 161.203 74.6984 161.561 74.4569C161.921 74.2131 162.336 74.0911 162.807 74.0911C163.103 74.0911 163.388 74.1456 163.663 74.2545C163.938 74.361 164.184 74.5256 164.402 74.7481C164.622 74.9683 164.796 75.2464 164.924 75.5826C165.052 75.9164 165.115 76.3118 165.115 76.7687V77.0812H160.854V76.5237H164.469C164.469 76.1733 164.398 75.8584 164.256 75.5791C164.116 75.2973 163.921 75.0748 163.67 74.9114C163.422 74.7481 163.134 74.6664 162.807 74.6664C162.462 74.6664 162.157 74.7587 161.895 74.9434C161.632 75.1281 161.426 75.3719 161.277 75.6749C161.13 75.978 161.055 76.3094 161.053 76.6693V77.0031C161.053 77.4363 161.128 77.8151 161.277 78.1394C161.428 78.4614 161.642 78.7112 161.919 78.8887C162.196 79.0663 162.524 79.1551 162.903 79.1551C163.161 79.1551 163.387 79.1148 163.581 79.0343C163.778 78.9538 163.942 78.8461 164.075 78.7112C164.21 78.5739 164.312 78.4235 164.38 78.2602L164.981 78.4555C164.898 78.6851 164.762 78.897 164.572 79.0911C164.385 79.2853 164.151 79.4415 163.869 79.5599C163.59 79.6759 163.268 79.7339 162.903 79.7339ZM166.783 81.6657C166.657 81.6657 166.54 81.6539 166.431 81.6302C166.322 81.6065 166.236 81.5805 166.172 81.5521L166.342 80.9945C166.558 81.0608 166.75 81.0845 166.918 81.0656C167.086 81.049 167.235 80.9732 167.365 80.8383C167.495 80.7057 167.611 80.5021 167.713 80.2275L167.912 79.6735L165.906 74.1657H166.591L168.21 78.7857H168.26L169.879 74.1657H170.565L168.256 80.4832C168.159 80.746 168.04 80.965 167.898 81.1401C167.756 81.3177 167.591 81.4491 167.404 81.5343C167.22 81.6219 167.012 81.6657 166.783 81.6657Z" fill="black" style="fill:black;fill:black;fill-opacity:1;"/>
<path d="M118.068 13.3291V25.9873M114.801 23.0148L115.758 23.7099C117.034 24.6371 119.102 24.6371 120.378 23.7099C121.654 22.7827 121.654 21.2806 120.378 20.3534C119.741 19.8892 118.905 19.6582 118.068 19.6582C117.279 19.6582 116.489 19.4262 115.887 18.9631C114.682 18.0359 114.682 16.5338 115.887 15.6065C117.091 14.6793 119.045 14.6793 120.25 15.6065L120.701 15.9546M127.869 19.6582C127.869 20.905 127.616 22.1395 127.123 23.2913C126.631 24.4431 125.909 25.4897 124.999 26.3713C124.089 27.2528 123.008 27.9521 121.819 28.4292C120.63 28.9063 119.355 29.1519 118.068 29.1519C116.781 29.1519 115.507 28.9063 114.317 28.4292C113.128 27.9521 112.048 27.2528 111.138 26.3713C110.228 25.4897 109.506 24.4431 109.013 23.2913C108.521 22.1395 108.267 20.905 108.267 19.6582C108.267 17.1404 109.3 14.7256 111.138 12.9452C112.976 11.1648 115.469 10.1646 118.068 10.1646C120.668 10.1646 123.161 11.1648 124.999 12.9452C126.837 14.7256 127.869 17.1404 127.869 19.6582Z" stroke="black" style="stroke:black;stroke:black;stroke-opacity:1;" stroke-width="1.5" stroke-linecap="round" stroke-linejoin="round"/>
<defs>
<filter id="filter0_i_13_210" x="0" y="0" width="230" height="104" filterUnits="userSpaceOnUse" color-interpolation-filters="sRGB">
<feFlood flood-opacity="0" result="BackgroundImageFix"/>
<feBlend mode="normal" in="SourceGraphic" in2="BackgroundImageFix" result="shape"/>
<feColorMatrix in="SourceAlpha" type="matrix" values="0 0 0 0 0 0 0 0 0 0 0 0 0 0 0 0 0 0 127 0" result="hardAlpha"/>
<feOffset dy="4"/>
<feGaussianBlur stdDeviation="2"/>
<feComposite in2="hardAlpha" operator="arithmetic" k2="-1" k3="1"/>
<feColorMatrix type="matrix" values="0 0 0 0 0 0 0 0 0 0 0 0 0 0 0 0 0 0 0.25 0"/>
<feBlend mode="normal" in2="shape" result="effect1_innerShadow_13_210"/>
</filter>
</defs>
</svg>
