<svg width="195" height="40" viewBox="0 0 195 40" fill="none" xmlns="http://www.w3.org/2000/svg">
<g filter="url(#filter0_ii_7_147)">
<rect width="195" height="40" rx="20" fill="#CBC1DC" style="fill:#CBC1DC;fill:color(display-p3 0.7961 0.7569 0.8627);fill-opacity:1;"/>
</g>
<path d="M59.8338 15.7784C59.777 15.1534 59.5241 14.6676 59.0753 14.321C58.6321 13.9688 57.9986 13.7926 57.1747 13.7926C56.6293 13.7926 56.1747 13.8636 55.8111 14.0057C55.4474 14.1477 55.1747 14.3438 54.9929 14.5938C54.8111 14.8381 54.7173 15.1193 54.7116 15.4375C54.7003 15.6989 54.7514 15.929 54.8651 16.1278C54.9844 16.3267 55.1548 16.5028 55.3764 16.6562C55.6037 16.804 55.8764 16.9347 56.1946 17.0483C56.5128 17.1619 56.8707 17.2614 57.2685 17.3466L58.7685 17.6875C59.6321 17.875 60.3935 18.125 61.0526 18.4375C61.7173 18.75 62.2741 19.1222 62.723 19.554C63.1776 19.9858 63.5213 20.483 63.7543 21.0455C63.9872 21.608 64.1065 22.2386 64.1122 22.9375C64.1065 24.0398 63.8281 24.9858 63.277 25.7756C62.7259 26.5653 61.9332 27.1705 60.8991 27.5909C59.8707 28.0114 58.6293 28.2216 57.1747 28.2216C55.7145 28.2216 54.4418 28.0028 53.3565 27.5653C52.2713 27.1278 51.4276 26.4631 50.8253 25.571C50.223 24.679 49.9134 23.5511 49.8963 22.1875H53.9361C53.9702 22.75 54.1207 23.2188 54.3878 23.5938C54.6548 23.9688 55.0213 24.2528 55.4872 24.446C55.9588 24.6392 56.5043 24.7358 57.1236 24.7358C57.6918 24.7358 58.1747 24.6591 58.5724 24.5057C58.9759 24.3523 59.2855 24.1392 59.5014 23.8665C59.7173 23.5937 59.8281 23.2812 59.8338 22.929C59.8281 22.5994 59.7259 22.3182 59.527 22.0852C59.3281 21.8466 59.0213 21.642 58.6065 21.4716C58.1974 21.2955 57.6747 21.1335 57.0384 20.9858L55.2145 20.5597C53.7031 20.2131 52.5128 19.6534 51.6435 18.8807C50.7741 18.1023 50.3423 17.0511 50.348 15.7273C50.3423 14.6477 50.6321 13.7017 51.2173 12.8892C51.8026 12.0767 52.6122 11.4432 53.6463 10.9886C54.6804 10.5341 55.8594 10.3068 57.1832 10.3068C58.5355 10.3068 59.7088 10.5369 60.7031 10.9972C61.7031 11.4517 62.4787 12.0909 63.0298 12.9148C63.581 13.7386 63.8622 14.6932 63.8736 15.7784H59.8338ZM70.4616 10.5455V28H66.2429V10.5455H70.4616ZM84.5646 16.2472C84.468 15.8892 84.326 15.5739 84.1385 15.3011C83.951 15.0227 83.7209 14.7869 83.4482 14.5938C83.1754 14.4006 82.8629 14.2557 82.5107 14.1591C82.1584 14.0568 81.772 14.0057 81.3516 14.0057C80.505 14.0057 79.772 14.2102 79.1527 14.6193C78.5391 15.0284 78.0646 15.625 77.7294 16.4091C77.3942 17.1875 77.2266 18.1335 77.2266 19.2472C77.2266 20.3665 77.3885 21.321 77.7124 22.1108C78.0362 22.9006 78.505 23.5028 79.1186 23.9176C79.7322 24.3324 80.4766 24.5398 81.3516 24.5398C82.1243 24.5398 82.7777 24.4148 83.3118 24.1648C83.8516 23.9091 84.2607 23.5483 84.5391 23.0824C84.8175 22.6165 84.9567 22.0682 84.9567 21.4375L85.7408 21.5312H81.4964V18.4545H89.022V20.7642C89.022 22.3267 88.6896 23.6648 88.0249 24.7784C87.3658 25.892 86.4567 26.7472 85.2976 27.3438C84.1442 27.9403 82.8175 28.2386 81.3175 28.2386C79.6527 28.2386 78.1896 27.8778 76.9283 27.1562C75.6669 26.4347 74.6839 25.4062 73.9794 24.071C73.2749 22.7301 72.9226 21.1392 72.9226 19.2983C72.9226 17.8665 73.1357 16.5966 73.5618 15.4886C73.9879 14.375 74.5817 13.4318 75.343 12.6591C76.1101 11.8864 76.9964 11.3011 78.0021 10.9034C79.0135 10.5057 80.1016 10.3068 81.2663 10.3068C82.2777 10.3068 83.218 10.4517 84.0874 10.7415C84.9624 11.0312 85.7351 11.4403 86.4055 11.9688C87.0817 12.4972 87.63 13.125 88.0504 13.8523C88.4709 14.5795 88.7322 15.3778 88.8345 16.2472H84.5646ZM106.364 10.5455V28H102.784L95.8381 17.9261H95.7273V28H91.5085V10.5455H95.1392L102.009 20.6023H102.153V10.5455H106.364ZM124.732 10.5455H128.942V21.804C128.942 23.1051 128.633 24.2386 128.013 25.2045C127.394 26.1648 126.531 26.9091 125.423 27.4375C124.315 27.9602 123.028 28.2216 121.562 28.2216C120.079 28.2216 118.783 27.9602 117.675 27.4375C116.567 26.9091 115.707 26.1648 115.093 25.2045C114.479 24.2386 114.173 23.1051 114.173 21.804V10.5455H118.391V21.4375C118.391 22.0398 118.522 22.5767 118.783 23.0483C119.05 23.5199 119.423 23.8892 119.9 24.1562C120.377 24.4233 120.931 24.5568 121.562 24.5568C122.192 24.5568 122.744 24.4233 123.215 24.1562C123.692 23.8892 124.065 23.5199 124.332 23.0483C124.599 22.5767 124.732 22.0398 124.732 21.4375V10.5455ZM131.587 28V10.5455H138.797C140.104 10.5455 141.232 10.8011 142.18 11.3125C143.135 11.8182 143.871 12.5256 144.388 13.4347C144.905 14.3381 145.163 15.3892 145.163 16.5881C145.163 17.7926 144.899 18.8466 144.371 19.75C143.848 20.6477 143.101 21.3437 142.129 21.8381C141.158 22.3324 140.004 22.5795 138.669 22.5795H134.22V19.2557H137.885C138.521 19.2557 139.053 19.1449 139.479 18.9233C139.911 18.7017 140.237 18.392 140.459 17.9943C140.68 17.5909 140.791 17.1222 140.791 16.5881C140.791 16.0483 140.68 15.5824 140.459 15.1903C140.237 14.7926 139.911 14.4858 139.479 14.2699C139.047 14.054 138.516 13.946 137.885 13.946H135.805V28H131.587Z" fill="white" style="fill:white;fill:white;fill-opacity:1;"/>
<defs>
<filter id="filter0_ii_7_147" x="0" y="0" width="195" height="44" filterUnits="userSpaceOnUse" color-interpolation-filters="sRGB">
<feFlood flood-opacity="0" result="BackgroundImageFix"/>
<feBlend mode="normal" in="SourceGraphic" in2="BackgroundImageFix" result="shape"/>
<feColorMatrix in="SourceAlpha" type="matrix" values="0 0 0 0 0 0 0 0 0 0 0 0 0 0 0 0 0 0 127 0" result="hardAlpha"/>
<feOffset dy="4"/>
<feGaussianBlur stdDeviation="2"/>
<feComposite in2="hardAlpha" operator="arithmetic" k2="-1" k3="1"/>
<feColorMatrix type="matrix" values="0 0 0 0 0 0 0 0 0 0 0 0 0 0 0 0 0 0 0.25 0"/>
<feBlend mode="normal" in2="shape" result="effect1_innerShadow_7_147"/>
<feColorMatrix in="SourceAlpha" type="matrix" values="0 0 0 0 0 0 0 0 0 0 0 0 0 0 0 0 0 0 127 0" result="hardAlpha"/>
<feOffset dy="4"/>
<feGaussianBlur stdDeviation="2"/>
<feComposite in2="hardAlpha" operator="arithmetic" k2="-1" k3="1"/>
<feColorMatrix type="matrix" values="0 0 0 0 0 0 0 0 0 0 0 0 0 0 0 0 0 0 0.25 0"/>
<feBlend mode="normal" in2="effect1_innerShadow_7_147" result="effect2_innerShadow_7_147"/>
</filter>
</defs>
</svg>
