<svg width="203" height="48" viewBox="0 0 203 48" fill="none" xmlns="http://www.w3.org/2000/svg">
<g filter="url(#filter0_d_7_144)">
<rect x="4" width="195" height="40" rx="20" fill="#CBC1DC" style="fill:#CBC1DC;fill:color(display-p3 0.7961 0.7569 0.8627);fill-opacity:1;"/>
</g>
<path d="M63.8338 15.7784C63.777 15.1534 63.5241 14.6676 63.0753 14.321C62.6321 13.9688 61.9986 13.7926 61.1747 13.7926C60.6293 13.7926 60.1747 13.8636 59.8111 14.0057C59.4474 14.1477 59.1747 14.3438 58.9929 14.5938C58.8111 14.8381 58.7173 15.1193 58.7116 15.4375C58.7003 15.6989 58.7514 15.929 58.8651 16.1278C58.9844 16.3267 59.1548 16.5028 59.3764 16.6562C59.6037 16.804 59.8764 16.9347 60.1946 17.0483C60.5128 17.1619 60.8707 17.2614 61.2685 17.3466L62.7685 17.6875C63.6321 17.875 64.3935 18.125 65.0526 18.4375C65.7173 18.75 66.2741 19.1222 66.723 19.554C67.1776 19.9858 67.5213 20.483 67.7543 21.0455C67.9872 21.608 68.1065 22.2386 68.1122 22.9375C68.1065 24.0398 67.8281 24.9858 67.277 25.7756C66.7259 26.5653 65.9332 27.1705 64.8991 27.5909C63.8707 28.0114 62.6293 28.2216 61.1747 28.2216C59.7145 28.2216 58.4418 28.0028 57.3565 27.5653C56.2713 27.1278 55.4276 26.4631 54.8253 25.571C54.223 24.679 53.9134 23.5511 53.8963 22.1875H57.9361C57.9702 22.75 58.1207 23.2188 58.3878 23.5938C58.6548 23.9688 59.0213 24.2528 59.4872 24.446C59.9588 24.6392 60.5043 24.7358 61.1236 24.7358C61.6918 24.7358 62.1747 24.6591 62.5724 24.5057C62.9759 24.3523 63.2855 24.1392 63.5014 23.8665C63.7173 23.5937 63.8281 23.2812 63.8338 22.929C63.8281 22.5994 63.7259 22.3182 63.527 22.0852C63.3281 21.8466 63.0213 21.642 62.6065 21.4716C62.1974 21.2955 61.6747 21.1335 61.0384 20.9858L59.2145 20.5597C57.7031 20.2131 56.5128 19.6534 55.6435 18.8807C54.7741 18.1023 54.3423 17.0511 54.348 15.7273C54.3423 14.6477 54.6321 13.7017 55.2173 12.8892C55.8026 12.0767 56.6122 11.4432 57.6463 10.9886C58.6804 10.5341 59.8594 10.3068 61.1832 10.3068C62.5355 10.3068 63.7088 10.5369 64.7031 10.9972C65.7031 11.4517 66.4787 12.0909 67.0298 12.9148C67.581 13.7386 67.8622 14.6932 67.8736 15.7784H63.8338ZM74.4616 10.5455V28H70.2429V10.5455H74.4616ZM88.5646 16.2472C88.468 15.8892 88.326 15.5739 88.1385 15.3011C87.951 15.0227 87.7209 14.7869 87.4482 14.5938C87.1754 14.4006 86.8629 14.2557 86.5107 14.1591C86.1584 14.0568 85.772 14.0057 85.3516 14.0057C84.505 14.0057 83.772 14.2102 83.1527 14.6193C82.5391 15.0284 82.0646 15.625 81.7294 16.4091C81.3942 17.1875 81.2266 18.1335 81.2266 19.2472C81.2266 20.3665 81.3885 21.321 81.7124 22.1108C82.0362 22.9006 82.505 23.5028 83.1186 23.9176C83.7322 24.3324 84.4766 24.5398 85.3516 24.5398C86.1243 24.5398 86.7777 24.4148 87.3118 24.1648C87.8516 23.9091 88.2607 23.5483 88.5391 23.0824C88.8175 22.6165 88.9567 22.0682 88.9567 21.4375L89.7408 21.5312H85.4964V18.4545H93.022V20.7642C93.022 22.3267 92.6896 23.6648 92.0249 24.7784C91.3658 25.892 90.4567 26.7472 89.2976 27.3438C88.1442 27.9403 86.8175 28.2386 85.3175 28.2386C83.6527 28.2386 82.1896 27.8778 80.9283 27.1562C79.6669 26.4347 78.6839 25.4062 77.9794 24.071C77.2749 22.7301 76.9226 21.1392 76.9226 19.2983C76.9226 17.8665 77.1357 16.5966 77.5618 15.4886C77.9879 14.375 78.5817 13.4318 79.343 12.6591C80.1101 11.8864 80.9964 11.3011 82.0021 10.9034C83.0135 10.5057 84.1016 10.3068 85.2663 10.3068C86.2777 10.3068 87.218 10.4517 88.0874 10.7415C88.9624 11.0312 89.7351 11.4403 90.4055 11.9688C91.0817 12.4972 91.63 13.125 92.0504 13.8523C92.4709 14.5795 92.7322 15.3778 92.8345 16.2472H88.5646ZM110.364 10.5455V28H106.784L99.8381 17.9261H99.7273V28H95.5085V10.5455H99.1392L106.009 20.6023H106.153V10.5455H110.364ZM128.732 10.5455H132.942V21.804C132.942 23.1051 132.633 24.2386 132.013 25.2045C131.394 26.1648 130.531 26.9091 129.423 27.4375C128.315 27.9602 127.028 28.2216 125.562 28.2216C124.079 28.2216 122.783 27.9602 121.675 27.4375C120.567 26.9091 119.707 26.1648 119.093 25.2045C118.479 24.2386 118.173 23.1051 118.173 21.804V10.5455H122.391V21.4375C122.391 22.0398 122.522 22.5767 122.783 23.0483C123.05 23.5199 123.423 23.8892 123.9 24.1562C124.377 24.4233 124.931 24.5568 125.562 24.5568C126.192 24.5568 126.744 24.4233 127.215 24.1562C127.692 23.8892 128.065 23.5199 128.332 23.0483C128.599 22.5767 128.732 22.0398 128.732 21.4375V10.5455ZM135.587 28V10.5455H142.797C144.104 10.5455 145.232 10.8011 146.18 11.3125C147.135 11.8182 147.871 12.5256 148.388 13.4347C148.905 14.3381 149.163 15.3892 149.163 16.5881C149.163 17.7926 148.899 18.8466 148.371 19.75C147.848 20.6477 147.101 21.3437 146.129 21.8381C145.158 22.3324 144.004 22.5795 142.669 22.5795H138.22V19.2557H141.885C142.521 19.2557 143.053 19.1449 143.479 18.9233C143.911 18.7017 144.237 18.392 144.459 17.9943C144.68 17.5909 144.791 17.1222 144.791 16.5881C144.791 16.0483 144.68 15.5824 144.459 15.1903C144.237 14.7926 143.911 14.4858 143.479 14.2699C143.047 14.054 142.516 13.946 141.885 13.946H139.805V28H135.587Z" fill="white" style="fill:white;fill:white;fill-opacity:1;"/>
<defs>
<filter id="filter0_d_7_144" x="0" y="0" width="203" height="48" filterUnits="userSpaceOnUse" color-interpolation-filters="sRGB">
<feFlood flood-opacity="0" result="BackgroundImageFix"/>
<feColorMatrix in="SourceAlpha" type="matrix" values="0 0 0 0 0 0 0 0 0 0 0 0 0 0 0 0 0 0 127 0" result="hardAlpha"/>
<feOffset dy="4"/>
<feGaussianBlur stdDeviation="2"/>
<feComposite in2="hardAlpha" operator="out"/>
<feColorMatrix type="matrix" values="0 0 0 0 0 0 0 0 0 0 0 0 0 0 0 0 0 0 0.25 0"/>
<feBlend mode="normal" in2="BackgroundImageFix" result="effect1_dropShadow_7_144"/>
<feBlend mode="normal" in="SourceGraphic" in2="effect1_dropShadow_7_144" result="shape"/>
</filter>
</defs>
</svg>
