<svg width="238" height="108" viewBox="0 0 238 108" fill="none" xmlns="http://www.w3.org/2000/svg">
<g filter="url(#filter0_d_14_256)">
<path d="M83.6623 54.6456V37.191H87.881V51.2194H95.1424V54.6456H83.6623ZM113.121 45.9183C113.121 47.8388 112.752 49.4666 112.013 50.8018C111.275 52.137 110.275 53.1513 109.013 53.8444C107.757 54.5376 106.348 54.8842 104.786 54.8842C103.218 54.8842 101.806 54.5348 100.55 53.8359C99.2944 53.137 98.2972 52.1228 97.5586 50.7933C96.8256 49.4581 96.4592 47.8331 96.4592 45.9183C96.4592 43.9978 96.8256 42.37 97.5586 41.0348C98.2972 39.6995 99.2944 38.6853 100.55 37.9922C101.806 37.299 103.218 36.9524 104.786 36.9524C106.348 36.9524 107.757 37.299 109.013 37.9922C110.275 38.6853 111.275 39.6995 112.013 41.0348C112.752 42.37 113.121 43.9978 113.121 45.9183ZM108.809 45.9183C108.809 44.7819 108.647 43.8217 108.323 43.0376C108.005 42.2535 107.544 41.6598 106.942 41.2564C106.346 40.853 105.627 40.6512 104.786 40.6512C103.951 40.6512 103.232 40.853 102.63 41.2564C102.027 41.6598 101.564 42.2535 101.24 43.0376C100.922 43.8217 100.763 44.7819 100.763 45.9183C100.763 47.0547 100.922 48.0149 101.24 48.799C101.564 49.5831 102.027 50.1768 102.63 50.5802C103.232 50.9836 103.951 51.1853 104.786 51.1853C105.627 51.1853 106.346 50.9836 106.942 50.5802C107.544 50.1768 108.005 49.5831 108.323 48.799C108.647 48.0149 108.809 47.0547 108.809 45.9183ZM127.039 42.8927C126.942 42.5348 126.8 42.2194 126.613 41.9467C126.425 41.6683 126.195 41.4325 125.922 41.2393C125.65 41.0461 125.337 40.9013 124.985 40.8047C124.632 40.7024 124.246 40.6512 123.826 40.6512C122.979 40.6512 122.246 40.8558 121.627 41.2649C121.013 41.674 120.539 42.2706 120.203 43.0547C119.868 43.8331 119.701 44.7791 119.701 45.8927C119.701 47.012 119.863 47.9666 120.186 48.7564C120.51 49.5461 120.979 50.1484 121.593 50.5632C122.206 50.978 122.951 51.1853 123.826 51.1853C124.598 51.1853 125.252 51.0603 125.786 50.8103C126.326 50.5547 126.735 50.1939 127.013 49.728C127.292 49.262 127.431 48.7138 127.431 48.0831L128.215 48.1768H123.971V45.1001H131.496V47.4098C131.496 48.9723 131.164 50.3103 130.499 51.424C129.84 52.5376 128.931 53.3927 127.772 53.9893C126.618 54.5859 125.292 54.8842 123.792 54.8842C122.127 54.8842 120.664 54.5234 119.402 53.8018C118.141 53.0802 117.158 52.0518 116.453 50.7166C115.749 49.3757 115.397 47.7848 115.397 45.9439C115.397 44.512 115.61 43.2422 116.036 42.1342C116.462 41.0206 117.056 40.0774 117.817 39.3047C118.584 38.5319 119.471 37.9467 120.476 37.549C121.488 37.1512 122.576 36.9524 123.74 36.9524C124.752 36.9524 125.692 37.0973 126.561 37.387C127.436 37.6768 128.209 38.0859 128.88 38.6143C129.556 39.1427 130.104 39.7706 130.525 40.4978C130.945 41.2251 131.206 42.0234 131.309 42.8927H127.039ZM143.358 37.191V54.6456H139.139V37.191H143.358ZM160.861 37.191V54.6456H157.282L150.336 44.5717H150.225V54.6456H146.006V37.191H149.637L156.506 47.2478H156.651V37.191H160.861Z" fill="white" style="fill:white;fill:white;fill-opacity:1;"/>
<g filter="url(#filter1_d_14_256)">
<rect x="4" width="230" height="100" rx="25" fill="#E2EFF0" style="fill:#E2EFF0;fill:color(display-p3 0.8867 0.9362 0.9430);fill-opacity:1;"/>
</g>
</g>
<path d="M60.4788 61L55.1166 42.8182H60.6208L63.1066 54.0043H63.2487L66.1961 42.8182H70.5285L73.4759 54.0398H73.618L76.1038 42.8182H81.608L76.2458 61H71.5228L68.4333 50.8438H68.2913L65.2018 61H60.4788ZM99.6722 51.9091C99.6722 53.9332 99.2786 55.6407 98.4915 57.0316C97.7043 58.4165 96.6419 59.4671 95.3043 60.1832C93.9667 60.8935 92.4753 61.2486 90.8299 61.2486C89.1727 61.2486 87.6753 60.8905 86.3377 60.1744C85.006 59.4523 83.9466 58.3988 83.1594 57.0138C82.3782 55.623 81.9876 53.9214 81.9876 51.9091C81.9876 49.8849 82.3782 48.1804 83.1594 46.7955C83.9466 45.4046 85.006 44.354 86.3377 43.6438C87.6753 42.9277 89.1727 42.5696 90.8299 42.5696C92.4753 42.5696 93.9667 42.9277 95.3043 43.6438C96.6419 44.354 97.7043 45.4046 98.4915 46.7955C99.2786 48.1804 99.6722 49.8849 99.6722 51.9091ZM94.5941 51.9091C94.5941 50.8201 94.4491 49.9027 94.1591 49.157C93.875 48.4053 93.4518 47.8371 92.8896 47.4524C92.3332 47.0618 91.6467 46.8665 90.8299 46.8665C90.0131 46.8665 89.3236 47.0618 88.7614 47.4524C88.205 47.8371 87.7818 48.4053 87.4918 49.157C87.2077 49.9027 87.0657 50.8201 87.0657 51.9091C87.0657 52.9981 87.2077 53.9184 87.4918 54.6701C87.7818 55.4158 88.205 55.984 88.7614 56.3746C89.3236 56.7594 90.0131 56.9517 90.8299 56.9517C91.6467 56.9517 92.3332 56.7594 92.8896 56.3746C93.4518 55.984 93.875 55.4158 94.1591 54.6701C94.4491 53.9184 94.5941 52.9981 94.5941 51.9091ZM101.956 61V42.8182H109.804C111.153 42.8182 112.334 43.0638 113.346 43.555C114.358 44.0463 115.146 44.7536 115.708 45.6768C116.27 46.6001 116.551 47.7069 116.551 48.9972C116.551 50.2992 116.261 51.3971 115.681 52.2908C115.107 53.1845 114.299 53.8593 113.258 54.315C112.222 54.7707 111.011 54.9986 109.627 54.9986H104.939V51.1634H108.632C109.212 51.1634 109.706 51.0923 110.115 50.9503C110.529 50.8023 110.846 50.5685 111.065 50.2489C111.29 49.9293 111.402 49.5121 111.402 48.9972C111.402 48.4763 111.29 48.0531 111.065 47.7276C110.846 47.3962 110.529 47.1535 110.115 46.9996C109.706 46.8398 109.212 46.7599 108.632 46.7599H106.892V61H101.956ZM112.609 52.6548L117.155 61H111.793L107.354 52.6548H112.609ZM118.655 61V42.8182H123.591V50.169H123.84L129.309 42.8182H135.062L128.918 50.9148L135.204 61H129.309L125.225 54.1818L123.591 56.3125V61H118.655ZM152.993 51.9091C152.993 53.9332 152.599 55.6407 151.812 57.0316C151.025 58.4165 149.962 59.4671 148.625 60.1832C147.287 60.8935 145.796 61.2486 144.15 61.2486C142.493 61.2486 140.996 60.8905 139.658 60.1744C138.326 59.4523 137.267 58.3988 136.48 57.0138C135.699 55.623 135.308 53.9214 135.308 51.9091C135.308 49.8849 135.699 48.1804 136.48 46.7955C137.267 45.4046 138.326 44.354 139.658 43.6438C140.996 42.9277 142.493 42.5696 144.15 42.5696C145.796 42.5696 147.287 42.9277 148.625 43.6438C149.962 44.354 151.025 45.4046 151.812 46.7955C152.599 48.1804 152.993 49.8849 152.993 51.9091ZM147.914 51.9091C147.914 50.8201 147.769 49.9027 147.479 49.157C147.195 48.4053 146.772 47.8371 146.21 47.4524C145.654 47.0618 144.967 46.8665 144.15 46.8665C143.333 46.8665 142.644 47.0618 142.082 47.4524C141.525 47.8371 141.102 48.4053 140.812 49.157C140.528 49.9027 140.386 50.8201 140.386 51.9091C140.386 52.9981 140.528 53.9184 140.812 54.6701C141.102 55.4158 141.525 55.984 142.082 56.3746C142.644 56.7594 143.333 56.9517 144.15 56.9517C144.967 56.9517 145.654 56.7594 146.21 56.3746C146.772 55.984 147.195 55.4158 147.479 54.6701C147.769 53.9184 147.914 52.9981 147.914 51.9091ZM166.036 42.8182H170.972V54.4659C170.972 55.8509 170.641 57.0494 169.978 58.0614C169.321 59.0676 168.404 59.8459 167.226 60.3963C166.048 60.9408 164.681 61.2131 163.124 61.2131C161.556 61.2131 160.183 60.9408 159.005 60.3963C157.827 59.8459 156.91 59.0676 156.253 58.0614C155.602 57.0494 155.276 55.8509 155.276 54.4659V42.8182H160.212V54.0398C160.212 54.602 160.337 55.1051 160.585 55.549C160.834 55.987 161.177 56.3303 161.615 56.5788C162.059 56.8274 162.562 56.9517 163.124 56.9517C163.693 56.9517 164.196 56.8274 164.634 56.5788C165.072 56.3303 165.415 55.987 165.663 55.549C165.912 55.1051 166.036 54.602 166.036 54.0398V42.8182ZM172.821 46.7955V42.8182H188.624V46.7955H183.155V61H178.29V46.7955H172.821Z" fill="black" style="fill:black;fill:black;fill-opacity:1;"/>
<path d="M59.0643 76.4937H58.3967C58.3469 76.2451 58.257 76.0155 58.1268 75.8048C57.9989 75.5917 57.8379 75.4059 57.6438 75.2472C57.4497 75.0886 57.2295 74.9655 56.9833 74.8779C56.7371 74.7903 56.4708 74.7465 56.1843 74.7465C55.725 74.7465 55.306 74.8661 54.9272 75.1052C54.5508 75.3443 54.2489 75.6959 54.0217 76.1599C53.7967 76.6215 53.6843 77.1873 53.6843 77.8573C53.6843 78.532 53.7967 79.1002 54.0217 79.5619C54.2489 80.0235 54.5508 80.3739 54.9272 80.613C55.306 80.8497 55.725 80.9681 56.1843 80.9681C56.4708 80.9681 56.7371 80.9243 56.9833 80.8367C57.2295 80.7491 57.4497 80.6272 57.6438 80.471C57.8379 80.3123 57.9989 80.1265 58.1268 79.9134C58.257 79.7004 58.3469 79.4695 58.3967 79.221H59.0643C59.0051 79.5548 58.8938 79.8661 58.7305 80.1549C58.5695 80.4414 58.3635 80.6923 58.1126 80.9077C57.864 81.1232 57.5775 81.2913 57.2532 81.412C56.9289 81.5327 56.5726 81.5931 56.1843 81.5931C55.5735 81.5931 55.0314 81.4404 54.5579 81.135C54.0844 80.8273 53.7127 80.394 53.4428 79.8353C53.1753 79.2766 53.0415 78.6173 53.0415 77.8573C53.0415 77.0974 53.1753 76.438 53.4428 75.8793C53.7127 75.3206 54.0844 74.8886 54.5579 74.5832C55.0314 74.2754 55.5735 74.1215 56.1843 74.1215C56.5726 74.1215 56.9289 74.1819 57.2532 74.3026C57.5775 74.421 57.864 74.5891 58.1126 74.8069C58.3635 75.0223 58.5695 75.2733 58.7305 75.5597C58.8938 75.8462 59.0051 76.1575 59.0643 76.4937ZM61.1248 74.221V81.4937H60.4927V74.221H61.1248ZM62.8045 81.4937V76.0391H63.4402V81.4937H62.8045ZM63.1277 75.1016C62.9974 75.1016 62.8862 75.0578 62.7938 74.9702C62.7015 74.8803 62.6554 74.7726 62.6554 74.6471C62.6554 74.5216 62.7015 74.4151 62.7938 74.3275C62.8862 74.2375 62.9974 74.1925 63.1277 74.1925C63.2579 74.1925 63.3691 74.2375 63.4615 74.3275C63.5538 74.4151 63.6 74.5216 63.6 74.6471C63.6 74.7726 63.5538 74.8803 63.4615 74.9702C63.3691 75.0578 63.2579 75.1016 63.1277 75.1016ZM67.2425 81.6073C66.7548 81.6073 66.3299 81.4854 65.9677 81.2416C65.6078 80.9977 65.3285 80.6639 65.1296 80.2401C64.9307 79.8164 64.8313 79.3334 64.8313 78.7913C64.8313 78.2444 64.9319 77.7579 65.1332 77.3318C65.3368 76.9056 65.6185 76.5718 65.9783 76.3303C66.3382 76.0865 66.756 75.9646 67.2319 75.9646C67.5965 75.9646 67.9267 76.0356 68.2226 76.1776C68.5186 76.3173 68.7624 76.515 68.9542 76.7707C69.1483 77.024 69.2702 77.3199 69.3199 77.6585H68.6807C68.6145 77.3507 68.4547 77.0879 68.2013 76.8701C67.9504 76.6499 67.6308 76.5398 67.2425 76.5398C66.8945 76.5398 66.5868 76.6345 66.3192 76.8239C66.0517 77.011 65.8422 77.2726 65.6907 77.6087C65.5415 77.9425 65.467 78.3296 65.467 78.77C65.467 79.2127 65.5404 79.6045 65.6871 79.9454C65.8339 80.2839 66.0399 80.5491 66.305 80.7408C66.5726 80.9326 66.8851 81.0285 67.2425 81.0285C67.484 81.0285 67.7042 80.9835 67.903 80.8935C68.1043 80.8012 68.2724 80.671 68.4073 80.5029C68.5446 80.3348 68.6369 80.1348 68.6843 79.9028H69.3235C69.2762 80.2318 69.159 80.5254 68.9719 80.7835C68.7873 81.0391 68.547 81.2404 68.2511 81.3871C67.9575 81.5339 67.6213 81.6073 67.2425 81.6073ZM74.1229 78.0846V81.4937H73.4908V74.221H74.1229V76.895H74.1797C74.3075 76.6132 74.5052 76.3883 74.7727 76.2202C75.0426 76.0522 75.3835 75.9681 75.7954 75.9681C76.1648 75.9681 76.4891 76.0439 76.7685 76.1954C77.0478 76.3469 77.2656 76.5706 77.4219 76.8666C77.5781 77.1625 77.6562 77.5271 77.6562 77.9603V81.4937H77.0206V77.9994C77.0206 77.5496 76.8951 77.1956 76.6442 76.9376C76.3956 76.6772 76.0594 76.5469 75.6356 76.5469C75.3445 76.5469 75.0852 76.6085 74.8579 76.7316C74.6307 76.8547 74.4507 77.0323 74.3182 77.2643C74.188 77.4939 74.1229 77.7674 74.1229 78.0846ZM81.5261 81.6073C81.0171 81.6073 80.5768 81.4889 80.2051 81.2522C79.8334 81.0131 79.5457 80.6828 79.3421 80.2614C79.1409 79.8377 79.0403 79.35 79.0403 78.7984C79.0403 78.2491 79.1409 77.7614 79.3421 77.3353C79.5457 76.9068 79.8263 76.5718 80.1838 76.3303C80.5436 76.0865 80.9591 75.9646 81.4302 75.9646C81.7261 75.9646 82.0114 76.019 82.286 76.1279C82.5607 76.2344 82.8069 76.399 83.0247 76.6215C83.2448 76.8417 83.4188 77.1199 83.5467 77.456C83.6745 77.7898 83.7385 78.1852 83.7385 78.6421V78.9546H79.4771V78.3971H83.0921C83.0921 78.0467 83.0211 77.7318 82.8791 77.4525C82.7394 77.1708 82.5441 76.9482 82.2931 76.7849C82.0446 76.6215 81.7569 76.5398 81.4302 76.5398C81.0846 76.5398 80.7804 76.6322 80.5176 76.8168C80.2548 77.0015 80.0488 77.2453 79.8997 77.5484C79.7529 77.8514 79.6783 78.1828 79.676 78.5427V78.8765C79.676 79.3097 79.7505 79.6885 79.8997 80.0129C80.0512 80.3348 80.2654 80.5846 80.5424 80.7621C80.8194 80.9397 81.1473 81.0285 81.5261 81.0285C81.7841 81.0285 82.0102 80.9882 82.2044 80.9077C82.4009 80.8273 82.5654 80.7195 82.698 80.5846C82.8329 80.4473 82.9347 80.2969 83.0034 80.1336L83.6035 80.3289C83.5206 80.5586 83.3845 80.7704 83.1951 80.9646C83.0081 81.1587 82.7737 81.3149 82.492 81.4333C82.2126 81.5493 81.8907 81.6073 81.5261 81.6073ZM85.1314 81.4937V76.0391H85.7457V76.8772H85.7919C85.9008 76.6026 86.0902 76.3812 86.3601 76.2131C86.6323 76.0427 86.9401 75.9575 87.2834 75.9575C87.3355 75.9575 87.3935 75.9586 87.4574 75.961C87.5213 75.9634 87.5746 75.9657 87.6172 75.9681V76.6109C87.5888 76.6061 87.5391 76.599 87.468 76.5896C87.397 76.5801 87.3201 76.5754 87.2372 76.5754C86.9531 76.5754 86.6998 76.6357 86.4773 76.7565C86.2571 76.8748 86.0831 77.0394 85.9552 77.2501C85.8274 77.4608 85.7635 77.7011 85.7635 77.971V81.4937H85.1314ZM90.7351 81.6073C90.2261 81.6073 89.7857 81.4889 89.4141 81.2522C89.0424 81.0131 88.7547 80.6828 88.5511 80.2614C88.3499 79.8377 88.2493 79.35 88.2493 78.7984C88.2493 78.2491 88.3499 77.7614 88.5511 77.3353C88.7547 76.9068 89.0353 76.5718 89.3927 76.3303C89.7526 76.0865 90.1681 75.9646 90.6392 75.9646C90.9351 75.9646 91.2204 76.019 91.495 76.1279C91.7696 76.2344 92.0159 76.399 92.2337 76.6215C92.4538 76.8417 92.6278 77.1199 92.7557 77.456C92.8835 77.7898 92.9474 78.1852 92.9474 78.6421V78.9546H88.6861V78.3971H92.3011C92.3011 78.0467 92.2301 77.7318 92.0881 77.4525C91.9484 77.1708 91.7531 76.9482 91.5021 76.7849C91.2535 76.6215 90.9659 76.5398 90.6392 76.5398C90.2936 76.5398 89.9893 76.6322 89.7266 76.8168C89.4638 77.0015 89.2578 77.2453 89.1087 77.5484C88.9619 77.8514 88.8873 78.1828 88.8849 78.5427V78.8765C88.8849 79.3097 88.9595 79.6885 89.1087 80.0129C89.2602 80.3348 89.4744 80.5846 89.7514 80.7621C90.0284 80.9397 90.3563 81.0285 90.7351 81.0285C90.9931 81.0285 91.2192 80.9882 91.4133 80.9077C91.6098 80.8273 91.7744 80.7195 91.907 80.5846C92.0419 80.4473 92.1437 80.2969 92.2124 80.1336L92.8125 80.3289C92.7296 80.5586 92.5935 80.7704 92.4041 80.9646C92.2171 81.1587 91.9827 81.3149 91.701 81.4333C91.4216 81.5493 91.0997 81.6073 90.7351 81.6073ZM99.3013 76.0391V76.5896H96.6983V76.0391H99.3013ZM97.5115 74.7323H98.1472V80.0697C98.1472 80.2969 98.1862 80.4757 98.2644 80.6059C98.3425 80.7337 98.4443 80.8249 98.5698 80.8793C98.6952 80.9314 98.829 80.9575 98.9711 80.9575C99.0539 80.9575 99.1249 80.9527 99.1841 80.9433C99.2433 80.9314 99.2954 80.9196 99.3404 80.9077L99.4753 81.4795C99.4138 81.5032 99.338 81.5245 99.248 81.5434C99.1581 81.5647 99.0468 81.5754 98.9142 81.5754C98.6822 81.5754 98.4585 81.5245 98.2431 81.4227C98.03 81.3209 97.8548 81.1693 97.7175 80.9681C97.5802 80.7669 97.5115 80.5171 97.5115 80.2188V74.7323ZM102.798 81.6073C102.327 81.6073 101.911 81.4878 101.548 81.2487C101.188 81.0095 100.907 80.6793 100.703 80.2579C100.5 79.8341 100.398 79.3452 100.398 78.7913C100.398 78.2326 100.5 77.7413 100.703 77.3175C100.907 76.8914 101.188 76.56 101.548 76.3232C101.911 76.0841 102.327 75.9646 102.798 75.9646C103.269 75.9646 103.685 76.0841 104.045 76.3232C104.405 76.5623 104.686 76.8938 104.89 77.3175C105.096 77.7413 105.199 78.2326 105.199 78.7913C105.199 79.3452 105.097 79.8341 104.893 80.2579C104.69 80.6793 104.407 81.0095 104.045 81.2487C103.685 81.4878 103.269 81.6073 102.798 81.6073ZM102.798 81.0285C103.177 81.0285 103.498 80.9267 103.761 80.7231C104.023 80.5195 104.222 80.2484 104.357 79.9099C104.495 79.5713 104.563 79.1985 104.563 78.7913C104.563 78.3841 104.495 78.01 104.357 77.6691C104.222 77.3282 104.023 77.0548 103.761 76.8488C103.498 76.6428 103.177 76.5398 102.798 76.5398C102.422 76.5398 102.101 76.6428 101.836 76.8488C101.573 77.0548 101.373 77.3282 101.236 77.6691C101.101 78.01 101.033 78.3841 101.033 78.7913C101.033 79.1985 101.101 79.5713 101.236 79.9099C101.373 80.2484 101.573 80.5195 101.836 80.7231C102.099 80.9267 102.42 81.0285 102.798 81.0285ZM113.064 77.2359L112.485 77.3992C112.428 77.2359 112.348 77.0879 112.243 76.9553C112.139 76.8228 112.003 76.7174 111.835 76.6393C111.669 76.5612 111.463 76.5221 111.217 76.5221C110.848 76.5221 110.545 76.6097 110.308 76.7849C110.071 76.9601 109.953 77.1862 109.953 77.4631C109.953 77.6975 110.033 77.8881 110.194 78.0349C110.358 78.1793 110.609 78.2941 110.947 78.3793L111.771 78.5818C112.228 78.693 112.57 78.8694 112.797 79.1109C113.027 79.3523 113.142 79.6554 113.142 80.02C113.142 80.3277 113.057 80.6012 112.886 80.8403C112.716 81.0794 112.478 81.2676 112.172 81.4049C111.869 81.5398 111.518 81.6073 111.118 81.6073C110.585 81.6073 110.146 81.4878 109.8 81.2487C109.455 81.0072 109.233 80.6592 109.136 80.2046L109.743 80.0555C109.822 80.3798 109.974 80.6248 110.202 80.7906C110.431 80.9563 110.733 81.0391 111.107 81.0391C111.526 81.0391 111.861 80.9456 112.112 80.7586C112.363 80.5692 112.488 80.3325 112.488 80.0484C112.488 79.8282 112.415 79.6435 112.268 79.4944C112.122 79.3429 111.899 79.2316 111.601 79.1606L110.709 78.9475C110.236 78.8339 109.885 78.654 109.658 78.4077C109.431 78.1615 109.317 77.8561 109.317 77.4916C109.317 77.1909 109.399 76.9269 109.562 76.6996C109.726 76.47 109.951 76.2901 110.237 76.1599C110.523 76.0297 110.85 75.9646 111.217 75.9646C111.717 75.9646 112.116 76.0782 112.414 76.3055C112.715 76.5304 112.931 76.8405 113.064 77.2359ZM115.158 78.0846V81.4937H114.526V74.221H115.158V76.895H115.215C115.343 76.6132 115.54 76.3883 115.808 76.2202C116.078 76.0522 116.419 75.9681 116.831 75.9681C117.2 75.9681 117.524 76.0439 117.804 76.1954C118.083 76.3469 118.301 76.5706 118.457 76.8666C118.613 77.1625 118.691 77.5271 118.691 77.9603V81.4937H118.056V77.9994C118.056 77.5496 117.93 77.1956 117.679 76.9376C117.431 76.6772 117.095 76.5469 116.671 76.5469C116.38 76.5469 116.12 76.6085 115.893 76.7316C115.666 76.8547 115.486 77.0323 115.353 77.2643C115.223 77.4939 115.158 77.7674 115.158 78.0846ZM121.879 81.618C121.55 81.618 121.25 81.5541 120.977 81.4262C120.705 81.296 120.489 81.109 120.328 80.8651C120.167 80.6189 120.086 80.3206 120.086 79.9702C120.086 79.7004 120.137 79.4731 120.239 79.2884C120.341 79.1038 120.485 78.9523 120.672 78.8339C120.859 78.7155 121.08 78.622 121.336 78.5533C121.592 78.4847 121.874 78.4314 122.181 78.3935C122.487 78.3557 122.745 78.3225 122.955 78.2941C123.168 78.2657 123.331 78.2207 123.442 78.1592C123.553 78.0976 123.609 77.9982 123.609 77.8609V77.733C123.609 77.3613 123.498 77.069 123.275 76.8559C123.055 76.6405 122.738 76.5327 122.323 76.5327C121.93 76.5327 121.61 76.6192 121.361 76.792C121.115 76.9648 120.942 77.1684 120.842 77.4028L120.242 77.1862C120.365 76.8879 120.536 76.6499 120.754 76.4724C120.972 76.2925 121.215 76.1634 121.485 76.0853C121.755 76.0048 122.029 75.9646 122.306 75.9646C122.514 75.9646 122.731 75.9918 122.955 76.0462C123.183 76.1007 123.393 76.1954 123.588 76.3303C123.782 76.4629 123.939 76.6487 124.06 76.8879C124.181 77.1246 124.241 77.4253 124.241 77.7898V81.4937H123.609V80.6308H123.57C123.494 80.7917 123.382 80.948 123.232 81.0995C123.083 81.251 122.896 81.3753 122.671 81.4724C122.446 81.5694 122.182 81.618 121.879 81.618ZM121.965 81.0391C122.301 81.0391 122.592 80.9646 122.838 80.8154C123.084 80.6663 123.274 80.4686 123.406 80.2224C123.541 79.9738 123.609 79.7004 123.609 79.4021V78.6137C123.561 78.6587 123.482 78.6989 123.371 78.7344C123.262 78.77 123.135 78.8019 122.991 78.8303C122.849 78.8564 122.707 78.8789 122.565 78.8978C122.423 78.9167 122.295 78.9333 122.181 78.9475C121.874 78.9854 121.611 79.0446 121.393 79.1251C121.175 79.2056 121.008 79.3168 120.892 79.4589C120.776 79.5986 120.718 79.7785 120.718 79.9987C120.718 80.3301 120.837 80.587 121.073 80.7693C121.31 80.9492 121.607 81.0391 121.965 81.0391ZM125.922 81.4937V76.0391H126.537V76.8772H126.583C126.692 76.6026 126.881 76.3812 127.151 76.2131C127.423 76.0427 127.731 75.9575 128.074 75.9575C128.126 75.9575 128.184 75.9586 128.248 75.961C128.312 75.9634 128.366 75.9657 128.408 75.9681V76.6109C128.38 76.6061 128.33 76.599 128.259 76.5896C128.188 76.5801 128.111 76.5754 128.028 76.5754C127.744 76.5754 127.491 76.6357 127.268 76.7565C127.048 76.8748 126.874 77.0394 126.746 77.2501C126.618 77.4608 126.555 77.7011 126.555 77.971V81.4937H125.922ZM131.526 81.6073C131.017 81.6073 130.577 81.4889 130.205 81.2522C129.833 81.0131 129.546 80.6828 129.342 80.2614C129.141 79.8377 129.04 79.35 129.04 78.7984C129.04 78.2491 129.141 77.7614 129.342 77.3353C129.546 76.9068 129.826 76.5718 130.184 76.3303C130.544 76.0865 130.959 75.9646 131.43 75.9646C131.726 75.9646 132.011 76.019 132.286 76.1279C132.561 76.2344 132.807 76.399 133.025 76.6215C133.245 76.8417 133.419 77.1199 133.547 77.456C133.675 77.7898 133.738 78.1852 133.738 78.6421V78.9546H129.477V78.3971H133.092C133.092 78.0467 133.021 77.7318 132.879 77.4525C132.739 77.1708 132.544 76.9482 132.293 76.7849C132.045 76.6215 131.757 76.5398 131.43 76.5398C131.085 76.5398 130.78 76.6322 130.518 76.8168C130.255 77.0015 130.049 77.2453 129.9 77.5484C129.753 77.8514 129.678 78.1828 129.676 78.5427V78.8765C129.676 79.3097 129.751 79.6885 129.9 80.0129C130.051 80.3348 130.265 80.5846 130.542 80.7621C130.819 80.9397 131.147 81.0285 131.526 81.0285C131.784 81.0285 132.01 80.9882 132.204 80.9077C132.401 80.8273 132.565 80.7195 132.698 80.5846C132.833 80.4473 132.935 80.2969 133.003 80.1336L133.604 80.3289C133.521 80.5586 133.385 80.7704 133.195 80.9646C133.008 81.1587 132.774 81.3149 132.492 81.4333C132.213 81.5493 131.891 81.6073 131.526 81.6073ZM138.384 83.5391C138.259 83.5391 138.142 83.5273 138.033 83.5036C137.924 83.48 137.837 83.4539 137.773 83.4255L137.944 82.868C138.159 82.9343 138.351 82.9579 138.519 82.939C138.687 82.9224 138.836 82.8467 138.967 82.7117C139.097 82.5791 139.213 82.3755 139.315 82.1009L139.513 81.5469L137.507 76.0391H138.192L139.812 80.6592H139.861L141.481 76.0391H142.166L139.858 82.3566C139.761 82.6194 139.641 82.8384 139.499 83.0136C139.357 83.1911 139.193 83.3225 139.006 83.4077C138.821 83.4953 138.614 83.5391 138.384 83.5391ZM145.328 81.6073C144.856 81.6073 144.44 81.4878 144.078 81.2487C143.718 81.0095 143.436 80.6793 143.232 80.2579C143.029 79.8341 142.927 79.3452 142.927 78.7913C142.927 78.2326 143.029 77.7413 143.232 77.3175C143.436 76.8914 143.718 76.56 144.078 76.3232C144.44 76.0841 144.856 75.9646 145.328 75.9646C145.799 75.9646 146.214 76.0841 146.574 76.3232C146.934 76.5623 147.216 76.8938 147.419 77.3175C147.625 77.7413 147.728 78.2326 147.728 78.7913C147.728 79.3452 147.626 79.8341 147.423 80.2579C147.219 80.6793 146.936 81.0095 146.574 81.2487C146.214 81.4878 145.799 81.6073 145.328 81.6073ZM145.328 81.0285C145.706 81.0285 146.027 80.9267 146.29 80.7231C146.553 80.5195 146.752 80.2484 146.887 79.9099C147.024 79.5713 147.092 79.1985 147.092 78.7913C147.092 78.3841 147.024 78.01 146.887 77.6691C146.752 77.3282 146.553 77.0548 146.29 76.8488C146.027 76.6428 145.706 76.5398 145.328 76.5398C144.951 76.5398 144.63 76.6428 144.365 76.8488C144.102 77.0548 143.902 77.3282 143.765 77.6691C143.63 78.01 143.563 78.3841 143.563 78.7913C143.563 79.1985 143.63 79.5713 143.765 79.9099C143.902 80.2484 144.102 80.5195 144.365 80.7231C144.628 80.9267 144.949 81.0285 145.328 81.0285ZM152.582 79.4092V76.0391H153.214V81.4937H152.582V80.5881H152.532C152.404 80.8675 152.202 81.1007 151.925 81.2877C151.648 81.4724 151.309 81.5647 150.909 81.5647C150.561 81.5647 150.252 81.4889 149.982 81.3374C149.712 81.1836 149.5 80.9586 149.347 80.6627C149.193 80.3668 149.116 80.0034 149.116 79.5725V76.0391H149.748V79.5335C149.748 79.9596 149.873 80.3029 150.124 80.5633C150.375 80.8213 150.697 80.9504 151.09 80.9504C151.336 80.9504 151.573 80.8912 151.8 80.7728C152.028 80.6544 152.215 80.4816 152.361 80.2543C152.508 80.0247 152.582 79.743 152.582 79.4092ZM154.887 81.4937V76.0391H155.502V76.8772H155.548C155.657 76.6026 155.846 76.3812 156.116 76.2131C156.388 76.0427 156.696 75.9575 157.039 75.9575C157.091 75.9575 157.149 75.9586 157.213 75.961C157.277 75.9634 157.33 75.9657 157.373 75.9681V76.6109C157.345 76.6061 157.295 76.599 157.224 76.5896C157.153 76.5801 157.076 76.5754 156.993 76.5754C156.709 76.5754 156.456 76.6357 156.233 76.7565C156.013 76.8748 155.839 77.0394 155.711 77.2501C155.583 77.4608 155.519 77.7011 155.519 77.971V81.4937H154.887ZM161.264 83.5391V76.0391H161.879V77.0796H161.953C162.029 76.9163 162.133 76.7494 162.266 76.5789C162.398 76.4061 162.573 76.2605 162.791 76.1421C163.011 76.0237 163.288 75.9646 163.622 75.9646C164.072 75.9646 164.465 76.0829 164.801 76.3197C165.14 76.5541 165.402 76.8831 165.589 77.3069C165.779 77.7283 165.874 78.2195 165.874 78.7806C165.874 79.3441 165.779 79.8377 165.589 80.2614C165.402 80.6852 165.14 81.0155 164.801 81.2522C164.465 81.4889 164.074 81.6073 163.629 81.6073C163.3 81.6073 163.024 81.5481 162.802 81.4298C162.582 81.3114 162.403 81.1658 162.266 80.993C162.131 80.8178 162.027 80.6473 161.953 80.4816H161.896V83.5391H161.264ZM161.889 78.77C161.889 79.2103 161.954 79.6009 162.085 79.9418C162.217 80.2804 162.406 80.5467 162.653 80.7408C162.901 80.9326 163.202 81.0285 163.555 81.0285C163.917 81.0285 164.222 80.9291 164.471 80.7302C164.722 80.529 164.912 80.2579 165.043 79.917C165.175 79.5761 165.241 79.1937 165.241 78.77C165.241 78.3509 165.176 77.9733 165.046 77.6371C164.918 77.301 164.729 77.0346 164.478 76.8381C164.227 76.6393 163.919 76.5398 163.555 76.5398C163.2 76.5398 162.898 76.6357 162.649 76.8275C162.401 77.0169 162.211 77.2797 162.081 77.6158C161.953 77.9496 161.889 78.3344 161.889 78.77ZM167.892 78.0846V81.4937H167.26V74.221H167.892V76.895H167.949C168.077 76.6132 168.275 76.3883 168.542 76.2202C168.812 76.0522 169.153 75.9681 169.565 75.9681C169.934 75.9681 170.259 76.0439 170.538 76.1954C170.817 76.3469 171.035 76.5706 171.191 76.8666C171.348 77.1625 171.426 77.5271 171.426 77.9603V81.4937H170.79V77.9994C170.79 77.5496 170.665 77.1956 170.414 76.9376C170.165 76.6772 169.829 76.5469 169.405 76.5469C169.114 76.5469 168.855 76.6085 168.627 76.7316C168.4 76.8547 168.22 77.0323 168.088 77.2643C167.958 77.4939 167.892 77.7674 167.892 78.0846ZM175.21 81.6073C174.739 81.6073 174.323 81.4878 173.96 81.2487C173.601 81.0095 173.319 80.6793 173.115 80.2579C172.912 79.8341 172.81 79.3452 172.81 78.7913C172.81 78.2326 172.912 77.7413 173.115 77.3175C173.319 76.8914 173.601 76.56 173.96 76.3232C174.323 76.0841 174.739 75.9646 175.21 75.9646C175.682 75.9646 176.097 76.0841 176.457 76.3232C176.817 76.5623 177.098 76.8938 177.302 77.3175C177.508 77.7413 177.611 78.2326 177.611 78.7913C177.611 79.3452 177.509 79.8341 177.306 80.2579C177.102 80.6793 176.819 81.0095 176.457 81.2487C176.097 81.4878 175.682 81.6073 175.21 81.6073ZM175.21 81.0285C175.589 81.0285 175.91 80.9267 176.173 80.7231C176.436 80.5195 176.634 80.2484 176.769 79.9099C176.907 79.5713 176.975 79.1985 176.975 78.7913C176.975 78.3841 176.907 78.01 176.769 77.6691C176.634 77.3282 176.436 77.0548 176.173 76.8488C175.91 76.6428 175.589 76.5398 175.21 76.5398C174.834 76.5398 174.513 76.6428 174.248 76.8488C173.985 77.0548 173.785 77.3282 173.648 77.6691C173.513 78.01 173.445 78.3841 173.445 78.7913C173.445 79.1985 173.513 79.5713 173.648 79.9099C173.785 80.2484 173.985 80.5195 174.248 80.7231C174.511 80.9267 174.832 81.0285 175.21 81.0285ZM181.147 76.0391V76.5896H178.544V76.0391H181.147ZM179.357 74.7323H179.993V80.0697C179.993 80.2969 180.032 80.4757 180.11 80.6059C180.188 80.7337 180.29 80.8249 180.415 80.8793C180.541 80.9314 180.675 80.9575 180.817 80.9575C180.9 80.9575 180.971 80.9527 181.03 80.9433C181.089 80.9314 181.141 80.9196 181.186 80.9077L181.321 81.4795C181.259 81.5032 181.184 81.5245 181.094 81.5434C181.004 81.5647 180.893 81.5754 180.76 81.5754C180.528 81.5754 180.304 81.5245 180.089 81.4227C179.876 81.3209 179.701 81.1693 179.563 80.9681C179.426 80.7669 179.357 80.5171 179.357 80.2188V74.7323ZM184.644 81.6073C184.173 81.6073 183.756 81.4878 183.394 81.2487C183.034 81.0095 182.752 80.6793 182.549 80.2579C182.345 79.8341 182.243 79.3452 182.243 78.7913C182.243 78.2326 182.345 77.7413 182.549 77.3175C182.752 76.8914 183.034 76.56 183.394 76.3232C183.756 76.0841 184.173 75.9646 184.644 75.9646C185.115 75.9646 185.531 76.0841 185.89 76.3232C186.25 76.5623 186.532 76.8938 186.736 77.3175C186.942 77.7413 187.045 78.2326 187.045 78.7913C187.045 79.3452 186.943 79.8341 186.739 80.2579C186.536 80.6793 186.253 81.0095 185.89 81.2487C185.531 81.4878 185.115 81.6073 184.644 81.6073ZM184.644 81.0285C185.023 81.0285 185.344 80.9267 185.606 80.7231C185.869 80.5195 186.068 80.2484 186.203 79.9099C186.34 79.5713 186.409 79.1985 186.409 78.7913C186.409 78.3841 186.34 78.01 186.203 77.6691C186.068 77.3282 185.869 77.0548 185.606 76.8488C185.344 76.6428 185.023 76.5398 184.644 76.5398C184.268 76.5398 183.947 76.6428 183.682 76.8488C183.419 77.0548 183.219 77.3282 183.081 77.6691C182.947 78.01 182.879 78.3841 182.879 78.7913C182.879 79.1985 182.947 79.5713 183.081 79.9099C183.219 80.2484 183.419 80.5195 183.682 80.7231C183.944 80.9267 184.265 81.0285 184.644 81.0285Z" fill="black" style="fill:black;fill:black;fill-opacity:1;"/>
<path d="M131.869 20.7025C131.869 18.0812 129.584 15.9557 126.764 15.9557C124.657 15.9557 122.847 17.1435 122.068 18.8386C121.29 17.1435 119.48 15.9557 117.371 15.9557C114.554 15.9557 112.267 18.0812 112.267 20.7025C112.267 28.3186 122.068 33.3608 122.068 33.3608C122.068 33.3608 131.869 28.3186 131.869 20.7025Z" stroke="black" style="stroke:black;stroke:black;stroke-opacity:1;" stroke-width="1.5" stroke-linecap="round" stroke-linejoin="round"/>
<defs>
<filter id="filter0_d_14_256" x="0" y="0" width="238" height="108" filterUnits="userSpaceOnUse" color-interpolation-filters="sRGB">
<feFlood flood-opacity="0" result="BackgroundImageFix"/>
<feColorMatrix in="SourceAlpha" type="matrix" values="0 0 0 0 0 0 0 0 0 0 0 0 0 0 0 0 0 0 127 0" result="hardAlpha"/>
<feOffset dy="4"/>
<feGaussianBlur stdDeviation="2"/>
<feComposite in2="hardAlpha" operator="out"/>
<feColorMatrix type="matrix" values="0 0 0 0 0 0 0 0 0 0 0 0 0 0 0 0 0 0 0.25 0"/>
<feBlend mode="normal" in2="BackgroundImageFix" result="effect1_dropShadow_14_256"/>
<feBlend mode="normal" in="SourceGraphic" in2="effect1_dropShadow_14_256" result="shape"/>
</filter>
<filter id="filter1_d_14_256" x="0" y="0" width="238" height="108" filterUnits="userSpaceOnUse" color-interpolation-filters="sRGB">
<feFlood flood-opacity="0" result="BackgroundImageFix"/>
<feColorMatrix in="SourceAlpha" type="matrix" values="0 0 0 0 0 0 0 0 0 0 0 0 0 0 0 0 0 0 127 0" result="hardAlpha"/>
<feOffset dy="4"/>
<feGaussianBlur stdDeviation="2"/>
<feComposite in2="hardAlpha" operator="out"/>
<feColorMatrix type="matrix" values="0 0 0 0 0 0 0 0 0 0 0 0 0 0 0 0 0 0 0.25 0"/>
<feBlend mode="normal" in2="BackgroundImageFix" result="effect1_dropShadow_14_256"/>
<feBlend mode="normal" in="SourceGraphic" in2="effect1_dropShadow_14_256" result="shape"/>
</filter>
</defs>
</svg>
