<svg width="230" height="100" viewBox="0 0 230 100" fill="none" xmlns="http://www.w3.org/2000/svg">
<g filter="url(#filter0_i_14_231)">
<rect width="230" height="100" rx="25" fill="#E2EFF0" style="fill:#E2EFF0;fill:color(display-p3 0.8867 0.9362 0.9430);fill-opacity:1;"/>
</g>
<path d="M53.4788 60.7089L48.1166 42.527H53.6208L56.1066 53.7131H56.2487L59.1961 42.527H63.5285L66.4759 53.7486H66.618L69.1038 42.527H74.608L69.2458 60.7089H64.5228L61.4333 50.5526H61.2913L58.2018 60.7089H53.4788ZM92.6722 51.618C92.6722 53.6421 92.2786 55.3496 91.4915 56.7405C90.7043 58.1254 89.6419 59.176 88.3043 59.8921C86.9667 60.6023 85.4753 60.9574 83.8299 60.9574C82.1727 60.9574 80.6753 60.5994 79.3377 59.8832C78.006 59.1612 76.9466 58.1077 76.1594 56.7227C75.3782 55.3318 74.9876 53.6303 74.9876 51.618C74.9876 49.5938 75.3782 47.8893 76.1594 46.5043C76.9466 45.1135 78.006 44.0629 79.3377 43.3527C80.6753 42.6365 82.1727 42.2785 83.8299 42.2785C85.4753 42.2785 86.9667 42.6365 88.3043 43.3527C89.6419 44.0629 90.7043 45.1135 91.4915 46.5043C92.2786 47.8893 92.6722 49.5938 92.6722 51.618ZM87.5941 51.618C87.5941 50.5289 87.4491 49.6116 87.1591 48.8658C86.875 48.1142 86.4518 47.546 85.8896 47.1613C85.3332 46.7707 84.6467 46.5753 83.8299 46.5753C83.0131 46.5753 82.3236 46.7707 81.7614 47.1613C81.205 47.546 80.7818 48.1142 80.4918 48.8658C80.2077 49.6116 80.0657 50.5289 80.0657 51.618C80.0657 52.707 80.2077 53.6273 80.4918 54.379C80.7818 55.1247 81.205 55.6929 81.7614 56.0835C82.3236 56.4682 83.0131 56.6606 83.8299 56.6606C84.6467 56.6606 85.3332 56.4682 85.8896 56.0835C86.4518 55.6929 86.875 55.1247 87.1591 54.379C87.4491 53.6273 87.5941 52.707 87.5941 51.618ZM94.9561 60.7089V42.527H102.804C104.153 42.527 105.334 42.7727 106.346 43.2639C107.358 43.7551 108.146 44.4624 108.708 45.3857C109.27 46.309 109.551 47.4158 109.551 48.706C109.551 50.0081 109.261 51.106 108.681 51.9997C108.107 52.8934 107.299 53.5681 106.258 54.0238C105.222 54.4796 104.011 54.7074 102.627 54.7074H97.939V50.8722H101.632C102.212 50.8722 102.706 50.8012 103.115 50.6591C103.529 50.5112 103.846 50.2774 104.065 49.9578C104.29 49.6382 104.402 49.2209 104.402 48.706C104.402 48.1852 104.29 47.762 104.065 47.4365C103.846 47.1051 103.529 46.8624 103.115 46.7085C102.706 46.5487 102.212 46.4688 101.632 46.4688H99.8921V60.7089H94.9561ZM105.609 52.3637L110.155 60.7089H104.793L100.354 52.3637H105.609ZM111.655 60.7089V42.527H116.591V49.8779H116.84L122.309 42.527H128.062L121.918 50.6236L128.204 60.7089H122.309L118.225 53.8907L116.591 56.0214V60.7089H111.655ZM145.993 51.618C145.993 53.6421 145.599 55.3496 144.812 56.7405C144.025 58.1254 142.962 59.176 141.625 59.8921C140.287 60.6023 138.796 60.9574 137.15 60.9574C135.493 60.9574 133.996 60.5994 132.658 59.8832C131.326 59.1612 130.267 58.1077 129.48 56.7227C128.699 55.3318 128.308 53.6303 128.308 51.618C128.308 49.5938 128.699 47.8893 129.48 46.5043C130.267 45.1135 131.326 44.0629 132.658 43.3527C133.996 42.6365 135.493 42.2785 137.15 42.2785C138.796 42.2785 140.287 42.6365 141.625 43.3527C142.962 44.0629 144.025 45.1135 144.812 46.5043C145.599 47.8893 145.993 49.5938 145.993 51.618ZM140.914 51.618C140.914 50.5289 140.769 49.6116 140.479 48.8658C140.195 48.1142 139.772 47.546 139.21 47.1613C138.654 46.7707 137.967 46.5753 137.15 46.5753C136.333 46.5753 135.644 46.7707 135.082 47.1613C134.525 47.546 134.102 48.1142 133.812 48.8658C133.528 49.6116 133.386 50.5289 133.386 51.618C133.386 52.707 133.528 53.6273 133.812 54.379C134.102 55.1247 134.525 55.6929 135.082 56.0835C135.644 56.4682 136.333 56.6606 137.15 56.6606C137.967 56.6606 138.654 56.4682 139.21 56.0835C139.772 55.6929 140.195 55.1247 140.479 54.379C140.769 53.6273 140.914 52.707 140.914 51.618ZM159.036 42.527H163.972V54.1748C163.972 55.5597 163.641 56.7582 162.978 57.7703C162.321 58.7765 161.404 59.5547 160.226 60.1052C159.048 60.6497 157.681 60.9219 156.124 60.9219C154.556 60.9219 153.183 60.6497 152.005 60.1052C150.827 59.5547 149.91 58.7765 149.253 57.7703C148.602 56.7582 148.276 55.5597 148.276 54.1748V42.527H153.212V53.7486C153.212 54.3109 153.337 54.814 153.585 55.2579C153.834 55.6958 154.177 56.0391 154.615 56.2877C155.059 56.5363 155.562 56.6606 156.124 56.6606C156.693 56.6606 157.196 56.5363 157.634 56.2877C158.072 56.0391 158.415 55.6958 158.663 55.2579C158.912 54.814 159.036 54.3109 159.036 53.7486V42.527ZM165.821 46.5043V42.527H181.624V46.5043H176.155V60.7089H171.29V46.5043H165.821Z" fill="black" style="fill:black;fill:black;fill-opacity:1;"/>
<path d="M54.0643 75.8861H53.3967C53.3469 75.6375 53.257 75.4079 53.1268 75.1972C52.9989 74.9841 52.8379 74.7983 52.6438 74.6396C52.4497 74.481 52.2295 74.3579 51.9833 74.2703C51.7371 74.1827 51.4708 74.1389 51.1843 74.1389C50.725 74.1389 50.306 74.2585 49.9272 74.4976C49.5508 74.7367 49.2489 75.0883 49.0217 75.5523C48.7967 76.0139 48.6843 76.5797 48.6843 77.2497C48.6843 77.9244 48.7967 78.4926 49.0217 78.9543C49.2489 79.4159 49.5508 79.7663 49.9272 80.0054C50.306 80.2422 50.725 80.3605 51.1843 80.3605C51.4708 80.3605 51.7371 80.3167 51.9833 80.2291C52.2295 80.1415 52.4497 80.0196 52.6438 79.8634C52.8379 79.7047 52.9989 79.5189 53.1268 79.3058C53.257 79.0928 53.3469 78.8619 53.3967 78.6134H54.0643C54.0051 78.9472 53.8938 79.2585 53.7305 79.5473C53.5695 79.8338 53.3635 80.0847 53.1126 80.3002C52.864 80.5156 52.5775 80.6837 52.2532 80.8044C51.9289 80.9252 51.5726 80.9855 51.1843 80.9855C50.5735 80.9855 50.0314 80.8328 49.5579 80.5274C49.0844 80.2197 48.7127 79.7864 48.4428 79.2277C48.1753 78.669 48.0415 78.0097 48.0415 77.2497C48.0415 76.4898 48.1753 75.8305 48.4428 75.2717C48.7127 74.713 49.0844 74.281 49.5579 73.9756C50.0314 73.6678 50.5735 73.5139 51.1843 73.5139C51.5726 73.5139 51.9289 73.5743 52.2532 73.695C52.5775 73.8134 52.864 73.9815 53.1126 74.1993C53.3635 74.4147 53.5695 74.6657 53.7305 74.9521C53.8938 75.2386 54.0051 75.5499 54.0643 75.8861ZM56.1248 73.6134V80.8861H55.4927V73.6134H56.1248ZM57.8045 80.8861V75.4315H58.4402V80.8861H57.8045ZM58.1277 74.494C57.9974 74.494 57.8862 74.4503 57.7938 74.3627C57.7015 74.2727 57.6554 74.165 57.6554 74.0395C57.6554 73.914 57.7015 73.8075 57.7938 73.7199C57.8862 73.6299 57.9974 73.585 58.1277 73.585C58.2579 73.585 58.3691 73.6299 58.4615 73.7199C58.5538 73.8075 58.6 73.914 58.6 74.0395C58.6 74.165 58.5538 74.2727 58.4615 74.3627C58.3691 74.4503 58.2579 74.494 58.1277 74.494ZM62.2425 80.9997C61.7548 80.9997 61.3299 80.8778 60.9677 80.634C60.6078 80.3901 60.3285 80.0563 60.1296 79.6325C59.9307 79.2088 59.8313 78.7258 59.8313 78.1837C59.8313 77.6368 59.9319 77.1503 60.1332 76.7242C60.3368 76.298 60.6185 75.9642 60.9783 75.7227C61.3382 75.4789 61.756 75.357 62.2319 75.357C62.5965 75.357 62.9267 75.428 63.2226 75.57C63.5186 75.7097 63.7624 75.9074 63.9542 76.1631C64.1483 76.4164 64.2702 76.7123 64.3199 77.0509H63.6807C63.6145 76.7431 63.4547 76.4803 63.2013 76.2625C62.9504 76.0423 62.6308 75.9323 62.2425 75.9323C61.8945 75.9323 61.5868 76.027 61.3192 76.2163C61.0517 76.4034 60.8422 76.665 60.6907 77.0011C60.5415 77.335 60.467 77.722 60.467 78.1624C60.467 78.6051 60.5404 78.9969 60.6871 79.3378C60.8339 79.6763 61.0399 79.9415 61.305 80.1333C61.5726 80.325 61.8851 80.4209 62.2425 80.4209C62.484 80.4209 62.7042 80.3759 62.903 80.286C63.1043 80.1936 63.2724 80.0634 63.4073 79.8953C63.5446 79.7272 63.6369 79.5272 63.6843 79.2952H64.3235C64.2762 79.6243 64.159 79.9178 63.9719 80.1759C63.7873 80.4315 63.547 80.6328 63.2511 80.7796C62.9575 80.9263 62.6213 80.9997 62.2425 80.9997ZM69.1229 77.477V80.8861H68.4908V73.6134H69.1229V76.2874H69.1797C69.3075 76.0056 69.5052 75.7807 69.7727 75.6127C70.0426 75.4446 70.3835 75.3605 70.7954 75.3605C71.1648 75.3605 71.4891 75.4363 71.7685 75.5878C72.0478 75.7393 72.2656 75.963 72.4219 76.259C72.5781 76.5549 72.6562 76.9195 72.6562 77.3527V80.8861H72.0206V77.3918C72.0206 76.942 71.8951 76.588 71.6442 76.33C71.3956 76.0696 71.0594 75.9394 70.6356 75.9394C70.3445 75.9394 70.0852 76.0009 69.8579 76.124C69.6307 76.2471 69.4507 76.4247 69.3182 76.6567C69.188 76.8863 69.1229 77.1598 69.1229 77.477ZM76.5261 80.9997C76.0171 80.9997 75.5768 80.8814 75.2051 80.6446C74.8334 80.4055 74.5457 80.0753 74.3421 79.6538C74.1409 79.2301 74.0403 78.7424 74.0403 78.1908C74.0403 77.6415 74.1409 77.1538 74.3421 76.7277C74.5457 76.2992 74.8263 75.9642 75.1838 75.7227C75.5436 75.4789 75.9591 75.357 76.4302 75.357C76.7261 75.357 77.0114 75.4114 77.286 75.5203C77.5607 75.6269 77.8069 75.7914 78.0247 76.0139C78.2448 76.2341 78.4188 76.5123 78.5467 76.8485C78.6745 77.1823 78.7385 77.5776 78.7385 78.0345V78.347H74.4771V77.7895H78.0921C78.0921 77.4391 78.0211 77.1243 77.8791 76.8449C77.7394 76.5632 77.5441 76.3406 77.2931 76.1773C77.0446 76.0139 76.7569 75.9323 76.4302 75.9323C76.0846 75.9323 75.7804 76.0246 75.5176 76.2092C75.2548 76.3939 75.0488 76.6378 74.8997 76.9408C74.7529 77.2438 74.6783 77.5753 74.676 77.9351V78.2689C74.676 78.7021 74.7505 79.0809 74.8997 79.4053C75.0512 79.7272 75.2654 79.977 75.5424 80.1546C75.8194 80.3321 76.1473 80.4209 76.5261 80.4209C76.7841 80.4209 77.0102 80.3806 77.2044 80.3002C77.4009 80.2197 77.5654 80.1119 77.698 79.977C77.8329 79.8397 77.9347 79.6894 78.0034 79.526L78.6035 79.7213C78.5206 79.951 78.3845 80.1628 78.1951 80.357C78.0081 80.5511 77.7737 80.7074 77.492 80.8257C77.2126 80.9417 76.8907 80.9997 76.5261 80.9997ZM80.1314 80.8861V75.4315H80.7457V76.2696H80.7919C80.9008 75.995 81.0902 75.7736 81.3601 75.6056C81.6323 75.4351 81.9401 75.3499 82.2834 75.3499C82.3355 75.3499 82.3935 75.3511 82.4574 75.3534C82.5213 75.3558 82.5746 75.3582 82.6172 75.3605V76.0033C82.5888 75.9985 82.5391 75.9914 82.468 75.982C82.397 75.9725 82.3201 75.9678 82.2372 75.9678C81.9531 75.9678 81.6998 76.0281 81.4773 76.1489C81.2571 76.2672 81.0831 76.4318 80.9552 76.6425C80.8274 76.8532 80.7635 77.0935 80.7635 77.3634V80.8861H80.1314ZM85.7351 80.9997C85.2261 80.9997 84.7857 80.8814 84.4141 80.6446C84.0424 80.4055 83.7547 80.0753 83.5511 79.6538C83.3499 79.2301 83.2493 78.7424 83.2493 78.1908C83.2493 77.6415 83.3499 77.1538 83.5511 76.7277C83.7547 76.2992 84.0353 75.9642 84.3927 75.7227C84.7526 75.4789 85.1681 75.357 85.6392 75.357C85.9351 75.357 86.2204 75.4114 86.495 75.5203C86.7696 75.6269 87.0159 75.7914 87.2337 76.0139C87.4538 76.2341 87.6278 76.5123 87.7557 76.8485C87.8835 77.1823 87.9474 77.5776 87.9474 78.0345V78.347H83.6861V77.7895H87.3011C87.3011 77.4391 87.2301 77.1243 87.0881 76.8449C86.9484 76.5632 86.7531 76.3406 86.5021 76.1773C86.2535 76.0139 85.9659 75.9323 85.6392 75.9323C85.2936 75.9323 84.9893 76.0246 84.7266 76.2092C84.4638 76.3939 84.2578 76.6378 84.1087 76.9408C83.9619 77.2438 83.8873 77.5753 83.8849 77.9351V78.2689C83.8849 78.7021 83.9595 79.0809 84.1087 79.4053C84.2602 79.7272 84.4744 79.977 84.7514 80.1546C85.0284 80.3321 85.3563 80.4209 85.7351 80.4209C85.9931 80.4209 86.2192 80.3806 86.4133 80.3002C86.6098 80.2197 86.7744 80.1119 86.907 79.977C87.0419 79.8397 87.1437 79.6894 87.2124 79.526L87.8125 79.7213C87.7296 79.951 87.5935 80.1628 87.4041 80.357C87.2171 80.5511 86.9827 80.7074 86.701 80.8257C86.4216 80.9417 86.0997 80.9997 85.7351 80.9997ZM94.3013 75.4315V75.982H91.6983V75.4315H94.3013ZM92.5115 74.1247H93.1472V79.4621C93.1472 79.6894 93.1862 79.8681 93.2644 79.9983C93.3425 80.1261 93.4443 80.2173 93.5698 80.2717C93.6952 80.3238 93.829 80.3499 93.9711 80.3499C94.0539 80.3499 94.1249 80.3451 94.1841 80.3357C94.2433 80.3238 94.2954 80.312 94.3404 80.3002L94.4753 80.8719C94.4138 80.8956 94.338 80.9169 94.248 80.9358C94.1581 80.9571 94.0468 80.9678 93.9142 80.9678C93.6822 80.9678 93.4585 80.9169 93.2431 80.8151C93.03 80.7133 92.8548 80.5618 92.7175 80.3605C92.5802 80.1593 92.5115 79.9095 92.5115 79.6112V74.1247ZM97.7983 80.9997C97.3272 80.9997 96.9105 80.8802 96.5483 80.6411C96.1884 80.402 95.9067 80.0717 95.7031 79.6503C95.4995 79.2265 95.3977 78.7377 95.3977 78.1837C95.3977 77.625 95.4995 77.1337 95.7031 76.71C95.9067 76.2838 96.1884 75.9524 96.5483 75.7156C96.9105 75.4765 97.3272 75.357 97.7983 75.357C98.2694 75.357 98.6849 75.4765 99.0447 75.7156C99.4046 75.9547 99.6863 76.2862 99.8899 76.71C100.096 77.1337 100.199 77.625 100.199 78.1837C100.199 78.7377 100.097 79.2265 99.8935 79.6503C99.6899 80.0717 99.407 80.402 99.0447 80.6411C98.6849 80.8802 98.2694 80.9997 97.7983 80.9997ZM97.7983 80.4209C98.1771 80.4209 98.4979 80.3191 98.7606 80.1155C99.0234 79.9119 99.2223 79.6408 99.3572 79.3023C99.4945 78.9637 99.5632 78.5909 99.5632 78.1837C99.5632 77.7765 99.4945 77.4024 99.3572 77.0615C99.2223 76.7206 99.0234 76.4472 98.7606 76.2412C98.4979 76.0352 98.1771 75.9323 97.7983 75.9323C97.4219 75.9323 97.1011 76.0352 96.8359 76.2412C96.5731 76.4472 96.3731 76.7206 96.2358 77.0615C96.1008 77.4024 96.0334 77.7765 96.0334 78.1837C96.0334 78.5909 96.1008 78.9637 96.2358 79.3023C96.3731 79.6408 96.5731 79.9119 96.8359 80.1155C97.0987 80.3191 97.4195 80.4209 97.7983 80.4209ZM108.064 76.6283L107.485 76.7916C107.428 76.6283 107.348 76.4803 107.243 76.3477C107.139 76.2152 107.003 76.1098 106.835 76.0317C106.669 75.9536 106.463 75.9145 106.217 75.9145C105.848 75.9145 105.545 76.0021 105.308 76.1773C105.071 76.3525 104.953 76.5786 104.953 76.8556C104.953 77.0899 105.033 77.2805 105.194 77.4273C105.358 77.5717 105.609 77.6865 105.947 77.7717L106.771 77.9742C107.228 78.0854 107.57 78.2618 107.797 78.5033C108.027 78.7448 108.142 79.0478 108.142 79.4124C108.142 79.7201 108.057 79.9936 107.886 80.2327C107.716 80.4718 107.478 80.66 107.172 80.7973C106.869 80.9323 106.518 80.9997 106.118 80.9997C105.585 80.9997 105.146 80.8802 104.8 80.6411C104.455 80.3996 104.233 80.0516 104.136 79.597L104.743 79.4479C104.822 79.7722 104.974 80.0172 105.202 80.183C105.431 80.3487 105.733 80.4315 106.107 80.4315C106.526 80.4315 106.861 80.338 107.112 80.151C107.363 79.9616 107.488 79.7249 107.488 79.4408C107.488 79.2206 107.415 79.036 107.268 78.8868C107.122 78.7353 106.899 78.624 106.601 78.553L105.709 78.3399C105.236 78.2263 104.885 78.0464 104.658 77.8002C104.431 77.5539 104.317 77.2485 104.317 76.884C104.317 76.5833 104.399 76.3193 104.562 76.0921C104.726 75.8624 104.951 75.6825 105.237 75.5523C105.523 75.4221 105.85 75.357 106.217 75.357C106.717 75.357 107.116 75.4706 107.414 75.6979C107.715 75.9228 107.931 76.2329 108.064 76.6283ZM110.158 77.477V80.8861H109.526V73.6134H110.158V76.2874H110.215C110.343 76.0056 110.54 75.7807 110.808 75.6127C111.078 75.4446 111.419 75.3605 111.831 75.3605C112.2 75.3605 112.524 75.4363 112.804 75.5878C113.083 75.7393 113.301 75.963 113.457 76.259C113.613 76.5549 113.691 76.9195 113.691 77.3527V80.8861H113.056V77.3918C113.056 76.942 112.93 76.588 112.679 76.33C112.431 76.0696 112.095 75.9394 111.671 75.9394C111.38 75.9394 111.12 76.0009 110.893 76.124C110.666 76.2471 110.486 76.4247 110.353 76.6567C110.223 76.8863 110.158 77.1598 110.158 77.477ZM116.879 81.0104C116.55 81.0104 116.25 80.9465 115.977 80.8186C115.705 80.6884 115.489 80.5014 115.328 80.2575C115.167 80.0113 115.086 79.713 115.086 79.3627C115.086 79.0928 115.137 78.8655 115.239 78.6808C115.341 78.4962 115.485 78.3447 115.672 78.2263C115.859 78.1079 116.08 78.0144 116.336 77.9458C116.592 77.8771 116.874 77.8238 117.181 77.786C117.487 77.7481 117.745 77.7149 117.955 77.6865C118.168 77.6581 118.331 77.6131 118.442 77.5516C118.553 77.49 118.609 77.3906 118.609 77.2533V77.1254C118.609 76.7538 118.498 76.4614 118.275 76.2483C118.055 76.0329 117.738 75.9252 117.323 75.9252C116.93 75.9252 116.61 76.0116 116.361 76.1844C116.115 76.3572 115.942 76.5608 115.842 76.7952L115.242 76.5786C115.365 76.2803 115.536 76.0423 115.754 75.8648C115.972 75.6849 116.215 75.5558 116.485 75.4777C116.755 75.3972 117.029 75.357 117.306 75.357C117.514 75.357 117.731 75.3842 117.955 75.4387C118.183 75.4931 118.393 75.5878 118.588 75.7227C118.782 75.8553 118.939 76.0412 119.06 76.2803C119.181 76.517 119.241 76.8177 119.241 77.1823V80.8861H118.609V80.0232H118.57C118.494 80.1842 118.382 80.3404 118.232 80.4919C118.083 80.6434 117.896 80.7677 117.671 80.8648C117.446 80.9619 117.182 81.0104 116.879 81.0104ZM116.965 80.4315C117.301 80.4315 117.592 80.357 117.838 80.2078C118.084 80.0587 118.274 79.861 118.406 79.6148C118.541 79.3662 118.609 79.0928 118.609 78.7945V78.0061C118.561 78.0511 118.482 78.0913 118.371 78.1269C118.262 78.1624 118.135 78.1943 117.991 78.2227C117.849 78.2488 117.707 78.2713 117.565 78.2902C117.423 78.3092 117.295 78.3257 117.181 78.3399C116.874 78.3778 116.611 78.437 116.393 78.5175C116.175 78.598 116.008 78.7092 115.892 78.8513C115.776 78.991 115.718 79.1709 115.718 79.3911C115.718 79.7225 115.837 79.9794 116.073 80.1617C116.31 80.3416 116.607 80.4315 116.965 80.4315ZM120.922 80.8861V75.4315H121.537V76.2696H121.583C121.692 75.995 121.881 75.7736 122.151 75.6056C122.423 75.4351 122.731 75.3499 123.074 75.3499C123.126 75.3499 123.184 75.3511 123.248 75.3534C123.312 75.3558 123.366 75.3582 123.408 75.3605V76.0033C123.38 75.9985 123.33 75.9914 123.259 75.982C123.188 75.9725 123.111 75.9678 123.028 75.9678C122.744 75.9678 122.491 76.0281 122.268 76.1489C122.048 76.2672 121.874 76.4318 121.746 76.6425C121.618 76.8532 121.555 77.0935 121.555 77.3634V80.8861H120.922ZM126.526 80.9997C126.017 80.9997 125.577 80.8814 125.205 80.6446C124.833 80.4055 124.546 80.0753 124.342 79.6538C124.141 79.2301 124.04 78.7424 124.04 78.1908C124.04 77.6415 124.141 77.1538 124.342 76.7277C124.546 76.2992 124.826 75.9642 125.184 75.7227C125.544 75.4789 125.959 75.357 126.43 75.357C126.726 75.357 127.011 75.4114 127.286 75.5203C127.561 75.6269 127.807 75.7914 128.025 76.0139C128.245 76.2341 128.419 76.5123 128.547 76.8485C128.675 77.1823 128.738 77.5776 128.738 78.0345V78.347H124.477V77.7895H128.092C128.092 77.4391 128.021 77.1243 127.879 76.8449C127.739 76.5632 127.544 76.3406 127.293 76.1773C127.045 76.0139 126.757 75.9323 126.43 75.9323C126.085 75.9323 125.78 76.0246 125.518 76.2092C125.255 76.3939 125.049 76.6378 124.9 76.9408C124.753 77.2438 124.678 77.5753 124.676 77.9351V78.2689C124.676 78.7021 124.751 79.0809 124.9 79.4053C125.051 79.7272 125.265 79.977 125.542 80.1546C125.819 80.3321 126.147 80.4209 126.526 80.4209C126.784 80.4209 127.01 80.3806 127.204 80.3002C127.401 80.2197 127.565 80.1119 127.698 79.977C127.833 79.8397 127.935 79.6894 128.003 79.526L128.604 79.7213C128.521 79.951 128.385 80.1628 128.195 80.357C128.008 80.5511 127.774 80.7074 127.492 80.8257C127.213 80.9417 126.891 80.9997 126.526 80.9997ZM133.384 82.9315C133.259 82.9315 133.142 82.9197 133.033 82.896C132.924 82.8724 132.837 82.8463 132.773 82.8179L132.944 82.2604C133.159 82.3267 133.351 82.3503 133.519 82.3314C133.687 82.3148 133.836 82.2391 133.967 82.1041C134.097 81.9716 134.213 81.768 134.315 81.4933L134.513 80.9394L132.507 75.4315H133.192L134.812 80.0516H134.861L136.481 75.4315H137.166L134.858 81.749C134.761 82.0118 134.641 82.2308 134.499 82.406C134.357 82.5835 134.193 82.7149 134.006 82.8002C133.821 82.8878 133.614 82.9315 133.384 82.9315ZM140.328 80.9997C139.856 80.9997 139.44 80.8802 139.078 80.6411C138.718 80.402 138.436 80.0717 138.232 79.6503C138.029 79.2265 137.927 78.7377 137.927 78.1837C137.927 77.625 138.029 77.1337 138.232 76.71C138.436 76.2838 138.718 75.9524 139.078 75.7156C139.44 75.4765 139.856 75.357 140.328 75.357C140.799 75.357 141.214 75.4765 141.574 75.7156C141.934 75.9547 142.216 76.2862 142.419 76.71C142.625 77.1337 142.728 77.625 142.728 78.1837C142.728 78.7377 142.626 79.2265 142.423 79.6503C142.219 80.0717 141.936 80.402 141.574 80.6411C141.214 80.8802 140.799 80.9997 140.328 80.9997ZM140.328 80.4209C140.706 80.4209 141.027 80.3191 141.29 80.1155C141.553 79.9119 141.752 79.6408 141.887 79.3023C142.024 78.9637 142.092 78.5909 142.092 78.1837C142.092 77.7765 142.024 77.4024 141.887 77.0615C141.752 76.7206 141.553 76.4472 141.29 76.2412C141.027 76.0352 140.706 75.9323 140.328 75.9323C139.951 75.9323 139.63 76.0352 139.365 76.2412C139.102 76.4472 138.902 76.7206 138.765 77.0615C138.63 77.4024 138.563 77.7765 138.563 78.1837C138.563 78.5909 138.63 78.9637 138.765 79.3023C138.902 79.6408 139.102 79.9119 139.365 80.1155C139.628 80.3191 139.949 80.4209 140.328 80.4209ZM147.582 78.8016V75.4315H148.214V80.8861H147.582V79.9806H147.532C147.404 80.2599 147.202 80.4931 146.925 80.6801C146.648 80.8648 146.309 80.9571 145.909 80.9571C145.561 80.9571 145.252 80.8814 144.982 80.7298C144.712 80.576 144.5 80.3511 144.347 80.0551C144.193 79.7592 144.116 79.3958 144.116 78.9649V75.4315H144.748V78.9259C144.748 79.352 144.873 79.6953 145.124 79.9557C145.375 80.2137 145.697 80.3428 146.09 80.3428C146.336 80.3428 146.573 80.2836 146.8 80.1652C147.028 80.0468 147.215 79.874 147.361 79.6467C147.508 79.4171 147.582 79.1354 147.582 78.8016ZM149.887 80.8861V75.4315H150.502V76.2696H150.548C150.657 75.995 150.846 75.7736 151.116 75.6056C151.388 75.4351 151.696 75.3499 152.039 75.3499C152.091 75.3499 152.149 75.3511 152.213 75.3534C152.277 75.3558 152.33 75.3582 152.373 75.3605V76.0033C152.345 75.9985 152.295 75.9914 152.224 75.982C152.153 75.9725 152.076 75.9678 151.993 75.9678C151.709 75.9678 151.456 76.0281 151.233 76.1489C151.013 76.2672 150.839 76.4318 150.711 76.6425C150.583 76.8532 150.519 77.0935 150.519 77.3634V80.8861H149.887ZM156.264 82.9315V75.4315H156.879V76.472H156.953C157.029 76.3087 157.133 76.1418 157.266 75.9713C157.398 75.7985 157.573 75.6529 157.791 75.5345C158.011 75.4162 158.288 75.357 158.622 75.357C159.072 75.357 159.465 75.4753 159.801 75.7121C160.14 75.9465 160.402 76.2755 160.589 76.6993C160.779 77.1207 160.874 77.6119 160.874 78.173C160.874 78.7365 160.779 79.2301 160.589 79.6538C160.402 80.0776 160.14 80.4079 159.801 80.6446C159.465 80.8814 159.074 80.9997 158.629 80.9997C158.3 80.9997 158.024 80.9405 157.802 80.8222C157.582 80.7038 157.403 80.5582 157.266 80.3854C157.131 80.2102 157.027 80.0397 156.953 79.874H156.896V82.9315H156.264ZM156.889 78.1624C156.889 78.6027 156.954 78.9933 157.085 79.3342C157.217 79.6728 157.406 79.9391 157.653 80.1333C157.901 80.325 158.202 80.4209 158.555 80.4209C158.917 80.4209 159.222 80.3215 159.471 80.1226C159.722 79.9214 159.912 79.6503 160.043 79.3094C160.175 78.9685 160.241 78.5861 160.241 78.1624C160.241 77.7433 160.176 77.3657 160.046 77.0296C159.918 76.6934 159.729 76.427 159.478 76.2306C159.227 76.0317 158.919 75.9323 158.555 75.9323C158.2 75.9323 157.898 76.0281 157.649 76.2199C157.401 76.4093 157.211 76.6721 157.081 77.0083C156.953 77.3421 156.889 77.7268 156.889 78.1624ZM162.892 77.477V80.8861H162.26V73.6134H162.892V76.2874H162.949C163.077 76.0056 163.275 75.7807 163.542 75.6127C163.812 75.4446 164.153 75.3605 164.565 75.3605C164.934 75.3605 165.259 75.4363 165.538 75.5878C165.817 75.7393 166.035 75.963 166.191 76.259C166.348 76.5549 166.426 76.9195 166.426 77.3527V80.8861H165.79V77.3918C165.79 76.942 165.665 76.588 165.414 76.33C165.165 76.0696 164.829 75.9394 164.405 75.9394C164.114 75.9394 163.855 76.0009 163.627 76.124C163.4 76.2471 163.22 76.4247 163.088 76.6567C162.958 76.8863 162.892 77.1598 162.892 77.477ZM170.21 80.9997C169.739 80.9997 169.323 80.8802 168.96 80.6411C168.601 80.402 168.319 80.0717 168.115 79.6503C167.912 79.2265 167.81 78.7377 167.81 78.1837C167.81 77.625 167.912 77.1337 168.115 76.71C168.319 76.2838 168.601 75.9524 168.96 75.7156C169.323 75.4765 169.739 75.357 170.21 75.357C170.682 75.357 171.097 75.4765 171.457 75.7156C171.817 75.9547 172.098 76.2862 172.302 76.71C172.508 77.1337 172.611 77.625 172.611 78.1837C172.611 78.7377 172.509 79.2265 172.306 79.6503C172.102 80.0717 171.819 80.402 171.457 80.6411C171.097 80.8802 170.682 80.9997 170.21 80.9997ZM170.21 80.4209C170.589 80.4209 170.91 80.3191 171.173 80.1155C171.436 79.9119 171.634 79.6408 171.769 79.3023C171.907 78.9637 171.975 78.5909 171.975 78.1837C171.975 77.7765 171.907 77.4024 171.769 77.0615C171.634 76.7206 171.436 76.4472 171.173 76.2412C170.91 76.0352 170.589 75.9323 170.21 75.9323C169.834 75.9323 169.513 76.0352 169.248 76.2412C168.985 76.4472 168.785 76.7206 168.648 77.0615C168.513 77.4024 168.445 77.7765 168.445 78.1837C168.445 78.5909 168.513 78.9637 168.648 79.3023C168.785 79.6408 168.985 79.9119 169.248 80.1155C169.511 80.3191 169.832 80.4209 170.21 80.4209ZM176.147 75.4315V75.982H173.544V75.4315H176.147ZM174.357 74.1247H174.993V79.4621C174.993 79.6894 175.032 79.8681 175.11 79.9983C175.188 80.1261 175.29 80.2173 175.415 80.2717C175.541 80.3238 175.675 80.3499 175.817 80.3499C175.9 80.3499 175.971 80.3451 176.03 80.3357C176.089 80.3238 176.141 80.312 176.186 80.3002L176.321 80.8719C176.259 80.8956 176.184 80.9169 176.094 80.9358C176.004 80.9571 175.893 80.9678 175.76 80.9678C175.528 80.9678 175.304 80.9169 175.089 80.8151C174.876 80.7133 174.701 80.5618 174.563 80.3605C174.426 80.1593 174.357 79.9095 174.357 79.6112V74.1247ZM179.644 80.9997C179.173 80.9997 178.756 80.8802 178.394 80.6411C178.034 80.402 177.752 80.0717 177.549 79.6503C177.345 79.2265 177.243 78.7377 177.243 78.1837C177.243 77.625 177.345 77.1337 177.549 76.71C177.752 76.2838 178.034 75.9524 178.394 75.7156C178.756 75.4765 179.173 75.357 179.644 75.357C180.115 75.357 180.531 75.4765 180.89 75.7156C181.25 75.9547 181.532 76.2862 181.736 76.71C181.942 77.1337 182.045 77.625 182.045 78.1837C182.045 78.7377 181.943 79.2265 181.739 79.6503C181.536 80.0717 181.253 80.402 180.89 80.6411C180.531 80.8802 180.115 80.9997 179.644 80.9997ZM179.644 80.4209C180.023 80.4209 180.344 80.3191 180.606 80.1155C180.869 79.9119 181.068 79.6408 181.203 79.3023C181.34 78.9637 181.409 78.5909 181.409 78.1837C181.409 77.7765 181.34 77.4024 181.203 77.0615C181.068 76.7206 180.869 76.4472 180.606 76.2412C180.344 76.0352 180.023 75.9323 179.644 75.9323C179.268 75.9323 178.947 76.0352 178.682 76.2412C178.419 76.4472 178.219 76.7206 178.081 77.0615C177.947 77.4024 177.879 77.7765 177.879 78.1837C177.879 78.5909 177.947 78.9637 178.081 79.3023C178.219 79.6408 178.419 79.9119 178.682 80.1155C178.944 80.3191 179.265 80.4209 179.644 80.4209Z" fill="black" style="fill:black;fill:black;fill-opacity:1;"/>
<path d="M124.801 20.095C124.801 17.4736 122.515 15.3481 119.696 15.3481C117.589 15.3481 115.779 16.5359 115 18.231C114.221 16.5359 112.411 15.3481 110.303 15.3481C107.486 15.3481 105.199 17.4736 105.199 20.095C105.199 27.711 115 32.7532 115 32.7532C115 32.7532 124.801 27.711 124.801 20.095Z" stroke="black" style="stroke:black;stroke:black;stroke-opacity:1;" stroke-width="1.5" stroke-linecap="round" stroke-linejoin="round"/>
<defs>
<filter id="filter0_i_14_231" x="0" y="0" width="230" height="104" filterUnits="userSpaceOnUse" color-interpolation-filters="sRGB">
<feFlood flood-opacity="0" result="BackgroundImageFix"/>
<feBlend mode="normal" in="SourceGraphic" in2="BackgroundImageFix" result="shape"/>
<feColorMatrix in="SourceAlpha" type="matrix" values="0 0 0 0 0 0 0 0 0 0 0 0 0 0 0 0 0 0 127 0" result="hardAlpha"/>
<feOffset dy="4"/>
<feGaussianBlur stdDeviation="2"/>
<feComposite in2="hardAlpha" operator="arithmetic" k2="-1" k3="1"/>
<feColorMatrix type="matrix" values="0 0 0 0 0 0 0 0 0 0 0 0 0 0 0 0 0 0 0.25 0"/>
<feBlend mode="normal" in2="shape" result="effect1_innerShadow_14_231"/>
</filter>
</defs>
</svg>
