<svg width="90" height="103" viewBox="0 0 90 103" fill="none" xmlns="http://www.w3.org/2000/svg">
<path d="M2.19531 15.65H12.8453V27H18.7953V15.65H29.4953V49H18.7953V36.65H12.8453V49H2.19531V15.65ZM42.9059 15.65H50.9059L63.5559 49H53.0559L51.9559 46H41.8559L40.7559 49H30.2559L42.9059 15.65ZM49.1559 38.65L46.9059 32.8L44.6559 38.65H49.1559Z" fill="#EFAD91" style="fill:#EFAD91;fill:color(display-p3 0.9367 0.6781 0.5672);fill-opacity:1;"/>
<path d="M2.19434 55.65H15.2443C16.911 55.65 18.4277 55.85 19.7943 56.25C21.1943 56.6167 22.3777 57.1833 23.3443 57.95C24.3443 58.6833 25.111 59.6167 25.6443 60.75C26.211 61.85 26.4943 63.15 26.4943 64.65C26.4943 65.7167 26.361 66.6333 26.0943 67.4C25.8277 68.1333 25.5443 68.75 25.2443 69.25C24.8777 69.85 24.461 70.35 23.9943 70.75C24.7277 71.2167 25.3943 71.8167 25.9943 72.55C26.4943 73.1833 26.9443 73.9833 27.3443 74.95C27.7777 75.9167 27.9943 77.1 27.9943 78.5C27.9943 80.1 27.711 81.55 27.1443 82.85C26.5777 84.15 25.761 85.2667 24.6943 86.2C23.661 87.1 22.3777 87.8 20.8443 88.3C19.3443 88.7667 17.661 89 15.7943 89H2.19434V55.65ZM13.6943 81.15C16.2277 81.15 17.4943 80.1833 17.4943 78.25C17.4943 76.3167 16.2277 75.35 13.6943 75.35H12.4943V81.15H13.6943ZM16.1943 65.8C16.1943 64.2667 15.361 63.5 13.6943 63.5H12.4943V68.1H13.6943C15.361 68.1 16.1943 67.3333 16.1943 65.8ZM30.2217 55.65H41.5217V89H30.2217V55.65ZM49.4166 64.4H43.2666V55.65H66.5666V64.4H60.4166V89H49.4166V64.4ZM67.8959 78.65C68.6292 78.8833 69.3959 79.0667 70.1959 79.2C70.8626 79.3667 71.6126 79.5 72.4459 79.6C73.3126 79.7 74.1792 79.75 75.0459 79.75C76.5792 79.75 77.3459 79.1833 77.3459 78.05C77.3459 77.6167 77.1126 77.1833 76.6459 76.75C76.1792 76.2833 75.5792 75.7833 74.8459 75.25C74.1459 74.6833 73.3792 74.0667 72.5459 73.4C71.7459 72.7333 70.9792 71.9667 70.2459 71.1C69.5459 70.2333 68.9626 69.2667 68.4959 68.2C68.0292 67.1 67.7959 65.85 67.7959 64.45C67.7959 62.8833 68.0792 61.5 68.6459 60.3C69.2126 59.1 69.9959 58.1 70.9959 57.3C71.9959 56.5 73.1626 55.9 74.4959 55.5C75.8626 55.0667 77.3126 54.85 78.8459 54.85C79.6459 54.85 80.4459 54.9 81.2459 55C82.0459 55.0667 82.7626 55.1333 83.3959 55.2C84.1292 55.3 84.8459 55.4 85.5459 55.5V64.85C85.2792 64.8167 84.9792 64.7833 84.6459 64.75C84.3792 64.7167 84.0792 64.6833 83.7459 64.65C83.4126 64.6167 83.0626 64.6 82.6959 64.6C82.4959 64.6 82.2459 64.6167 81.9459 64.65C81.6459 64.65 81.3626 64.6833 81.0959 64.75C80.8292 64.8167 80.5959 64.9333 80.3959 65.1C80.1959 65.2667 80.0959 65.5 80.0959 65.8C80.0959 66.0667 80.3126 66.4 80.7459 66.8C81.2126 67.2 81.7626 67.6667 82.3959 68.2C83.0626 68.7333 83.7792 69.35 84.5459 70.05C85.3459 70.75 86.0626 71.55 86.6959 72.45C87.3626 73.35 87.9126 74.3667 88.3459 75.5C88.8126 76.6333 89.0459 77.9 89.0459 79.3C89.0459 80.7667 88.8126 82.15 88.3459 83.45C87.8792 84.7167 87.1459 85.8333 86.1459 86.8C85.1792 87.7333 83.9292 88.4667 82.3959 89C80.8626 89.5667 79.0459 89.85 76.9459 89.85C75.6792 89.85 74.4959 89.7833 73.3959 89.65C72.3292 89.55 71.3792 89.4167 70.5459 89.25C69.5792 89.0833 68.6959 88.8833 67.8959 88.65V78.65Z" fill="#FDD97D" fill-opacity="0.85" style="fill:#FDD97D;fill:color(display-p3 0.9920 0.8511 0.4889);fill-opacity:0.85;"/>
<path d="M75 19L80.3457 25.9315L87 31.5L80.3457 37.0685L75 44L69.6543 37.0685L63 31.5L69.6543 25.9315L75 19Z" fill="#FFE973" style="fill:#FFE973;fill:color(display-p3 1.0000 0.9120 0.4498);fill-opacity:1;"/>
</svg>
