<svg width="227" height="262" viewBox="0 0 227 262" fill="none" xmlns="http://www.w3.org/2000/svg">
<path d="M5.53706 39.8087H32.3987V68.6796H47.4059V39.8087H74.3937V124.641H47.4059V93.2262H32.3987V124.641H5.53706V39.8087ZM108.218 39.8087H128.396L160.302 124.641H133.819L131.044 117.01H105.57L102.795 124.641H76.3121L108.218 39.8087ZM123.982 98.3136L118.307 83.433L112.632 98.3136H123.982Z" fill="#EFAD91" style="fill:#EFAD91;fill:color(display-p3 0.9367 0.6781 0.5672);fill-opacity:1;"/>
<path d="M5.53461 141.556H38.4495C42.6533 141.556 46.4787 142.065 49.9256 143.083C53.4567 144.015 56.4415 145.457 58.8795 147.407C61.4017 149.272 63.3355 151.646 64.6806 154.529C66.11 157.327 66.8245 160.634 66.8245 164.45C66.8245 167.163 66.4883 169.494 65.8156 171.445C65.1432 173.31 64.4284 174.879 63.6717 176.15C62.7471 177.677 61.6961 178.949 60.519 179.966C62.3688 181.153 64.0501 182.679 65.5634 184.545C66.8245 186.156 67.9595 188.191 68.9684 190.65C70.0615 193.109 70.6078 196.118 70.6078 199.68C70.6078 203.75 69.8933 207.438 68.464 210.745C67.0349 214.051 64.975 216.892 62.2845 219.266C59.6783 221.555 56.4415 223.336 52.574 224.608C48.7906 225.795 44.545 226.388 39.8367 226.388H5.53461V141.556ZM34.5401 206.42C40.9299 206.42 44.1245 203.961 44.1245 199.044C44.1245 194.126 40.9299 191.667 34.5401 191.667H31.5134V206.42H34.5401ZM40.8456 167.375C40.8456 163.475 38.7439 161.524 34.5401 161.524H31.5134V173.225H34.5401C38.7439 173.225 40.8456 171.275 40.8456 167.375ZM76.2258 141.556H104.727V226.388H76.2258V141.556ZM124.64 163.814H109.128V141.556H167.896V163.814H152.384V226.388H124.64V163.814ZM171.249 200.061C173.098 200.655 175.032 201.121 177.05 201.46C178.731 201.884 180.623 202.223 182.725 202.478C184.911 202.732 187.096 202.859 189.282 202.859C193.15 202.859 195.084 201.418 195.084 198.535C195.084 197.433 194.495 196.33 193.318 195.228C192.141 194.041 190.628 192.769 188.778 191.413C187.012 189.971 185.079 188.403 182.977 186.707C180.959 185.011 179.025 183.061 177.176 180.856C175.41 178.652 173.939 176.193 172.762 173.48C171.585 170.682 170.996 167.502 170.996 163.941C170.996 159.956 171.711 156.437 173.14 153.384C174.57 150.332 176.545 147.788 179.067 145.753C181.59 143.718 184.532 142.192 187.895 141.175C191.342 140.073 195 139.521 198.867 139.521C200.885 139.521 202.902 139.649 204.92 139.903C206.938 140.073 208.746 140.242 210.343 140.412C212.193 140.666 214 140.92 215.766 141.175V164.958C215.093 164.874 214.336 164.789 213.496 164.704C212.823 164.619 212.066 164.534 211.226 164.45C210.385 164.365 209.502 164.322 208.577 164.322C208.073 164.322 207.442 164.365 206.686 164.45C205.929 164.45 205.215 164.534 204.542 164.704C203.869 164.874 203.281 165.17 202.776 165.594C202.272 166.018 202.02 166.612 202.02 167.375C202.02 168.053 202.566 168.901 203.659 169.918C204.836 170.936 206.223 172.123 207.821 173.48C209.502 174.836 211.31 176.405 213.244 178.185C215.261 179.966 217.069 182.001 218.666 184.29C220.348 186.58 221.735 189.166 222.828 192.049C224.005 194.931 224.594 198.153 224.594 201.715C224.594 205.445 224.005 208.964 222.828 212.271C221.651 215.493 219.801 218.333 217.279 220.792C214.841 223.166 211.688 225.032 207.821 226.388C203.953 227.83 199.371 228.55 194.075 228.55C190.88 228.55 187.895 228.381 185.121 228.042C182.43 227.787 180.034 227.448 177.932 227.024C175.494 226.6 173.266 226.092 171.249 225.498V200.061Z" fill="#FDD97D" fill-opacity="0.85" style="fill:#FDD97D;fill:color(display-p3 0.9920 0.8511 0.4889);fill-opacity:0.85;"/>
<path d="M189.167 48.3301L202.65 65.9617L219.433 80.1262L202.65 94.2907L189.167 111.922L175.684 94.2907L158.9 80.1262L175.684 65.9617L189.167 48.3301Z" fill="#FFE973" style="fill:#FFE973;fill:color(display-p3 1.0000 0.9120 0.4498);fill-opacity:1;"/>
</svg>
